<svg width="20" height="20" viewBox="0 0 20 20" fill="none" xmlns="http://www.w3.org/2000/svg">
<path d="M13.2981 10.42C14.0703 9.81249 14.6339 8.97943 14.9105 8.03671C15.1872 7.09399 15.1631 6.08849 14.8416 5.16009C14.5202 4.23169 13.9174 3.42656 13.1171 2.85672C12.3167 2.28688 11.3587 1.98065 10.3762 1.98065C9.39375 1.98065 8.43571 2.28688 7.63538 2.85672C6.83505 3.42656 6.23224 4.23169 5.9108 5.16009C5.58936 6.08849 5.56529 7.09399 5.84192 8.03671C6.11856 8.97943 6.68215 9.81249 7.45429 10.42C6.13121 10.9501 4.97678 11.8292 4.11407 12.9638C3.25136 14.0984 2.7127 15.4458 2.55553 16.8624C2.54415 16.9658 2.55326 17.0705 2.58233 17.1704C2.6114 17.2703 2.65986 17.3635 2.72495 17.4447C2.8564 17.6086 3.0476 17.7136 3.25648 17.7366C3.46536 17.7596 3.67481 17.6987 3.83876 17.5672C4.00271 17.4357 4.10772 17.2446 4.1307 17.0357C4.30364 15.4961 5.03774 14.0742 6.19276 13.0417C7.34777 12.0091 8.84272 11.4383 10.392 11.4383C11.9412 11.4383 13.4362 12.0091 14.5912 13.0417C15.7462 14.0742 16.4803 15.4961 16.6532 17.0357C16.6747 17.2292 16.767 17.4079 16.9124 17.5374C17.0579 17.6668 17.2461 17.7378 17.4408 17.7366H17.5275C17.7339 17.7129 17.9226 17.6085 18.0524 17.4462C18.1823 17.2839 18.2427 17.0769 18.2205 16.8703C18.0626 15.4496 17.5211 14.0988 16.6539 12.9625C15.7868 11.8261 14.6267 10.9473 13.2981 10.42ZM10.3762 9.8608C9.75314 9.8608 9.14406 9.67604 8.62599 9.32987C8.10792 8.98371 7.70414 8.4917 7.4657 7.91605C7.22726 7.3404 7.16487 6.70698 7.28642 6.09587C7.40798 5.48477 7.70802 4.92343 8.1486 4.48285C8.58918 4.04227 9.15052 3.74223 9.76162 3.62068C10.3727 3.49912 11.0062 3.56151 11.5818 3.79995C12.1574 4.03839 12.6495 4.44217 12.9956 4.96024C13.3418 5.47831 13.5265 6.0874 13.5265 6.71047C13.5265 7.54599 13.1946 8.34729 12.6038 8.93809C12.013 9.52889 11.2117 9.8608 10.3762 9.8608Z" fill="#AAAFB5"/>
</svg>
