<svg width="7" height="12" viewBox="0 0 7 12" fill="none" xmlns="http://www.w3.org/2000/svg">
<path d="M1.06831 5.44666L5.52602 0.99682C5.59924 0.923002 5.68635 0.86441 5.78232 0.824426C5.8783 0.784441 5.98124 0.763855 6.08521 0.763855C6.18918 0.763855 6.29212 0.784441 6.38809 0.824426C6.48407 0.86441 6.57117 0.923002 6.64439 0.99682C6.79108 1.14438 6.87341 1.344 6.87341 1.55207C6.87341 1.76013 6.79108 1.95975 6.64439 2.10731L2.74586 6.04522L6.64439 9.94375C6.79108 10.0913 6.87341 10.2909 6.87341 10.499C6.87341 10.7071 6.79108 10.9067 6.64439 11.0542C6.57145 11.1287 6.48446 11.1879 6.38848 11.2284C6.29249 11.269 6.18941 11.2901 6.08521 11.2905C5.981 11.2901 5.87792 11.269 5.78194 11.2284C5.68595 11.1879 5.59897 11.1287 5.52602 11.0542L1.06831 6.6044C0.988368 6.53065 0.924567 6.44114 0.880929 6.34151C0.837291 6.24189 0.814763 6.1343 0.814763 6.02553C0.814763 5.91676 0.837291 5.80918 0.880929 5.70955C0.924567 5.60992 0.988368 5.52041 1.06831 5.44666Z" fill="#0B0A0A"/>
</svg>
