<svg width="26" height="27" viewBox="0 0 26 27" fill="none" xmlns="http://www.w3.org/2000/svg">
<mask id="mask0_1_2510" style="mask-type:alpha" maskUnits="userSpaceOnUse" x="0" y="0" width="26" height="27">
<rect x="0.454346" y="0.964142" width="25.2026" height="25.2026" rx="3.15033" fill="#C4C4C4"/>
</mask>
<g mask="url(#mask0_1_2510)">
<path fill-rule="evenodd" clip-rule="evenodd" d="M-46.4542 52.4948C-46.3402 52.0307 -46.1692 49.8647 -46.1692 49.29C-44.7553 49.29 -43.5125 49.2348 -42.1557 48.9364C-41.8479 48.8701 -41.4374 48.7375 -41.1181 48.7375L-40.6164 51.5665C-40.7533 51.5776 -43.6494 52.4175 -44.7667 52.4396C-45.3368 52.4506 -45.8271 52.4948 -46.4542 52.4948ZM-15.0305 20.8889C-15.1332 20.9884 -14.9621 20.9221 -15.0191 20.8889C-15.0077 20.8889 -15.0191 20.8889 -15.0305 20.8889ZM1.50224 -8.26364H1.33121C1.45663 -8.09788 1.37682 -8.09788 1.50224 -8.26364ZM-42.2013 -8.65042C-42.2013 -8.46256 -42.1101 -8.37415 -41.9163 -8.37415C-41.711 -8.37415 -41.5628 -8.9709 -40.7989 -8.9709C-40.0692 -8.9709 -39.3394 -7.85475 -39.3394 -8.48466C-39.3394 -8.97091 -40.3542 -10.1092 -41.6654 -9.28033C-41.8478 -9.15877 -42.2013 -8.8825 -42.2013 -8.65042ZM-49.4301 -7.99841C-49.4301 -7.87685 -49.4073 -7.93211 -49.3731 -7.77739C-49.1109 -7.71109 -49.1451 -7.70004 -48.9626 -7.8658C-47.7654 -9.01511 -46.9559 -8.20839 -46.1236 -8.20839C-45.9525 -8.20839 -45.9525 -8.28574 -45.9525 -8.42941C-45.9525 -8.80514 -46.9901 -9.13667 -47.7426 -9.13667C-48.3013 -9.13667 -49.4301 -8.46255 -49.4301 -7.99841ZM-45.0518 -6.1971C-45.0518 -6.05344 -45.029 -6.04239 -44.9948 -5.92082C-44.7895 -5.83242 -44.5729 -5.81031 -44.2651 -5.81031C-43.4327 -5.81031 -43.7292 -5.01464 -43.2617 -4.34053C-42.8626 -4.42894 -42.7828 -4.91518 -42.7828 -5.26881C-42.7714 -5.96503 -43.2161 -6.86016 -44.1168 -6.6944C-44.4361 -6.65019 -45.0518 -6.49548 -45.0518 -6.1971ZM-7.85873 -3.21333C-7.85873 -2.72708 -6.96938 -2.98125 -6.23966 -3.05861L-3.18395 -3.50065C-2.95591 -3.5117 -2.87609 -3.4454 -2.86469 -3.81008C-3.17255 -3.87638 -3.05853 -3.92059 -3.4804 -3.92059C-4.34695 -3.92059 -6.09144 -3.75483 -6.96938 -3.61116C-7.27724 -3.56696 -7.85873 -3.5117 -7.85873 -3.21333ZM-56.6475 -6.6944C-56.4423 -6.6944 -56.1231 -6.45127 -56.0318 -6.31866C-56.0888 -6.11974 -56.9668 -5.34617 -56.4195 -4.95938C-56.2143 -5.10305 -56.3853 -5.01464 -56.2371 -5.21356C-56.066 -5.43458 -55.7012 -5.75506 -55.4161 -5.77716C-55.3363 -5.47878 -54.6408 -4.79362 -54.6294 -4.25212C-53.7286 -4.32948 -54.846 -6.23025 -55.1767 -6.60599C-55.3591 -6.81596 -55.3705 -6.88226 -55.667 -7.11433C-56.9326 -8.07577 -57.5939 -7.01488 -57.0808 -6.7165C-56.8528 -6.58389 -56.83 -6.6944 -56.6475 -6.6944ZM24.1921 -17.8228C24.1921 -16.563 25.4577 -16.2646 26.3584 -16.9166C27.5214 -17.7675 26.4496 -18.3864 26.2216 -18.6405C25.7883 -19.1157 25.013 -19.0494 24.5569 -18.6074C24.3517 -18.4195 24.1921 -18.1653 24.1921 -17.8228ZM28.1143 -12.4962C28.1143 -11.7889 28.6616 -11.0706 29.4255 -11.1701C29.8246 -11.2253 30.1781 -11.38 30.4175 -11.5679C31.3981 -12.3304 30.9534 -13.4687 30.1325 -13.6455C29.5282 -13.7781 29.3001 -13.8444 28.616 -13.3692C28.3195 -13.1703 28.1143 -12.7393 28.1143 -12.4962ZM-11.61 -18.6958L-11.553 -20.265C-11.4503 -20.2208 -9.87687 -19.9777 -9.87687 -19.3368C-9.87687 -18.9058 -11.0513 -18.6958 -11.61 -18.6958ZM-12.1687 -21.1933C-12.5563 -21.2817 -13.1834 -21.6022 -12.5449 -22.21C-12.4081 -22.3426 -12.2827 -22.4752 -12.0546 -22.4973L-12.1687 -21.1933ZM-11.9976 -23.7903C-11.9976 -22.8178 -12.1003 -23.2599 -12.83 -22.8068C-12.9326 -22.7405 -12.9896 -22.7073 -13.0808 -22.6189C-14.2666 -21.5912 -13.001 -20.4971 -12.1573 -20.4198C-12.2257 -20.1103 -12.2143 -19.8672 -12.2143 -19.4915C-12.2143 -19.1157 -12.2713 -18.8616 -12.2713 -18.5632C-12.8756 -18.5632 -13.4115 -18.3974 -13.8904 -18.5079C-13.9588 -18.8174 -13.9474 -19.0605 -13.9474 -19.4362C-14.107 -19.5467 -14.2324 -19.7014 -14.449 -19.602C-14.7455 -19.4694 -14.7227 -19.1268 -14.7227 -18.8395C-14.7227 -18.4195 -14.5631 -18.1653 -14.392 -17.9112C-13.8447 -17.9112 -13.5711 -17.8007 -13.0466 -17.8007H-12.2029V-16.9829C-13.0808 -16.9166 -12.7502 -16.2756 -12.4879 -16.2756C-12.2257 -16.2756 -11.2565 -16.1872 -11.2565 -16.5961C-11.2565 -16.8503 -11.5302 -16.8171 -11.7012 -16.8171L-11.6442 -17.8449C-8.52005 -17.8449 -8.12098 -20.0661 -10.6864 -20.7844C-10.8688 -20.8397 -11.3933 -20.9281 -11.5302 -20.9944C-11.5302 -21.2707 -11.4731 -21.4585 -11.4731 -21.8122C-11.4731 -22.0995 -11.4731 -22.3868 -11.4731 -22.6852C-11.3477 -22.7184 -11.3021 -22.7405 -11.1539 -22.7626C-11.0285 -22.7847 -11.1197 -22.7847 -10.9943 -22.7626L-10.1277 -22.5858C-10.1277 -22.2542 -10.2417 -21.6575 -9.74005 -21.6575C-9.23837 -21.6575 -9.35239 -22.1106 -9.35239 -22.6852C-9.35239 -23.1162 -9.72865 -23.1825 -10.1961 -23.1715C-10.6978 -23.1715 -10.9715 -23.2267 -11.4845 -23.2267V-23.9892C-11.1881 -23.9892 -10.8802 -24.0555 -10.8118 -24.3097C-11.1197 -24.5086 -12.1345 -24.5307 -12.2029 -24.5197C-12.6589 -24.4755 -12.6931 -23.8456 -11.9976 -23.7903ZM23.2913 -12.883C23.2913 -13.0487 23.4053 -13.0708 23.5421 -13.1371C23.622 -13.1703 23.5878 -13.1482 23.6562 -13.1924L24.4201 -13.9107C24.4315 -13.9218 24.4429 -13.9328 24.4543 -13.9328L27.0653 -16.2314C27.1794 -16.3419 27.1794 -16.3309 27.3048 -16.4303C27.4302 -16.5187 27.453 -16.563 27.567 -16.6624C27.6354 -16.7177 27.6126 -16.7066 27.6924 -16.7619L28.8554 -17.7012C29.95 -18.5632 30.4973 -19.2373 31.0674 -18.3422C31.2156 -18.099 31.1244 -18.2427 31.3411 -18.1211C31.9112 -17.7896 31.113 -17.1818 30.7596 -16.8945L25.241 -11.7668C24.6481 -11.3248 24.2491 -11.5237 23.793 -12.0652C23.5079 -12.3967 23.2913 -12.5956 23.2913 -12.883ZM-44.3791 -3.81008C-46.306 -3.81008 -46.7849 -4.13056 -48.1303 -4.13056C-48.7118 -4.13056 -48.803 -3.58906 -48.803 -3.15807C-48.803 -2.62762 -48.4838 -1.97561 -48.2671 -1.61093C-47.6742 -0.660542 -46.9103 -0.218502 -45.8613 0.190386C-44.5843 0.676628 -44.6755 0.643478 -43.3643 0.643478C-42.6232 0.643478 -42.1215 0.212488 -42.3723 0.0798759L-43.9914 0.0135727C-45.0518 -0.11904 -45.0176 -0.0969391 -46.0324 -0.561083C-46.2718 -0.671593 -46.477 -0.693693 -46.6139 -0.87051C-45.8955 -1.20204 -44.2194 -0.914715 -43.4099 -0.771051C-42.4293 -0.594234 -43.1363 -0.914715 -42.7828 -2.26294C-42.6688 -2.69393 -42.5662 -3.05861 -42.4636 -3.47855C-42.1899 -3.5338 -41.5286 -3.66642 -41.3234 -3.77693C-41.1523 -3.87639 -41.0497 -4.06425 -41.2321 -4.17476C-41.3918 -4.28527 -43.0336 -3.81008 -44.3791 -3.81008ZM16.8492 -15.922C16.8492 -15.3915 16.6098 -14.3859 16.4388 -13.977C16.3247 -13.7007 16.2335 -13.4245 16.0967 -13.1703L15.8801 -12.7835C15.1275 -11.3027 13.9873 -10.4075 14.3294 -8.3189C14.4092 -7.7995 14.4776 -7.83265 13.8733 -7.83265C12.8586 -7.83265 13.5313 -10.4296 13.5427 -10.7059C12.927 -10.9932 12.6533 -10.6175 12.3683 -10.3854L9.70022 -8.29679C8.9933 -7.8216 7.35142 -7.05908 6.55328 -6.7828C4.75179 -6.16394 2.39159 -6.02028 0.567284 -6.7165C0.373451 -6.79386 0.213821 -6.87121 0.0655975 -6.99277C0.0427933 -7.01488 0.0085907 -7.04803 -0.0256119 -7.07013L-0.686932 -7.78844C-1.1088 -8.3852 -0.949169 -8.3852 -0.276459 -8.78304C-0.0484161 -8.91565 0.202423 -9.07036 0.441864 -9.10351C1.04617 -9.20297 3.44057 -10.5954 4.11328 -11.0374C4.843 -11.5126 4.76318 -11.601 5.20786 -11.2364L5.33329 -11.1369C6.0288 -10.5291 6.18842 -8.51781 9.28975 -9.83288L10.0423 -10.1865C11.6271 -11.0927 11.764 -11.1369 13.212 -12.5404C14.2838 -13.5792 14.3066 -13.9991 14.9223 -15.1816C15.4924 -16.2867 15.9485 -17.1818 15.9485 -18.53C16.1309 -18.4085 16.6326 -17.6681 16.587 -17.3697C16.5072 -16.9166 16.4958 -17.436 16.701 -16.7066C16.7466 -16.5298 16.8492 -16.0878 16.8492 -15.922ZM-1.91833 -8.80514C-1.6789 -9.14772 -1.55347 -9.25823 -1.15441 -9.47925C-0.561508 -9.79973 1.12598 -10.4959 1.85571 -10.8054C2.98449 -11.2806 5.21926 -12.9603 6.15422 -13.6455C6.43927 -13.8554 6.6673 -14.0433 6.95235 -14.2754L8.83367 -15.8667C8.84507 -15.8778 8.85648 -15.8888 8.86788 -15.8888L9.01611 -16.0214C9.0275 -16.0325 9.03891 -16.0436 9.05031 -16.0436C9.06171 -16.0546 9.07311 -16.0657 9.08451 -16.0657L10.4869 -17.4249C10.4984 -17.436 10.5098 -17.447 10.5098 -17.4581C10.5212 -17.4691 10.5326 -17.4802 10.5326 -17.4912C11.0913 -18.1432 11.8096 -18.1874 10.829 -19.9004C10.5668 -20.3534 10.3273 -20.6518 9.91685 -20.9171C9.91685 -20.0993 9.87125 -19.7456 9.62041 -19.1378C8.9933 -17.5796 8.28638 -16.6514 7.15759 -15.3915L6.65591 -14.85C6.5989 -14.7948 6.5761 -14.7727 6.51908 -14.7064L3.85104 -12.463C1.99252 -11.2585 1.57065 -12.1978 0.932144 -13.0156C0.818123 -13.1592 0.658501 -13.3029 0.521675 -13.4355C-0.0712204 -13.9881 -0.219448 -13.9218 -0.5387 -13.7339C-1.37104 -13.2255 -2.95591 -12.452 -3.86806 -12.021C-4.43816 -11.7558 -4.98545 -11.5237 -5.38451 -11.0485C-5.70377 -10.6617 -5.72657 -10.3854 -5.43013 -9.99865C-5.13367 -9.61186 -4.0847 -9.25823 -3.59442 -9.12562C-2.84189 -8.9046 -2.42002 -8.91565 -1.91833 -8.80514ZM-5.22489 -8.3189L-6.06863 -8.9709C-6.53611 -9.31349 -6.83256 -10.2528 -6.76415 -10.6286C-6.68434 -11.1259 -6.35368 -11.6231 -6.08004 -11.9215C-5.82919 -12.1978 -5.2819 -12.5072 -4.91704 -12.6951C-4.18732 -13.0708 -3.28656 -13.4466 -2.55684 -13.8333C-2.44282 -13.8997 -2.37441 -13.9218 -2.2604 -13.9881L-1.01758 -14.6843C-0.812347 -14.8058 -0.595711 -14.9163 -0.390476 -15.049C-0.185242 -15.1816 -0.00280762 -15.27 0.202423 -15.3915L4.58076 -18.4858C4.59216 -18.4969 4.60356 -18.5079 4.61496 -18.5079L6.37086 -20.0109C8.05834 -21.5359 8.71965 -22.5637 10.4527 -21.6685C10.9316 -21.4143 11.1711 -21.0939 11.4789 -20.7071C11.7298 -20.3866 12.1174 -19.8893 12.1516 -19.4583L12.8129 -20.3977C13.326 -20.9502 13.8733 -20.8397 14.5232 -20.7734C14.9565 -20.7292 14.7741 -20.7955 15.0933 -20.6187C16.2107 -20.0109 16.644 -19.392 17.2939 -18.3532L17.7158 -17.2923C18.2973 -15.4578 17.6588 -13.9991 16.9404 -12.3857C16.5984 -11.6121 16.4616 -11.7889 16.1195 -11.0595C15.3898 -9.4903 15.6064 -9.81078 15.3784 -8.24154L15.2301 -7.13643C14.7627 -7.02592 13.8733 -6.89331 13.326 -7.03698C13.1094 -7.09223 12.6875 -7.47902 12.5735 -7.66688C12.3455 -8.05367 12.2542 -8.60622 12.2542 -9.20298C12.049 -9.14772 11.5587 -8.68358 11.3079 -8.49571C9.64321 -7.258 7.89871 -6.2192 5.85777 -5.6335C5.4245 -5.51194 4.90001 -5.43458 4.46674 -5.34617C4.02206 -5.25776 3.58879 -5.12515 3.0757 -5.12515C1.69607 -5.12515 0.715508 -5.21356 -0.41328 -5.81031C-0.903564 -6.06449 -1.65609 -6.82701 -1.96394 -7.23589C-2.05516 -7.35745 -2.26039 -7.66688 -2.2946 -7.83265C-2.81909 -7.83265 -3.75404 -8.05367 -4.19872 -8.05367L-6.92377 -7.11433C-7.25443 -7.01487 -7.56228 -6.91541 -7.94995 -6.91541C-8.30341 -6.91541 -8.72528 -7.40166 -7.68771 -7.64478C-7.24303 -7.74424 -5.47573 -8.29679 -5.22489 -8.3189ZM4.19309 16.7669C4.19309 17.1205 4.51234 17.4742 4.74039 17.6399C5.00263 17.8499 5.31048 17.9936 5.64114 18.1151C6.87254 18.5572 7.59087 18.1704 8.10395 18.1704C8.06975 18.2035 8.08115 18.2035 8.01274 18.2367C7.95573 18.2698 7.93292 18.2809 7.86451 18.303L6.92956 18.5461C6.05161 18.6124 5.12805 18.513 4.42113 17.9936C3.36076 17.2311 3.6572 16.2696 4.40973 16.1038C4.40973 16.4796 4.19309 16.4354 4.19309 16.7669ZM10.6352 16.7117C11.5815 16.7117 12.5621 16.5348 13.383 16.3912C13.5997 16.347 13.4971 16.358 13.6909 16.3028C13.7935 16.2696 13.9417 16.2475 14.0101 16.2365C14.9451 16.0154 16.4844 15.4187 17.2369 14.9103C17.4079 14.7998 17.4991 14.7446 17.6702 14.623C18.1376 14.2804 18.2745 14.1478 18.3315 13.7942C18.3885 13.3853 18.3771 12.8659 18.3771 12.3686C18.1832 12.4239 18.2403 12.4791 17.9666 12.7333C17.8298 12.8659 17.7386 12.9654 17.6017 13.0759L16.7808 13.6837C16.1651 14.0815 14.9907 14.612 14.2952 14.8551L13.2006 15.2087C11.9806 15.5955 12.4367 15.4076 11.4333 15.6176C11.0456 15.695 10.5554 15.7281 10.0993 15.7281C8.09255 15.7281 8.16096 15.5071 7.52245 15.4518C7.53385 15.6066 7.70489 16.0707 7.7847 16.1812C8.08115 16.6674 10.0309 16.7117 10.6352 16.7117ZM19.7681 14.9766C19.9277 14.7667 21.0337 14.5788 21.8433 13.2416C22.0599 12.877 22.0713 12.7775 22.0713 12.2139C22.7668 12.3686 22.5616 13.2306 22.0371 13.8052C22.0257 13.8163 22.0143 13.8273 22.0143 13.8384C21.8319 14.0484 21.8205 14.0815 21.5582 14.2694C21.0565 14.623 20.5548 14.9103 19.7681 14.9766ZM8.78807 11.2856C9.05031 10.3131 10.2133 9.46218 11.0913 9.00909C11.7526 8.66651 12.049 8.52285 12.4823 8.62231C12.4823 9.13065 12.2885 8.96489 11.6271 9.30747L10.5782 9.87108C9.91685 10.3021 9.78003 10.3242 9.22134 10.8878C9.03891 11.0646 9.0275 11.2193 8.78807 11.2856ZM6.0402 13.2416V13.5179C5.32188 13.5179 5.27628 13.8715 4.07908 14.3909C3.22393 14.7556 1.53645 15.7281 0.840927 16.4133C0.601486 16.6453 0.38485 16.8443 0.213821 17.1095C-0.310665 17.9052 -0.424683 18.8113 0.430466 19.4523C1.8101 20.5021 4.55795 20.4248 6.15422 20.4248C7.51105 20.4248 11.2167 19.8943 12.3683 19.6623C14.3066 19.2644 16.1309 18.8334 17.8982 18.2367C18.1376 18.1593 18.2859 18.1041 18.5253 18.0267C19.6427 17.6731 21.8889 16.7227 22.8352 16.2254C24.1465 15.5513 26.3812 14.2473 26.3812 12.6559C26.3812 12.4239 26.3242 12.2028 26.233 12.0371C25.7883 11.2635 25.2638 11.2967 24.7508 11.0756C23.5079 10.5341 21.3188 10.6004 19.8821 10.7441C19.2322 10.8104 19.1182 10.9099 18.6507 11.0204C18.5367 10.8104 18.5823 10.8546 18.5139 10.6115C18.4797 10.4899 18.3999 10.3463 18.3315 10.2468C18.2517 10.1031 18.2174 10.0589 18.1262 9.90423C17.4079 8.63336 15.0819 7.17463 13.326 7.17463C11.7184 7.17463 11.7412 7.09727 10.2703 7.58352C10.0423 7.66087 9.90546 7.69402 9.70022 7.79348C9.10732 8.08081 8.3662 8.58916 7.89872 9.04225C6.78133 10.1031 6.0402 11.5729 6.0402 13.2416ZM-46.7963 52.4948C-48.6206 52.3512 -49.3161 52.1081 -50.9124 51.7544C-51.2658 51.6771 -51.9728 51.5334 -52.235 51.4118C-52.1438 51.025 -52.0412 50.5167 -51.9728 50.152C-51.9271 49.8868 -51.8929 49.7652 -51.8359 49.5221C-51.7903 49.3011 -51.7333 49.1464 -51.7333 48.8701C-51.3456 48.8701 -50.2739 49.0801 -49.7722 49.0911C-49.4871 49.0911 -49.0767 49.1243 -48.7916 49.1685L-47.2524 49.2458C-46.6367 49.2348 -46.9331 49.3232 -46.8647 50.4946C-46.8419 50.9366 -46.7963 51.014 -46.8533 51.4781C-46.8875 51.8428 -46.7963 52.097 -46.7963 52.4948ZM-31.837 53.3126C-31.837 53.0474 -31.8484 52.7601 -31.837 52.4948C-31.8142 51.8981 -31.7229 50.9587 -31.7229 50.2736C-31.7229 49.2237 -31.7229 48.1739 -31.7229 47.124C-31.8712 47.2346 -32.0422 47.5661 -32.293 47.8203C-32.3615 47.8866 -32.3957 47.9197 -32.4527 47.986C-32.4869 48.0192 -32.4983 48.0413 -32.5325 48.0744L-33.6157 49.0359C-34.7559 49.9199 -36.2951 50.7046 -37.6063 51.3013L-39.4078 52.0528C-39.5789 52.1191 -39.7613 52.1633 -39.9095 52.2186C-43.3871 53.4673 -46.4998 53.7326 -50.1256 52.8595C-50.6843 52.7269 -51.186 52.6053 -51.7447 52.4727L-52.9533 52.1744C-55.5187 51.4892 -56.83 50.8482 -59.0077 49.7321C-59.1104 50.9035 -59.2928 52.6164 -59.2928 53.6994C-58.107 53.6994 -57.0466 53.6441 -55.8152 53.6441C-55.1995 53.6441 -54.7776 53.5889 -54.1391 53.5889C-53.5576 53.5889 -52.9761 53.5999 -52.3946 53.5889C-52.064 53.5889 -51.9385 53.5336 -51.5623 53.5336L-45.5649 53.4784C-43.2389 53.4784 -41.0383 53.4231 -38.6781 53.4231C-38.0624 53.4231 -37.6405 53.3679 -37.002 53.3679L-31.837 53.3126ZM-52.6797 51.3013C-52.9419 51.2792 -54.3215 50.8151 -54.675 50.6825C-55.0285 50.5499 -55.3249 50.4725 -55.667 50.3399C-55.9748 50.2183 -56.3625 50.0968 -56.6019 49.9421L-56.2941 47.9529C-56.2599 47.7208 -56.3169 47.6766 -56.1345 47.6876L-53.227 48.5607C-52.9419 48.627 -52.6683 48.6712 -52.3946 48.7375C-52.406 49.2348 -52.6797 50.583 -52.6797 51.3013ZM-33.8551 48.0413L-33.9121 48.0965L-33.8551 48.0413ZM-33.7981 47.986L-33.8551 48.0413L-33.7981 47.986ZM-56.9896 49.7321C-57.172 49.721 -59.1788 48.7154 -59.2244 48.6933C-59.7375 48.3618 -59.5664 48.3397 -59.4524 47.5661C-59.384 47.0909 -59.2358 46.682 -59.2358 46.1516L-56.83 47.4003C-56.83 47.7097 -56.9098 48.2402 -56.9326 48.5496C-56.9668 48.9585 -56.9896 49.2679 -56.9896 49.7321ZM-33.7981 47.986C-33.7981 47.3008 -33.9121 46.2179 -34.0603 45.5769C-34.277 44.6044 -34.5164 45.0686 -33.513 44.0961L-33.0456 43.6319C-33.0342 43.6209 -33 43.5877 -33 43.5767C-32.2474 42.7036 -32.2588 42.7147 -31.6317 41.8085L-31.4607 41.5875C-31.4493 42.0074 -31.13 42.9468 -31.1186 43.5988C-31.1072 44.947 -31.3695 44.9801 -32.1562 46.0742C-32.5667 46.6599 -33.1938 47.5992 -33.7981 47.986ZM-33.9121 48.0965C-34.2086 48.0744 -34.2884 47.8534 -34.3568 47.6103L-34.9155 45.4332C-35.1549 45.5879 -35.7022 46.1294 -36.0329 45.9747C-36.1697 45.7095 -35.9303 45.4443 -35.782 45.2454L-35.0181 44.3613C-34.9269 44.2508 -34.8471 44.1845 -34.7445 44.085L-33.9577 43.223C-33.8551 43.1015 -33.7981 43.0573 -33.6955 42.9357C-33.5358 42.7368 -33.3534 42.5489 -33.1824 42.35C-32.5781 41.6206 -31.7229 40.4934 -31.6317 39.5099C-31.4949 38.1064 -31.8028 36.7803 -31.894 35.5536C-31.951 34.8685 -32.1562 34.4043 -32.3044 33.7744C-32.8289 31.6084 -33.057 29.3982 -33.342 27.177L-34.4252 18.5019C-34.5392 18.4909 -34.6988 18.4577 -34.7901 18.4135C-34.9611 18.3362 -34.8243 18.3362 -35.0409 18.2809C-34.8471 18.5682 -34.0945 19.0434 -34.6989 19.8059C-34.9383 20.1043 -35.5654 20.6458 -35.8846 20.8779C-36.1013 21.0436 -36.2951 21.2094 -36.5346 21.3862C-36.945 21.6957 -38.1308 22.7123 -38.4615 22.8781C-38.4615 25.022 -40.3998 27.9837 -41.6084 29.7076L-43.0222 31.5974L-46.2262 34.9569C-47.7654 36.2277 -48.1759 36.6808 -50.2397 37.6865C-52.121 38.6037 -53.6716 38.7695 -55.7012 37.9738C-55.9634 37.8743 -56.1687 37.6975 -56.4993 37.6644C-56.9098 37.6202 -56.6361 37.6865 -56.9326 37.5318C-57.2176 37.377 -56.9896 37.4765 -57.286 37.5539C-57.4115 37.3771 -57.4571 37.377 -57.6395 37.2444C-57.8105 37.1339 -57.8219 37.1008 -58.0044 37.0013C-57.9816 37.2776 -57.8219 37.6091 -57.7877 37.9296C-57.7079 38.7032 -58.0728 39.9851 -58.3008 40.7918C-58.5973 41.8527 -59.3384 43.0241 -59.0533 44.4165C-58.9621 44.8696 -58.9963 44.947 -58.6999 45.2122C-57.5255 46.2952 -54.7434 47.334 -53.0901 47.6545C-52.0298 47.8645 -49.0881 48.2623 -47.9251 48.2954C-47.7312 48.3065 -47.5032 48.2844 -47.3094 48.2954C-47.0927 48.3176 -47.0699 48.3507 -46.8077 48.3507C-45.6333 48.3618 -44.6185 48.3839 -43.4669 48.2181C-41.8364 47.986 -40.4112 47.5108 -38.8605 47.0356C-38.5527 46.9362 -37.3669 46.5273 -37.059 46.6599C-36.5003 47.1903 -40.092 48.3839 -40.4226 48.4502C-40.4226 48.7927 -40.2516 50.1631 -40.2516 50.6714C-40.2516 50.8482 -40.32 51.2792 -40.1832 51.3455C-40.0349 51.4229 -37.6633 50.373 -37.3327 50.1962C-36.5688 49.8315 -34.391 48.7927 -33.9121 48.0965ZM-33.1254 17.4742C-33 17.2974 -32.7605 17.1868 -32.5781 17.0211C-32.4527 16.9106 -32.4527 16.8995 -32.3044 16.789C-32.1676 16.6895 -32.1334 16.6232 -31.9966 16.5459V17.2532C-32.3615 17.2863 -32.7605 17.4631 -33.1254 17.4742ZM-15.6462 16.1702L-16.2733 15.6397C-16.49 15.4518 -16.6382 15.2308 -16.8777 15.0872L-16.0795 13.8052C-15.9427 13.5842 -15.8173 13.3853 -15.669 13.1643C-15.5322 12.9543 -15.3726 12.7333 -15.3156 12.4791C-14.8709 12.7664 -14.4719 13.109 -14.0272 13.4074C-14.0842 13.6063 -14.3122 13.9157 -14.4376 14.0926C-14.6657 14.4241 -15.5664 15.8497 -15.6462 16.1702ZM-17.2083 14.5899C-17.6416 14.5567 -17.4021 14.3136 -17.938 14.3136C-18.0635 14.3136 -18.2231 14.4572 -18.2231 14.5899C-18.2231 15.0872 -16.8891 16.4464 -16.2277 16.8332C-15.9085 17.0211 -14.1982 18.1814 -14.1982 17.4631C-14.1982 17.231 -14.9393 16.7006 -15.156 16.5901C-14.8139 15.9602 -13.7307 14.5567 -13.3659 13.8715C-13.1264 13.9268 -12.887 14.1036 -12.6703 14.2252C-12.4195 14.3688 -12.2029 14.5014 -11.9634 14.6341C-12.4423 15.5071 -13.8675 17.2642 -13.8675 17.7836C-13.8675 18.0378 -13.6053 18.0378 -13.4229 17.9494C-13.4229 19.3418 -13.7763 20.0601 -14.392 21.2426C-14.8367 22.0935 -16.1593 23.3312 -16.9119 23.9501L-20.3552 26.5802C-21.5182 27.4201 -24.7222 29.1109 -26.0904 29.6082C-27.5156 30.1165 -29.1575 30.3155 -30.731 30.0392C-31.0274 29.9839 -31.4151 29.8292 -31.6887 29.8292L-32.1106 27.0333C-32.1562 26.757 -32.1106 26.5029 -32.236 26.2818L-32.2816 26.2155C-32.5895 25.6851 -32.7491 18.955 -33.0912 18.2588C-30.7994 17.7394 -31.2441 17.6841 -31.2441 16.358C-31.2441 16.137 -30.959 16.2696 -30.1837 15.8718C-30.1495 16.2365 -29.9328 16.9658 -29.8188 17.3084L-28.8497 20.0049C-28.7356 20.2922 -28.348 21.0768 -28.348 21.3641C-28.519 21.4083 -28.4962 21.4415 -28.6672 21.552C-28.9751 21.762 -29.8986 22.3477 -30.1381 22.5687C-30.2521 22.6792 -30.8906 23.6627 -29.3057 22.7787C-29.0435 22.635 -28.7812 22.5134 -28.5076 22.3587C-26.2614 21.1542 -25.0528 19.9275 -23.411 18.3362C-23.2627 18.2035 -23.2513 18.1593 -23.1259 18.0157C-22.8409 17.6952 -21.0394 15.8386 -20.6973 15.5844C-20.1728 15.1866 -20.1842 15.1535 -19.5685 14.8882C-19.1352 14.7004 -19.3861 14.6893 -19.101 14.6893C-18.5765 14.6893 -18.8844 14.8772 -18.5651 14.2915C-18.2915 13.7942 -18.4055 13.8494 -17.9494 13.098L-17.1057 11.7939C-16.9803 11.6392 -16.8549 11.5729 -16.7978 11.3851C-16.0453 11.5508 -16.7636 11.4735 -15.8971 12.0371C-16.0225 12.2249 -16.1251 12.4128 -16.2391 12.6228C-16.3532 12.8217 -16.4672 13.0317 -16.5812 13.2637C-16.718 13.5842 -17.1399 14.3136 -17.2083 14.5899ZM-7.6307 10.0368L-5.8976 8.89858C-5.60115 8.89858 -5.61256 8.88753 -5.45293 9.1196C-5.78359 9.5948 -7.0492 9.90423 -7.6307 10.0368ZM-38.6097 8.84333L-38.9176 9.90423C-39.1798 10.9099 -39.3166 12.457 -39.7841 13.2969C-40.5024 13.2969 -40.6849 13.33 -41.1409 13.6063C-41.5742 13.8715 -43.4669 15.5844 -43.8318 15.9381C-45.4281 17.4852 -44.4931 16.6453 -46.249 17.662C-46.4542 17.7836 -46.5682 17.8499 -46.7621 17.9825L-47.469 18.5461C-48.3812 19.3197 -49.6582 20.9221 -50.4107 21.8283C-50.4905 21.9277 -50.5361 21.9498 -50.6159 22.0603L-53.0559 25.0662C-53.2384 25.2872 -53.6032 25.8729 -53.8883 25.9503C-53.8883 25.2762 -54.903 20.5022 -55.1539 19.5739C-55.2109 19.3639 -55.2451 19.1871 -55.2907 18.9992L-55.7582 17.3305C-55.952 16.7448 -56.5335 16.8001 -56.5335 17.43C-56.5335 18.0267 -56.2713 18.9992 -56.1459 19.607L-55.7468 21.773C-55.6214 22.5024 -55.4959 23.2207 -55.3477 23.939C-55.1653 24.8231 -55.0285 25.7182 -54.7548 26.5581C-54.5838 27.0665 -54.675 27.0222 -54.9715 27.409L-55.838 28.5252C-56.3625 29.1993 -58.8025 32.172 -58.3122 32.7577C-58.1412 32.9566 -57.8903 32.8903 -57.7079 32.7356C-57.6167 32.6583 -57.5825 32.592 -57.5141 32.4925C-57.3773 32.3046 -57.2632 32.1831 -57.1264 31.9952L-55.6214 29.9729C-55.1425 29.3872 -54.4242 28.5583 -54.0365 27.9837C-53.5348 27.2543 -52.2464 25.7182 -51.6307 24.9999C-51.357 24.6794 -51.0834 24.359 -50.8326 24.0385L-48.0049 20.6458C-47.8567 20.469 -47.7198 20.3474 -47.583 20.1817C-46.9445 19.3639 -46.021 18.7119 -45.1544 18.1372C-44.9378 17.9936 -44.7553 17.9162 -44.5615 17.7946C-44.5615 18.7892 -43.8888 19.817 -43.2617 20.5021L-42.7942 20.9773C-42.1671 21.4857 -41.1865 22.1266 -40.2972 21.9277C-40.3314 21.5851 -40.7989 21.3641 -41.0611 21.2094C-41.2207 21.11 -41.2664 21.0437 -41.4146 21.0105C-41.3576 20.8226 -41.2778 20.7895 -41.1295 20.679C-40.9927 20.5795 -40.8901 20.4911 -40.7875 20.3585C-40.5936 20.1264 -38.929 18.3583 -39.2368 18.2146C-39.4877 18.093 -40.5366 19.0324 -40.7305 19.2202C-41.0497 19.5297 -41.825 20.2038 -42.0303 20.5132C-42.5206 20.1927 -42.931 19.6623 -43.2047 19.1539C-42.874 18.944 -42.5434 18.5682 -42.2811 18.2588L-42.1785 18.1372C-41.7338 17.6399 -40.8331 16.778 -40.6849 16.1591C-41.654 16.1591 -43.0222 18.292 -43.6037 18.4356C-43.8888 17.2532 -43.6266 17.9273 -43.7064 17.5515C-43.7292 17.4521 -43.7976 17.4079 -43.8318 17.2421C-43.4213 17.0321 -43.4555 16.8222 -43.0679 16.5127C-42.9994 16.4575 -43.0108 16.4685 -42.9424 16.4133L-42.0189 15.6287C-41.597 15.264 -40.5252 14.3246 -40.0121 14.2031C-40.0121 15.6176 -39.6587 17.0542 -38.5071 17.9604C-38.2791 18.1372 -37.6405 18.5019 -37.4923 18.7119C-37.7318 19.0545 -38.4615 19.5076 -38.7921 19.8943C-38.9518 20.0822 -39.4078 20.6458 -38.8719 20.7342C-38.5071 20.8005 -38.1194 20.3143 -37.9028 20.1043L-37.2415 19.4413C-36.9792 19.165 -37.4467 19.6623 -37.1845 19.386L-36.8196 19.0324C-36.5574 19.0876 -36.5118 19.1539 -36.2153 19.2092C-35.9417 19.2534 -35.7706 19.2865 -35.7592 18.9219C-35.9303 18.8887 -35.9759 18.8334 -36.0899 18.7561C-35.9987 18.6345 -35.896 18.5572 -35.7022 18.5351C-35.6794 18.7671 -35.4628 18.9992 -35.3716 19.1871C-35.5084 19.2755 -35.5426 19.3307 -35.668 19.4413C-36.1355 19.8943 -36.9906 20.4911 -37.5265 20.9C-37.6861 21.0215 -37.709 21.0658 -37.8572 21.1763L-38.6895 21.994C-38.7351 22.0493 -38.7807 22.0935 -38.8263 22.1377C-38.8948 22.204 -38.8491 22.1598 -38.9176 22.2151C-38.9746 22.2482 -38.9404 22.2261 -39.0202 22.2814C-39.2824 22.4692 -39.4534 23.5743 -39.6245 23.9169L-41.597 27.5638C-41.6768 27.6853 -41.7452 27.7627 -41.825 27.8953C-42.6232 29.144 -43.5353 30.3044 -44.4703 31.4647C-44.6413 31.6747 -44.8352 31.8736 -45.0176 32.0726L-46.1122 33.244C-46.249 33.3766 -46.2832 33.3876 -46.42 33.4981L-47.3208 34.3049C-47.4462 34.4264 -47.469 34.4485 -47.6172 34.559C-47.697 34.6143 -47.697 34.6254 -47.7654 34.6806L-49.2249 35.7636C-49.3503 35.852 -49.4301 35.9073 -49.5555 35.9846C-49.6924 36.073 -49.8064 36.1172 -49.9432 36.2056C-52.4972 37.7638 -54.1391 37.6754 -56.6931 36.1946C-57.001 36.0178 -57.3317 35.8078 -57.6053 35.6199L-60.7978 32.1941C-61.3109 31.3985 -61.7898 29.1219 -61.9722 28.2268L-62.3827 25.6851C-62.5081 24.8563 -62.5195 23.8396 -62.6335 22.9997L-62.873 19.6512L-62.759 17.5294C-62.7476 15.6618 -62.5309 13.4406 -61.0601 12.236C-59.8287 11.2303 -57.0694 9.98159 -55.5872 9.18591C-55.4959 9.14171 -55.4275 9.0975 -55.3363 9.0533C-55.0285 8.88754 -54.3672 8.47865 -54.0365 8.4676C-53.8313 9.34063 -53.2954 9.44008 -52.4972 9.74951C-50.7071 10.4457 -48.8828 11.0646 -46.9217 11.2414C-46.0552 11.3188 -45.3596 11.363 -44.4931 11.2525C-43.4099 11.1198 -42.589 10.8878 -41.6084 10.4568C-41.0953 10.2358 -40.434 9.91528 -40.0578 9.5727L-39.7613 9.26327C-39.5105 9.02015 -38.5641 7.82664 -39.4078 7.81559C-39.4648 8.04766 -39.9323 8.54495 -40.1376 8.68862C-40.0007 8.11396 -40.1946 7.50616 -40.1946 6.95361C-39.4306 6.95361 -38.7351 7.17463 -38.0054 7.17463C-38.0396 7.24093 -38.051 7.28514 -38.0852 7.3625C-38.1194 7.43985 -38.1536 7.48406 -38.1992 7.58352C-38.2905 7.76033 -38.3361 7.84874 -38.4273 8.0145C-38.8605 8.75492 -38.6097 8.75492 -38.6097 8.84333ZM-35.0865 5.47277C-34.8471 5.47277 -34.8585 5.42857 -34.5848 5.41751C-33.9691 5.39541 -33.5587 5.25175 -32.9087 5.25175C-32.9087 5.56118 -32.7719 6.69943 -32.6807 6.87625C-33.0684 6.96466 -33.456 7.05306 -33.8209 7.18568C-34.0261 7.26303 -34.163 7.29619 -34.3568 7.37354C-34.5164 7.43985 -34.7445 7.53931 -34.9269 7.58352L-35.0865 5.47277ZM-36.7626 4.50028C-36.5574 4.45608 -36.3635 4.38977 -36.1469 4.33451C-36.1469 4.57764 -36.0671 5.01968 -36.0443 5.2628C-35.9074 6.33475 -36.2039 5.8043 -35.8846 7.11937C-35.8048 7.4288 -35.7706 7.73823 -35.7022 8.03661C-35.896 8.08081 -36.1811 8.25763 -36.3179 8.36813C-36.4433 8.47865 -37.059 9.1196 -36.4319 9.1196L-35.5312 8.63336C-34.4366 8.08081 -31.0958 6.67733 -30.6056 8.74387C-30.6056 8.74387 -31.9624 8.02555 -31.6773 8.74387C-31.6089 8.92069 -31.5063 8.987 -31.3581 9.09751C-31.2099 9.20802 -31.1757 9.25222 -31.0274 9.37378C-30.4231 9.82687 -29.6592 10.3794 -29.6592 11.1972C-30.1495 10.8767 -30.0241 10.9099 -30.6056 10.6446C-30.7082 10.6004 -30.6968 10.5894 -30.8222 10.5231C-31.4721 10.1805 -31.8826 10.4789 -31.1643 11.0204C-30.674 11.3851 -30.0127 11.7055 -29.7504 12.1476C-29.6022 12.3907 -29.4654 12.8217 -29.4312 13.1422C-29.6364 13.0869 -30.6512 12.2139 -31.0046 12.2139C-31.1529 12.2139 -31.1643 12.236 -31.2897 12.2691C-31.4949 13.1422 -29.7732 13.5842 -29.7732 14.3909C-29.7732 14.4793 -29.9442 14.7114 -29.9899 14.7777C-30.1267 14.9656 -30.7994 15.4739 -31.0616 15.5402C-30.8678 15.1866 -30.5029 14.8109 -30.5029 14.2915C-30.788 14.3025 -30.959 14.4904 -31.2441 14.7667C-31.4721 14.9877 -31.6545 15.1756 -31.8826 15.3966L-32.065 15.5513C-32.0764 15.5623 -32.0878 15.5734 -32.0992 15.5734C-32.1106 15.5844 -32.122 15.5955 -32.1334 15.5955C-33 16.3028 -33.8095 16.9769 -34.9041 17.4631C-36.0785 17.9936 -35.6338 17.7615 -36.5574 18.3583C-36.9678 18.1483 -38.1422 17.1205 -38.3817 16.8111C-38.8035 16.2917 -39.4078 15.0872 -39.4078 14.4462L-38.8948 13.3632C-38.4159 12.0813 -38.2448 10.6336 -37.8686 9.5727C-37.5721 8.72177 -38.051 8.94279 -37.3669 7.72718C-36.3749 6.01427 -36.7626 5.85955 -36.7626 4.50028ZM-52.5657 4.00298C-52.5657 3.78196 -52.4516 3.60515 -52.4516 2.69897C-53.0331 2.83158 -54.1277 3.32887 -54.1277 4.00298C-54.1277 4.92022 -54.0593 5.10809 -53.8769 5.99217C-53.6488 7.10832 -53.5348 7.25198 -53.1015 8.11396C-52.7481 8.81018 -51.8929 8.82123 -51.2658 9.10855L-51.7219 7.9703C-51.8131 7.71613 -52.007 7.07517 -51.9842 6.72154C-51.9613 6.3458 -51.7789 5.7822 -51.3456 5.87061C-50.7185 5.99217 -51.1746 6.94255 -50.6957 8.33498C-50.6159 8.54495 -50.3879 9.31852 -50.2283 9.40693C-50.0344 9.50639 -47.9593 9.91528 -47.6172 9.92633C-47.64 9.67216 -48.2329 8.556 -48.2329 7.91505C-48.2329 7.61667 -48.2101 6.94256 -47.7882 6.94256C-47.2752 6.94256 -47.3778 7.16358 -47.3322 7.63877C-47.2638 8.26868 -47.0129 9.5948 -46.6709 10.0921C-46.2946 10.0921 -45.9981 10.0921 -45.7017 10.1363C-45.4395 10.1694 -45.1658 10.0921 -44.8237 10.0921C-44.8237 10.0921 -45.9981 7.48405 -44.8237 7.48405C-44.1624 7.48405 -44.3791 8.62231 -43.7064 9.98159C-42.9994 9.92633 -41.2778 9.0533 -41.0725 9.00909C-41.0725 8.26867 -40.8445 8.31288 -41.0383 7.07516C-41.1067 6.61102 -41.1295 6.21319 -41.369 5.77115C-41.6768 5.2186 -42.2469 5.07493 -42.931 4.94232L-44.2651 4.66605C-44.1282 5.2186 -43.866 5.46172 -43.5923 5.85955C-43.0793 5.85955 -42.703 5.69379 -42.3039 5.79325C-42.1443 5.83746 -42.0189 5.85955 -42.0075 6.02532V6.09163C-42.1215 6.52262 -43.3643 6.8873 -43.98 6.8873C-46.6367 6.8873 -46.9103 6.71049 -49.3161 5.98112C-49.6696 5.87061 -50.0002 5.79325 -50.3309 5.66064C-51.6877 5.09703 -51.1746 5.2849 -52.2578 4.655C-52.463 4.53344 -52.5657 4.23506 -52.5657 4.00298ZM-7.91574 2.64371C-7.47107 2.74317 -7.01499 2.86473 -6.57032 2.9642C-6.69574 3.15206 -7.24303 3.56095 -7.44827 3.73777C-7.60789 3.88143 -7.56228 3.88143 -7.80172 3.93668C-7.80172 3.56095 -7.91574 3.0305 -7.91574 2.64371ZM-4.78022 2.43374C-4.1189 2.09116 -3.82246 2.24588 -3.82246 3.0305L-4.39256 2.82053C-4.86003 2.68791 -4.62059 2.76527 -4.78022 2.43374ZM-35.5882 2.04696L-35.3031 4.11349C-35.2575 4.27926 -35.2005 4.57764 -35.1891 4.76551C-34.676 4.64395 -34.1059 4.55554 -33.5359 4.46713C-32.7035 4.33452 -30.8336 4.2019 -30.4345 3.72671C-30.2293 3.47254 -29.9785 2.76527 -29.9785 2.32323L-31.3809 2.21272C-31.6659 2.20167 -31.7344 2.15746 -32.0536 2.15746C-32.293 2.15746 -32.5553 2.16851 -32.7833 2.15746L-35.5882 2.04696ZM-3.43479 2.15746C-3.02432 2.91998 -3.5032 4.11349 -3.83386 4.64394L-4.84863 6.04742C-5.2933 6.47841 -5.63536 6.80994 -6.17125 7.15252C-6.4563 7.34039 -7.97275 8.42339 -8.02976 7.84874C-8.05257 7.62772 -8.05256 7.76033 -7.60789 7.4509C-7.37985 7.28514 -7.18602 7.16357 -6.93518 7.01991C-6.55892 6.79889 -5.94321 6.35685 -5.63536 6.04742C-5.09947 5.51698 -3.95928 4.08035 -3.93648 3.29572H-4.60919C-4.60919 4.03614 -4.93984 4.48923 -5.2933 4.90917C-5.92041 5.62748 -7.45967 6.83205 -8.28061 7.17463C-8.64547 7.32934 -9.14715 7.57246 -9.53482 7.3625C-9.51201 7.04202 -9.39799 7.05307 -8.91911 6.87625C-7.6763 6.40105 -5.2819 4.56659 -5.16788 3.24047C-5.68097 3.12996 -5.55555 3.04155 -6.04583 3.52779C-6.69574 4.16875 -7.1062 4.43398 -7.51667 4.82076C-7.81313 5.10809 -7.6877 4.93127 -7.94995 5.10809C-8.61126 5.55013 -8.13238 5.25175 -8.55425 5.43962L-9.22696 5.7601C-10.0479 6.13583 -11.2337 6.39 -12.1573 6.98676C-12.0774 7.09727 -11.8266 7.28514 -11.7126 7.3625C-11.5301 7.48406 -11.4161 7.57247 -11.2337 7.71613C-11.0627 7.84874 -10.9259 7.9482 -10.7776 8.08081C-10.675 8.18027 -10.2987 8.44549 -10.6522 8.44549C-11.1995 8.44549 -12.3967 7.67192 -12.7844 7.41775C-13.1036 7.62772 -13.3203 7.93715 -13.5825 8.21342C-14.3806 9.07541 -14.5517 10.291 -15.1902 11.2193C-15.0875 11.2856 -14.9621 11.3961 -14.8481 11.4845C-14.5631 11.7055 -14.6543 11.7829 -13.993 12.2802C-13.7193 12.4902 -12.8642 13.1201 -12.6133 13.1753L-11.4845 11.8271C-9.15855 9.60585 -9.07874 9.91528 -6.57032 8.11396C-6.19405 7.83769 -6.21686 7.79348 -5.69237 7.4509C-5.36171 7.22988 -5.11087 6.9315 -4.80302 6.68838C-4.79162 6.67733 -4.75741 6.65523 -4.74601 6.64418C-4.33554 6.3016 -3.67423 5.56118 -3.41198 5.1744C-2.77348 4.23506 -2.76207 3.89248 -2.76207 2.82053C-2.76207 2.0138 -3.22956 2.15746 -3.43479 2.15746ZM-20.6289 -6.79385C-20.5149 -6.79385 -20.4351 -6.7165 -20.3552 -6.68334C-20.2412 -6.62809 -20.1728 -6.60599 -20.0588 -6.53968C-18.8502 -5.85452 -19.1238 -3.37909 -20.1272 -3.37909C-20.5947 -3.37909 -20.8683 -3.43435 -21.2218 -3.94269C-21.4156 -4.23002 -21.5524 -4.58365 -21.5866 -5.00359C-21.6323 -5.54509 -21.5638 -6.1971 -21.1192 -6.56178C-21.0165 -6.65019 -20.7885 -6.79385 -20.6289 -6.79385ZM-22.362 -5.33512C-22.362 -6.16395 -21.9515 -6.52863 -21.6893 -6.90436C-22.2137 -6.89331 -24.973 -5.93188 -26.0448 -5.92082C-26.079 -5.25776 -26.1588 -4.63891 -26.0676 -4.009C-26.0334 -3.76588 -26.0562 -3.54486 -26.022 -3.29068C-25.9878 -3.02546 -25.965 -2.85969 -25.9308 -2.61657C-25.8966 -2.39555 -25.8282 -2.21873 -25.8282 -1.95351C-25.5773 -1.97561 -25.7255 -1.96456 -25.5317 -2.05297C-24.9844 -2.29609 -22.3506 -2.9702 -21.5638 -3.14702C-22.0769 -3.88744 -22.362 -3.99795 -22.362 -5.33512ZM-51.1632 -8.20839C-51.1632 -7.66689 -51.0378 -7.31325 -50.8668 -6.91541C-50.6843 -6.48442 -50.5133 -6.29656 -50.1941 -5.98713C-49.852 -5.6556 -49.681 -5.53404 -49.2477 -5.33512C-48.461 -4.97044 -47.2524 -4.98149 -46.4656 -5.33512C-46.0666 -5.51194 -45.9867 -5.57824 -45.6789 -5.82137L-45.0404 -6.45127C-44.6869 -6.93752 -44.3791 -7.71109 -44.3791 -8.3631C-44.208 -8.4073 -43.7292 -8.46256 -43.5353 -8.47361C-43.4441 -7.39061 -42.7714 -6.56178 -41.9961 -6.10869C-41.4944 -5.81031 -41.1637 -5.77716 -40.4682 -5.68875C-40.1376 -5.64455 -39.5447 -5.74401 -39.2026 -5.85452C-39.0202 -5.90977 -39.0088 -5.94293 -38.8263 -5.98713L-38.9518 -4.5947C-39.2254 -2.67183 -40.1946 -0.130093 -41.8136 1.04131C-42.4408 1.49441 -43.5011 2.03591 -44.2537 2.03591C-45.3596 2.03591 -48.2101 0.809242 -49.1337 0.300896C-49.3959 0.157232 -49.4187 0.0577736 -49.6924 -0.0858898C-50.2625 0.201437 -50.0344 0.488764 -49.6354 1.27339C-49.4415 1.63807 -49.3389 1.78173 -49.0881 2.10221C-48.8714 2.38953 -48.6662 2.5553 -48.4154 2.80947C-47.5374 3.6604 -46.8191 3.91458 -45.6333 4.17981C-45.1658 4.29031 -45.4395 4.56659 -44.8237 5.40646C-44.7211 5.55013 -44.5843 5.64959 -44.5387 5.83746C-46.2376 5.83746 -46.7849 5.7822 -48.5294 5.36226C-49.2591 5.18544 -49.9774 5.01968 -50.6273 4.6771C-50.7756 4.59974 -50.8326 4.54449 -50.9694 4.46713C-51.3456 4.24611 -51.4027 4.48923 -51.7105 4.04719L-51.3799 2.03591C-51.3685 1.71543 -51.3228 1.62702 -51.3228 1.27339C-51.3228 -0.141144 -51.7789 -2.15243 -52.6797 -3.33489C-52.9533 -3.68852 -53.0331 -3.72167 -53.398 -3.72167C-53.6944 -3.72167 -53.3866 -3.16912 -55.553 -3.58906C-56.0432 -3.68852 -56.3625 -3.86534 -56.716 -4.08636C-57.6167 -4.67206 -58.05 -5.1362 -58.05 -6.27446C-58.05 -7.258 -56.944 -8.44045 -55.4161 -7.85475C-55.2451 -7.78844 -54.846 -7.61163 -54.7092 -7.50112C-54.6636 -7.46796 -54.5154 -7.29115 -54.4698 -7.23589C-54.2531 -6.97067 -54.0251 -6.07554 -53.5234 -6.46232C-53.227 -6.69439 -53.4778 -7.44586 -53.4436 -7.68899C-53.4208 -7.89895 -53.4208 -7.8658 -53.2156 -7.91001L-51.9271 -8.07577C-51.6991 -8.08682 -51.4141 -8.18628 -51.1632 -8.20839ZM-47.7426 -5.60035C-48.6662 -5.60035 -49.1337 -5.83242 -49.7038 -6.36286C-50.7527 -7.3243 -50.7641 -9.07036 -49.7152 -10.1755L-48.974 -10.7059C-46.8191 -11.8 -44.3905 -9.40189 -45.3824 -7.22484C-45.6675 -6.61704 -46.0552 -6.175 -46.6709 -5.86557C-46.9673 -5.73296 -47.298 -5.60035 -47.7426 -5.60035ZM-37.937 -7.72214C-37.88 -8.32994 -37.823 -8.8825 -37.823 -9.56766C-37.7204 -9.50135 -37.6519 -9.5124 -37.6519 -9.02616C-37.6633 -8.63937 -37.6405 -7.93211 -37.937 -7.72214ZM-28.5304 -8.86039C-28.7698 -8.80514 -28.9295 -8.63937 -29.1461 -8.52886C-30.8678 -7.66689 -31.4037 -7.26905 -33.456 -6.46232C-33.8893 -6.29656 -34.3454 -6.14184 -34.8357 -6.00923C-35.3944 -5.85452 -35.611 -5.85452 -36.1355 -5.47878C-37.6861 -4.36263 -38.1992 -0.207449 -36.3179 0.930805C-36.0329 1.10762 -35.2917 1.36179 -34.9041 1.35074C-34.2884 1.35074 -33.6727 1.35074 -33.057 1.35074L-30.3661 1.46125C-29.5794 1.48335 -28.234 1.72647 -27.9603 1.73753L-28.5418 0.621378C-29.1119 -0.682642 -29.2373 -1.23519 -29.4768 -2.59447C-29.7732 -4.23002 -29.5224 -6.2192 -29.0093 -7.70004C-28.8725 -8.15313 -28.5646 -8.69463 -28.5304 -8.86039ZM-40.1262 -6.25235C-40.7989 -6.25235 -41.4374 -6.49548 -41.9049 -6.91541C-42.1215 -7.11433 -42.2925 -7.3243 -42.4522 -7.58953C-43.1705 -8.82724 -42.646 -10.3744 -41.2321 -11.0153C-40.32 -11.4353 -39.4192 -11.2806 -38.6211 -10.7612C-38.6211 -10.2528 -38.5071 -9.81078 -38.5755 -9.31349C-38.6211 -8.95985 -38.6439 -8.27469 -38.6667 -7.8879C-38.7009 -7.3243 -38.6667 -6.79385 -38.9176 -6.61704C-39.1684 -6.44022 -39.7271 -6.25235 -40.1262 -6.25235ZM-25.5545 -10.5954C-25.6115 -10.3744 -26.3412 -9.31348 -26.7403 -7.55637C-26.9455 -6.62809 -27.2192 -4.89308 -27.0596 -3.65537C-26.9798 -3.08071 -26.9113 -2.3845 -26.7631 -1.83195C-26.6833 -1.52252 -26.6263 -1.31255 -26.5465 -1.01418C-26.3298 -0.295858 -26.2044 -0.0858898 -25.9536 0.532967C-25.851 0.78714 -25.7141 1.00816 -25.5773 1.25128L-24.7336 2.54425C-24.9958 2.42269 -25.3835 2.32323 -25.7027 2.23482C-27.014 1.87014 -26.7859 2.17957 -27.3902 1.31759C-27.5726 1.04131 -27.7437 0.809242 -27.8919 0.499815C-28.1884 -0.0969391 -28.4164 -0.704744 -28.5874 -1.37886C-28.747 -1.98666 -28.9295 -2.9702 -28.9409 -3.58906C-28.9637 -5.55614 -28.7584 -7.46797 -27.8349 -8.87144C-27.3104 -9.65607 -27.5498 -9.45715 -26.8429 -9.86604L-25.5545 -10.5954ZM-43.5467 -8.91565C-44.5615 -8.91565 -44.3791 -8.82724 -44.5501 -9.40189C-44.6071 -9.58976 -44.6869 -9.77763 -44.7781 -9.94339C-45.1658 -10.717 -45.6447 -11.1148 -46.4314 -11.4353C-47.0813 -11.7005 -46.6595 -11.5568 -47.298 -11.6231C-47.9479 -11.6895 -48.2671 -11.7005 -48.9854 -11.4242C-50.901 -10.6838 -50.9238 -9.29138 -51.1632 -8.80514L-52.9419 -8.72778C-53.3296 -8.67253 -53.3182 -8.71673 -53.17 -9.05931C-52.6797 -10.2749 -52.1096 -10.8054 -50.8782 -11.4021L-49.6012 -11.9657C-48.7916 -12.3083 -47.8909 -12.6619 -47.4234 -13.4908C-47.241 -13.8002 -46.8761 -14.3859 -46.8419 -14.7727H-46.7279C-46.6937 -14.6401 -46.5796 -14.5185 -46.4884 -14.408C-45.9411 -13.8002 -45.5535 -13.5018 -44.6869 -13.1703C-43.2161 -12.6067 -43.1363 -12.673 -41.6084 -12.463C-41.0611 -12.3857 -40.5252 -12.3857 -40.0121 -12.2199L-39.5561 -12.0099C-40.3428 -12.0983 -40.6621 -12.0762 -41.4488 -11.7889C-42.5434 -11.3911 -43.5467 -10.076 -43.5467 -8.91565ZM21.3302 -13.9107C21.3302 -15.491 21.638 -16.7729 22.4704 -18.0106L23.7702 -19.4694C23.7816 -19.4804 23.793 -19.4915 23.8044 -19.4915C24.5341 -20.1214 24.6367 -19.9335 24.9902 -20.2982C25.5603 -20.8728 27.3732 -21.2375 28.559 -21.2375C30.9876 -21.2375 32.8461 -19.8893 33.8267 -17.9775C34.9897 -15.701 34.317 -12.4409 32.4927 -10.6838C30.6341 -8.89355 28.2283 -7.8879 25.5261 -8.62832C25.0358 -8.76093 25.2524 -8.76093 24.9902 -8.87144C24.6481 -9.01511 24.8648 -8.87144 24.4201 -9.13667C24.021 -9.37979 24.4657 -8.89355 23.4509 -9.65606C22.2537 -10.5733 21.3302 -12.3194 21.3302 -13.9107ZM-55.4161 -10.6507C-55.2223 -10.717 -55.3819 -10.6396 -55.2337 -10.7943L-54.7092 -11.2585C-54.447 -11.4684 -54.2531 -11.6563 -53.9909 -11.8663L-52.8507 -12.7172C-52.7139 -12.8277 -52.5999 -12.883 -52.463 -12.9935C-51.9614 -13.3913 -51.3913 -13.6897 -50.8782 -14.0654C-50.4563 -14.3748 -49.7038 -14.7837 -49.7038 -15.4799C-49.9774 -15.4136 -50.2055 -15.049 -50.4221 -14.8721C-51.4597 -13.977 -52.5999 -14.2533 -54.4242 -12.242C-54.6408 -12.0099 -54.8004 -11.7668 -55.0057 -11.5016C-55.1653 -11.2916 -55.4161 -10.9711 -55.4161 -10.6507ZM-40.8559 -14.7285C-41.0041 -15.0048 -41.2664 -15.3031 -41.5172 -15.5021C-41.768 -15.701 -42.0075 -15.9441 -42.3267 -16.0657C-42.7144 -16.2204 -43.6037 -16.4856 -44.037 -16.4635C-44.5729 -16.4303 -44.4817 -16.3861 -44.5501 -16.3088C-43.98 -16.3088 -43.1021 -15.7783 -42.6004 -15.5905C-41.9619 -15.3363 -41.5628 -14.8832 -40.8559 -14.7285ZM-55.7012 -13.5902C-55.5302 -13.6344 -54.8004 -14.3859 -54.2531 -14.7395C-54.0707 -14.8611 -53.9567 -14.9606 -53.7743 -15.0932C-52.6797 -15.8888 -51.9385 -15.8004 -51.9385 -16.6845C-52.235 -16.6845 -52.4858 -16.6182 -52.6797 -16.5298C-52.8849 -16.4414 -53.0445 -16.353 -53.2156 -16.2425L-54.1961 -15.5131C-54.3786 -15.3473 -54.4356 -15.2258 -54.618 -15.049C-54.8916 -14.7727 -55.6214 -13.9218 -55.7012 -13.5902ZM-55.2565 -16.5187C-55.0285 -17.4581 -53.1357 -18.1101 -53.3866 -17.4802C-53.4664 -17.2813 -53.8883 -17.1818 -54.1847 -17.0492L-55.2565 -16.5187ZM-45.9525 -18.1432C-45.6675 -18.1432 -45.6447 -18.1985 -45.3368 -18.1985C-43.8318 -18.1985 -43.0222 -18.1764 -41.6654 -17.8449C-41.0497 -17.6902 -40.7761 -17.7344 -40.1034 -17.3034C-38.9632 -16.574 -39.328 -16.7177 -38.6439 -16.2204C-38.4387 -16.0657 -37.9826 -15.5131 -37.8002 -15.2921C-37.6747 -15.1263 -37.2643 -14.7064 -37.0933 -14.618C-37.0933 -15.1484 -37.2187 -15.7341 -37.6063 -16.0767C-37.6063 -16.0767 -37.6747 -16.143 -37.6976 -16.1541L-38.1764 -16.5519C-38.3019 -16.6514 -38.4045 -16.6956 -38.5299 -16.8061C-39.4534 -17.5244 -39.5561 -17.7012 -40.7989 -18.1874C-41.4032 -18.4195 -41.8593 -18.6958 -42.6916 -18.6958C-43.2161 -18.6958 -45.7701 -18.8284 -45.9525 -18.1432ZM-49.6468 -19.1268C-49.5898 -19.3257 -49.2591 -19.5578 -49.0425 -19.7346C-48.6434 -20.044 -48.1759 -20.3424 -47.6742 -20.475C-47.4804 -20.5303 -47.1497 -20.5745 -46.9559 -20.5855C-46.3972 -20.6297 -46.477 -20.6629 -46.2262 -20.696C-44.8237 -20.8397 -43.1249 -20.5745 -41.7794 -20.2429C-41.5514 -20.1877 -40.2402 -19.613 -40.0806 -19.4473C-39.9665 -19.3368 -39.7727 -19.0715 -39.7385 -18.9168C-39.9437 -18.961 -40.0806 -19.0605 -40.2858 -19.1378C-40.4682 -19.2041 -40.6392 -19.2704 -40.8331 -19.3699C-41.1979 -19.5467 -41.6654 -19.6462 -42.0417 -19.7788C-42.8626 -20.0772 -42.3495 -19.9667 -43.3187 -20.1214C-44.8009 -20.3645 -44.5615 -20.3866 -46.1806 -20.2761C-46.7621 -20.2319 -47.583 -19.9888 -48.1417 -19.7898C-48.2899 -19.7346 -48.1987 -19.7677 -48.3013 -19.7235L-49.6468 -19.1268ZM-11.553 -15.5905C-11.2907 -15.5905 -11.1425 -15.6568 -10.9373 -15.701C-10.7434 -15.7452 -10.5724 -15.7562 -10.3558 -15.7894C-8.04117 -16.143 -5.78358 -18.2206 -5.78358 -20.8065C-5.78358 -22.0553 -6.77555 -24.0003 -7.57368 -24.2434C-7.92714 -24.3539 -7.68771 -24.3539 -8.18939 -24.6633C-9.28397 -25.3375 -10.5268 -25.5806 -11.895 -25.4148C-12.9212 -25.2932 -12.0318 -25.669 -13.5369 -25.1606C-15.5208 -24.4976 -17.1057 -22.4863 -17.1057 -20.3645C-17.1057 -19.1378 -16.433 -17.6238 -15.5436 -16.9387C-14.221 -15.933 -13.4799 -15.5905 -11.553 -15.5905ZM17.75 -30.4209C19.4603 -30.4209 20.6803 -29.9568 21.7178 -28.9401L21.9345 -28.708C21.9459 -28.697 21.9573 -28.6859 21.9573 -28.6749C22.573 -27.9565 23.0063 -26.973 23.2799 -26.0447C23.4281 -25.5474 23.5878 -24.9728 23.679 -24.4755C23.736 -24.166 23.7816 -23.9008 23.8044 -23.6245C23.8272 -23.3262 23.8956 -23.0278 23.9184 -22.7515C23.9298 -22.5968 23.907 -22.431 23.9298 -22.2763C23.9526 -22.1106 23.9754 -22.0774 23.9754 -21.8343C23.9754 -21.4364 24.0324 -21.2817 24.0324 -20.906L23.3255 -20.3977C23.2001 -20.2982 23.1317 -20.2208 22.9949 -20.1214C22.2309 -19.4915 21.581 -18.5411 21.1363 -17.6902C20.9881 -17.4139 20.8741 -17.1155 20.7715 -16.795C20.2356 -15.2147 20.1216 -13.4576 20.7487 -11.8552C21.1934 -10.7059 21.8091 -9.79973 22.7326 -9.00406C23.0405 -8.73883 23.8386 -8.18628 24.2605 -8.09788L24.3289 -4.92623C24.3745 -4.66101 24.3631 -4.42894 24.3631 -4.14161C24.3631 -3.79903 24.4087 -3.67747 24.4201 -3.37909C24.4429 -2.84864 24.5341 -2.35135 24.5341 -1.80984C23.8044 -1.80984 22.3449 -1.69934 21.6494 -1.55567C20.8285 -1.38991 20.9311 -1.23519 21.1705 -0.881561L23.3483 -0.936815C23.8386 -0.98102 24.4087 -1.01417 24.8648 -0.881561C25.2068 -0.782103 25.9023 -1.04733 27.0995 -0.450573C28.9923 0.477713 29.0607 3.48359 29.0607 5.47277C29.0607 6.19109 28.9809 6.79889 28.8783 7.46195C28.8554 7.63877 28.8212 7.9482 28.787 8.13607C28.388 10.3131 28.3081 12.5675 28.0117 14.7667C27.9433 15.2529 27.9319 15.6729 27.8749 16.1481L27.5442 19.4634C27.5328 19.6402 27.51 19.9385 27.4758 20.1596C27.3504 21.1542 27.0311 22.1156 26.5979 22.9997C26.5523 23.0991 26.5294 23.1544 26.4724 23.2649C26.1988 23.8175 25.8225 24.3811 25.4007 24.8341C24.5341 25.7735 23.4623 26.4697 22.1967 26.8896C21.8319 27.0112 21.3302 27.1549 20.9767 27.2212C20.0532 27.398 19.255 27.4532 18.3315 27.5858L12.5849 27.9395C11.6385 28.0168 10.4984 27.9063 9.5748 28.0058C9.34676 28.0279 9.20993 28.05 8.89068 28.05C8.54862 28.05 8.43461 28.0942 8.16096 28.1053C7.64787 28.1274 7.15759 28.1053 6.6673 28.1716C6.47347 28.1937 6.23403 28.1937 5.98319 28.2158L4.58076 28.3815C4.01066 28.4478 4.39833 28.3594 4.02206 28.271C3.88525 28.3594 3.87384 28.4368 3.72562 28.4699C3.49757 28.5252 2.20916 28.5362 1.83289 28.5362C-0.0712204 28.5362 -1.20001 27.7958 -1.81572 26.536C-1.97534 26.2045 -2.05516 25.884 -2.13497 25.4862C-2.2946 24.7015 -2.40862 23.6848 -2.36301 22.8781L-2.306 21.5188C-2.306 20.6679 -2.20338 19.7728 -2.77348 19.0876C-2.95591 18.8776 -3.13834 18.6235 -3.35498 18.4577C-3.62862 18.2477 -3.5146 18.5793 -3.95927 18.2367L-5.48714 17.2753C-5.58975 17.209 -5.69237 17.1537 -5.78358 17.0763C-5.8976 16.9879 -6.00022 16.9327 -6.05723 16.8001C-5.15648 16.3359 -3.65143 15.5734 -2.86469 15.0651C-2.37441 14.7446 -1.88413 14.413 -1.63329 13.8605C-1.46226 13.4737 -1.38244 12.7775 -1.35964 12.3355C-1.34824 12.1476 -1.40525 12.015 -1.40525 11.7497C-1.40525 9.0091 -1.45086 5.91481 -0.401882 3.38413C-0.310669 3.17416 -0.253658 3.0084 -0.151039 2.80947C1.38822 -0.174297 4.8088 -0.461624 7.89872 -0.461624C9.02751 -0.461624 9.96246 -0.516878 11.0913 -0.516878C11.6956 -0.516878 12.0718 -0.461624 12.6647 -0.461624L17.4877 -0.516878C17.7728 -0.527929 17.7956 -0.572134 18.1034 -0.572134C18.5139 -0.572134 18.913 -0.605286 19.3006 -0.660542C19.5971 -0.704744 20.3382 -0.64949 20.3382 -0.903664C20.3382 -1.3236 19.8707 -1.29045 19.4375 -1.2794L16.8036 -1.22414C16.3475 -1.22414 16.0283 -1.16889 15.5152 -1.16889C15.0135 -1.16889 14.7399 -1.22414 14.2268 -1.22414C13.7821 -1.22414 13.3146 -1.21309 12.8813 -1.22414L4.68338 -1.09153C0.396255 -0.417418 -1.1088 1.62701 -1.87273 5.52802C-2.00955 6.20214 -2.12357 7.13042 -2.12357 7.89294C-2.3288 7.89294 -2.44282 7.83769 -2.64806 7.80453L-4.35834 7.61667C-4.27853 7.31829 -3.81105 7.03096 -3.60582 6.76574L-2.85329 5.92587C-2.65946 5.8043 -2.59105 5.79325 -2.47703 5.53908C-2.03235 4.57764 -1.67889 2.97524 -2.19198 1.9917C-2.42002 1.56071 -2.99011 1.31759 -3.5032 1.50546C-3.65142 1.56071 -3.76545 1.70438 -3.81105 1.70438C-4.36975 1.70438 -4.32414 1.28444 -5.13368 2.04696C-5.2591 2.16851 -5.77218 2.34533 -5.94321 2.34533C-6.50191 2.34533 -7.41406 1.9254 -7.96135 1.80383C-7.96135 0.986057 -8.12098 0.157232 -8.42883 -0.572134C-8.49724 -0.7379 -8.52005 -0.76 -8.58846 -0.903664C-8.70248 -1.15784 -8.78229 -1.26835 -9.04454 -1.37886C-9.23837 -1.45621 -9.21556 -1.46727 -9.35239 -1.56672C-9.92249 -1.95351 -10.5952 -2.3624 -11.0399 -2.85969C-10.8232 -3.16912 -10.4698 -3.41224 -10.2303 -3.69957C-9.52341 -4.52839 -9.24977 -4.77152 -9.24977 -5.95398C-9.24977 -7.08118 -9.89968 -10.0429 -10.0365 -11.6452C-10.0593 -11.8773 -10.0935 -12.3083 -10.1391 -12.5183C-8.8621 -13.3471 -7.60789 -14.2643 -6.28527 -15.0269C-6.08004 -15.1484 -5.07666 -15.6568 -4.98545 -15.8888C-5.8634 -15.8888 -7.02639 -15.281 -7.74471 -14.8721L-10.1391 -13.4466C-10.2303 -13.8444 -10.1961 -14.4301 -10.1961 -14.9163C-9.51201 -14.9716 -8.72528 -15.3694 -8.17799 -15.6789L-7.34565 -16.2314C-7.072 -16.4303 -6.86677 -16.6514 -6.62733 -16.8834C-5.63536 -17.8559 -4.98545 -19.381 -4.98545 -20.7844C-4.98545 -22.21 -5.73798 -23.9008 -6.76415 -24.7628C-6.80976 -24.796 -6.78695 -24.7849 -6.85537 -24.8402C-6.93518 -24.8954 -6.88957 -24.8844 -7.00359 -24.9175C-6.87817 -25.3596 -5.56695 -26.4426 -5.09947 -26.763C-3.05853 -28.1886 -0.652725 -28.8738 1.8785 -29.2274C2.18636 -29.2716 2.4258 -29.2827 2.72224 -29.3269C2.92748 -29.36 3.34935 -29.4042 3.57739 -29.4153C5.31048 -29.5258 7.08918 -29.7247 8.79947 -29.9015C9.97386 -30.0231 11.1369 -30.0341 12.3227 -30.1778C12.6875 -30.222 12.4139 -30.1888 12.6533 -30.2994L12.8243 -30.3436C12.8928 -30.3546 13.0296 -30.3436 13.1094 -30.3436C13.4629 -30.3436 13.6111 -30.3988 14.0101 -30.3988C15.2986 -30.3546 16.4273 -30.4209 17.75 -30.4209ZM-7.80172 -25.4811C-8.02976 -25.6027 -8.18939 -25.7132 -8.46303 -25.8237C-8.71387 -25.9232 -8.93052 -26.0116 -9.18136 -26.1C-11.1197 -26.752 -13.4343 -26.3984 -15.1104 -25.2822C-15.2244 -25.2048 -15.2244 -25.1938 -15.3384 -25.1164L-17.0601 -23.3704C-17.1855 -23.1936 -17.2311 -23.083 -17.3565 -22.8952C-18.759 -20.5966 -18.0178 -17.7344 -15.8515 -16.1651C-14.4148 -15.1153 -13.058 -14.7285 -11.1083 -14.7285C-11.1311 -14.4964 -11.1881 -14.4964 -11.1539 -14.198L-11.1083 -12.883C-11.1083 -12.7172 -11.1425 -12.7946 -11.2223 -12.7172C-11.5872 -12.3746 -12.2941 -12.1868 -12.2941 -11.6342C-12.2941 -11.3911 -12.0204 -11.4132 -11.8494 -11.4132C-11.7468 -11.4132 -11.1539 -11.8221 -11.0057 -11.8994C-11.0057 -11.3469 -10.8916 -10.8496 -10.8346 -10.3302C-10.6864 -9.02616 -10.1619 -6.89331 -10.1619 -5.71086C-10.1619 -4.80467 -11.0057 -4.24107 -11.5758 -3.66642C-12.5449 -2.69393 -11.7468 -2.07507 -10.6978 -1.33465L-9.53482 -0.616337C-9.20416 -0.450573 -9.23837 -0.472675 -9.13575 -0.0858898C-9.02173 0.334049 -8.88491 1.01921 -8.88491 1.51651C-9.06734 1.4723 -9.34098 1.36179 -9.54622 1.29549C-9.89967 1.18497 -10.6066 0.952904 -10.732 1.46125C-10.5724 1.69332 -9.77425 1.95855 -9.4322 2.10221C-8.96472 2.27903 -8.8279 2.22377 -8.78229 2.72107C-8.73669 3.24047 -8.8279 4.04719 -8.61126 4.51134C-9.32959 4.88707 -10.0479 5.15229 -10.8232 5.46172C-11.5986 5.7601 -12.3055 6.09163 -12.9782 6.52261C-13.2518 6.30159 -14.8253 5.13019 -14.8253 5.81535C-14.8253 6.03637 -14.7341 6.10268 -14.6087 6.20214C-14.4832 6.3016 -14.4034 6.37895 -14.2666 6.46736C-14.0614 6.62207 -13.7877 6.8873 -13.5369 6.95361C-13.8675 7.43985 -14.3806 7.66087 -14.8937 8.74387C-15.0533 9.0754 -15.1902 9.46218 -15.3726 9.80477C-15.4752 9.99263 -15.5322 10.1142 -15.6348 10.3131C-15.7603 10.5562 -15.8401 10.6115 -15.9541 10.8215C-16.832 10.3684 -16.8662 10.2247 -17.71 11.1309C-17.8126 11.2414 -17.9038 11.374 -17.995 11.5066C-18.1091 11.6834 -18.1661 11.7497 -18.2801 11.9376L-19.0554 13.2416C-19.2036 13.529 -19.1922 13.7279 -19.4431 13.8936C-20.5035 14.5788 -20.5605 14.3467 -21.7577 15.496C-22.0085 15.7392 -22.2137 15.9381 -22.4532 16.1702C-22.59 16.3028 -22.6926 16.3912 -22.8181 16.5238C-22.8979 16.6011 -22.8979 16.6122 -22.9777 16.7006L-23.8328 17.6068C-24.0267 17.8389 -24.3231 18.093 -24.5511 18.314L-25.6457 19.3197C-25.8054 19.4744 -25.8738 19.5076 -26.0334 19.6512C-26.2956 19.8722 -27.3218 20.7784 -27.6411 20.8558C-27.7437 20.4358 -28.0059 19.9717 -28.1655 19.5628L-29.5908 15.5181C-28.348 14.7114 -28.9751 13.9268 -28.9751 13.6726C-28.9751 13.5069 -28.8611 13.3521 -28.8269 13.109C-28.8041 12.9433 -28.8497 12.7112 -28.8611 12.4791C-28.8725 12.2028 -28.9295 12.1365 -29.0207 11.9155C-29.1119 11.6834 -28.8155 10.943 -29.1689 10.1142C-29.2601 9.90422 -29.2943 9.87107 -29.4312 9.71636C-29.7846 9.31852 -29.2373 9.16381 -29.8758 7.92609C-30.0811 7.53931 -30.3319 7.24093 -30.6968 7.04202C-31.2213 6.75469 -31.951 6.9094 -32.0308 6.71048C-32.1334 6.43421 -32.008 5.46172 -32.0992 5.08598C-30.8792 5.08598 -29.6478 4.7655 -29.2943 3.56094C-29.0891 2.86473 -29.4198 2.36744 -28.8725 2.43374C-28.0629 2.54425 -27.3104 2.71002 -26.5807 2.94209C-26.1246 3.08575 -25.7255 3.08575 -25.2809 3.25152C-24.3687 3.58305 -23.4338 3.84827 -22.59 4.33451C-21.3358 5.07493 -19.6711 5.52803 -18.1889 5.13019C-17.5732 4.96442 -17.1057 4.79866 -16.6268 4.52238C-16.3874 4.38977 -16.1935 4.30136 -15.9769 4.12455C-15.7603 3.95879 -15.5436 3.82617 -15.3612 3.6383C-14.7911 3.0968 -14.3122 2.5111 -13.8789 1.87014C-13.1036 0.698734 -12.6019 -0.660542 -12.3739 -2.04192C-11.9634 -4.45104 -12.1915 -6.69439 -13.058 -8.993C-13.1036 -9.11456 -13.1606 -9.24718 -13.229 -9.36874C-13.5255 -9.97655 -13.8333 -10.5623 -14.221 -11.1259C-15.8743 -13.535 -19.0212 -15.2147 -22.1453 -13.7891C-22.59 -13.5902 -22.9777 -13.3471 -23.3653 -13.0708L-25.1212 -11.8442C-26.7289 -10.8385 -28.4164 -9.93234 -30.0697 -8.98196C-31.5747 -8.10892 -33.8551 -7.09223 -35.5312 -6.61704C-36.6372 -6.30761 -37.1617 -5.96503 -37.7432 -4.95938C-38.4615 -3.71062 -38.6781 -1.98666 -38.3589 -0.572134C-38.2904 -0.251654 -38.0966 0.21249 -37.9598 0.444561C-37.5949 1.06342 -37.1503 1.50546 -36.4889 1.84804C-36.4889 2.56635 -36.2039 3.15206 -36.2039 3.85932C-37.1389 3.85932 -37.3897 3.90353 -37.3783 4.88707C-37.3783 5.16334 -37.3783 5.51698 -37.4125 5.71589C-37.4695 5.98112 -37.5721 6.23529 -37.5949 6.45631L-38.929 6.16899C-39.6359 6.01427 -39.7955 6.05848 -40.3428 6.06953C-40.5252 5.70484 -40.5708 5.31806 -40.8217 4.96442C-41.3006 4.29031 -42.9424 4.01404 -43.7748 3.85932C-44.037 3.81512 -44.2537 3.79302 -44.4931 3.73777L-44.5501 3.14101C-43.0793 3.14101 -42.2013 2.38954 -41.312 1.61597L-40.7533 1.01921C-39.8069 -0.119043 -39.385 -0.715797 -38.8377 -2.17453C-38.6781 -2.59447 -38.4957 -3.08071 -38.4045 -3.54486C-38.2106 -4.46209 -38.2905 -4.31843 -38.2905 -5.16936C-38.2905 -5.26882 -38.1308 -5.54509 -38.0738 -6.20815C-38.0282 -6.7607 -37.8686 -6.61704 -37.5493 -7.00382C-36.8994 -7.78844 -36.6714 -8.84934 -36.9678 -9.86604C-37.1389 -10.4517 -36.9792 -10.0539 -36.2951 -10.949C-34.4252 -13.3692 -34.5392 -16.2646 -36.4091 -18.6737L-37.1845 -19.5467C-39.4534 -21.4033 -38.6667 -20.5082 -39.6131 -21.0497C-39.8981 -21.2154 -40.0235 -21.3149 -40.263 -21.5028C-40.7647 -21.8895 -41.3918 -21.9006 -42.0075 -22.0443C-42.3039 -22.1106 -42.6574 -22.2542 -42.8854 -22.2763C-44.1168 -22.42 -43.1021 -22.6079 -45.6219 -22.6079C-46.4428 -22.6079 -47.298 -22.4642 -47.9251 -22.2874C-48.2671 -22.1879 -48.575 -22.1106 -48.9056 -21.989C-49.4985 -21.7569 -50.08 -21.4475 -50.6159 -21.0939C-51.1404 -20.7623 -51.6079 -20.3534 -51.9956 -19.8783C-52.0982 -19.7567 -52.2008 -19.6462 -52.292 -19.5136L-52.5657 -19.1268C-53.8997 -19.7456 -55.0627 -19.3257 -56.2029 -18.5853C-58.2894 -17.2481 -59.3384 -14.6069 -59.3384 -11.9657C-59.3384 -11.0706 -58.8595 -9.88814 -58.3578 -9.21402C-58.1412 -8.9267 -57.8105 -8.69463 -57.7649 -8.53992C-57.9702 -8.26364 -58.1982 -8.20838 -58.5175 -7.70004C-59.4068 -6.27446 -58.7797 -4.5947 -57.3887 -3.69957C-56.1801 -2.926 -55.3705 -2.68288 -53.8427 -2.68288C-53.5576 -2.68288 -53.5462 -2.77129 -53.284 -2.79339C-53.1928 -2.41765 -52.8279 -1.87615 -52.6113 -0.793154C-52.4288 0.0688248 -52.3946 0.643478 -52.3946 1.70438C-53.7058 2.00275 -55.3135 2.41164 -55.3135 3.92562C-55.3135 4.51133 -55.0285 5.2628 -54.8916 5.79325C-54.732 6.37896 -54.4356 6.98676 -54.4242 7.61667C-54.8232 7.64982 -55.895 8.24658 -56.2941 8.41234C-56.9212 8.68862 -57.5255 9.0091 -58.1298 9.29642L-61.6644 11.1972C-62.1775 11.584 -62.6221 12.0039 -62.93 12.5786C-63.5001 13.5953 -63.922 15.6618 -63.9562 16.8995C-63.9676 17.3195 -64.0702 17.662 -64.0702 18.093L-64.1272 19.828C-64.1272 20.3695 -64.0702 20.7563 -64.0702 21.2426C-64.0702 22.1266 -63.8421 23.0439 -63.8421 23.9611C-63.8421 25.0773 -63.3405 28.0058 -63.0782 29.144C-62.5993 31.2327 -61.9266 33.244 -60.4444 34.8464L-59.8287 35.4431C-59.669 35.5757 -59.384 35.7636 -59.3156 35.9294C-59.27 36.0288 -59.2244 36.3935 -59.1902 36.5151C-59.1446 36.714 -59.0761 36.935 -59.0305 37.1229C-58.6657 38.5374 -58.9963 40.1619 -59.4752 41.3996C-59.8401 42.339 -60.6154 44.295 -59.8629 45.2122C-59.612 45.5216 -59.7603 45.5769 -59.8857 46.1516C-59.9769 46.5383 -60.0567 46.8699 -60.1251 47.2235C-60.1821 47.4998 -60.3532 48.0523 -60.3532 48.3065C-60.3532 48.8922 -59.7375 49.2237 -59.7375 49.279C-59.7375 50.7267 -60.0681 52.1191 -60.0681 53.5668C-60.4102 53.7215 -60.7636 53.6773 -61.2425 53.6773C-61.7214 53.6773 -62.0635 53.7325 -62.4739 53.7325C-62.3713 54.1414 -62.3941 54.3846 -62.2117 54.4509C-61.9152 54.5724 -49.4301 54.4951 -47.4006 54.4951C-46.4884 54.4951 -45.7587 54.4398 -44.8237 54.4398C-43.0679 54.4398 -41.312 54.4398 -39.5561 54.4398C-31.78 54.4398 -23.8214 54.1856 -16.0225 54.2188C-15.5322 54.2188 -15.2472 54.1635 -14.7341 54.1635C-14.221 54.1635 -13.8904 54.0862 -13.8904 53.622C-13.8904 52.959 -14.8937 53.1358 -15.5664 53.1358C-16.319 53.1358 -17.0601 53.1358 -17.8126 53.1358C-18.5993 53.1358 -19.1808 53.1911 -19.9448 53.1911L-31.0388 53.2463C-31.0388 52.4727 -31.0046 47.2235 -31.1186 46.4278C-31.1871 45.9968 -30.8792 45.7979 -30.6854 45.4553C-30.5714 45.2564 -30.5029 45.1349 -30.4345 44.9359C-29.9328 43.3446 -30.9248 41.2228 -30.9248 40.6039C-30.9248 39.974 -30.4573 39.7862 -30.8564 37.1671L-31.1186 35.41C-31.2099 34.7359 -31.2555 33.2329 -31.3581 32.6583C-31.4721 32.0063 -31.3809 32.2383 -31.3809 31.7631C-31.3809 31.3211 -31.5177 30.9011 -31.5519 30.5144C-29.9556 31.2548 -27.4358 30.9122 -25.8966 30.4591C-24.5853 30.0834 -23.3995 29.3761 -22.2023 28.7794C-20.1728 27.7627 -18.3257 26.3371 -16.604 24.9226C-15.7147 24.1932 -14.8481 23.3865 -14.1298 22.4913C-13.3431 21.5188 -12.4651 19.2092 -12.6589 17.9494C-12.7388 17.4631 -12.7274 17.2089 -12.3853 16.8443C-12.009 16.4354 -10.9943 15.0761 -10.9943 14.6009C-10.9943 13.9599 -11.6556 13.8826 -11.895 13.5732C-11.7582 13.33 -11.7468 13.3742 -11.5758 13.1753C-11.4389 13.0096 -11.4047 12.9543 -11.2337 12.7996C-10.6294 12.2249 -10.0593 11.5398 -9.32958 11.1198C-8.67967 10.7441 -4.72321 10.4457 -4.72321 9.1196C-4.72321 8.75492 -4.96265 8.42339 -5.39592 8.41234C-5.2477 8.22448 -5.13367 8.35709 -4.83722 8.41234C-4.59779 8.4676 -4.47237 8.4897 -4.17591 8.5339C-3.76545 8.58916 -3.20675 8.62231 -2.70506 8.62231C-2.42002 8.62231 -2.45423 8.5781 -2.20338 8.56705C-2.20338 9.08645 -2.2718 9.5506 -2.2604 10.1474C-2.2604 10.4568 -2.20338 10.5562 -2.20338 10.8988C-2.21479 13.1753 -1.79291 13.5842 -4.03909 14.7777L-5.65816 15.6508C-5.8634 15.7502 -6.02303 15.8165 -6.21686 15.927C-6.58172 16.137 -7.02639 16.3028 -7.02639 16.8222C-7.02639 17.2642 -6.4677 17.5847 -6.18265 17.7946C-5.43012 18.3361 -4.62059 18.734 -3.79965 19.176C-3.08133 19.5518 -3.22956 21.2315 -3.22956 21.8725L-3.28657 23.3423C-3.20675 24.591 -3.10413 26.2376 -2.42002 27.2322C-1.1316 29.1109 0.41906 29.3651 2.59682 29.3651C3.57739 29.3651 4.66057 29.2435 5.60693 29.133L9.42657 28.8788C9.70022 28.8788 9.99667 28.8899 10.2703 28.8788C10.5668 28.8678 10.6922 28.8236 11.057 28.8236C11.3307 28.8236 11.6271 28.8346 11.9008 28.8236L13.4172 28.7241C13.9417 28.6688 14.489 28.7131 15.0249 28.6578C15.9941 28.5583 17.1115 28.6136 18.0806 28.4699C18.5937 28.4036 19.0498 28.3815 19.5515 28.3263C20.8969 28.1495 22.3107 27.8179 23.4737 27.2985C26.1076 26.1382 27.7723 23.5522 28.2739 20.8226C28.4792 19.7286 28.73 16.2365 28.8668 14.9877L29.7106 7.77139C30.0298 5.2407 30.2123 2.54425 29.0265 0.212488C28.3652 -1.06943 26.8601 -1.76564 25.3893 -1.7988C25.3893 -2.80444 25.2182 -3.72167 25.2182 -4.72732C25.2182 -5.79926 25.1612 -6.68335 25.1612 -7.76634C26.8373 -7.39061 28.0231 -7.34641 29.665 -7.96526C30.4061 -8.24154 30.9876 -8.57307 31.6375 -8.98196C33.2338 -9.99865 34.4082 -11.9657 34.8757 -13.767C35.1493 -14.8058 35.1835 -15.9772 34.9669 -17.005C34.8643 -17.4581 34.7274 -17.867 34.5678 -18.2427C34.1459 -19.2704 33.496 -20.1103 32.6637 -20.7955L32.3558 -21.0386C30.7368 -22.2211 28.3082 -22.6521 26.29 -22.0222C26.0278 -21.9448 25.8339 -21.8785 25.5717 -21.7901C25.2866 -21.6906 25.1156 -21.558 24.8648 -21.4917C24.8648 -23.6909 24.2719 -26.332 23.2799 -28.266C22.2423 -30.2883 20.2584 -31.3271 17.807 -31.3271C16.0283 -31.3271 13.383 -31.2497 11.6385 -31.1171C10.772 -31.0508 9.80283 -31.1171 8.9933 -30.8519C8.35479 -30.6419 5.4473 -30.5093 4.56936 -30.4099C1.66187 -30.0894 -0.652721 -29.9789 -3.43479 -28.7743C-4.98545 -28.1002 -6.22826 -27.183 -7.36845 -26.0226C-7.51668 -25.7795 -7.55088 -25.6358 -7.80172 -25.4811Z" fill="#0B0A0A"/>
</g>
</svg>
