<svg width="20" height="20" viewBox="0 0 20 20" fill="none" xmlns="http://www.w3.org/2000/svg">
<path d="M16.4705 6.56136L11.745 2.41868C11.3118 2.03122 10.751 1.81702 10.1699 1.81702C9.58867 1.81702 9.02788 2.03122 8.59469 2.41868L3.8692 6.56136C3.61904 6.78509 3.41941 7.05955 3.28361 7.36646C3.14781 7.67337 3.07895 8.00569 3.08162 8.34129V15.2248C3.08162 15.8514 3.33055 16.4524 3.77365 16.8955C4.21675 17.3386 4.81772 17.5875 5.44436 17.5875H14.8953C15.522 17.5875 16.123 17.3386 16.5661 16.8955C17.0092 16.4524 17.2581 15.8514 17.2581 15.2248V8.33342C17.2596 7.99914 17.1902 7.66833 17.0545 7.36286C16.9187 7.05739 16.7197 6.78421 16.4705 6.56136ZM11.745 16.0123H8.59469V12.0744C8.59469 11.8656 8.67767 11.6652 8.82537 11.5175C8.97307 11.3698 9.17339 11.2868 9.38227 11.2868H10.9574C11.1663 11.2868 11.3666 11.3698 11.5143 11.5175C11.662 11.6652 11.745 11.8656 11.745 12.0744V16.0123ZM15.6829 15.2248C15.6829 15.4336 15.6 15.634 15.4523 15.7817C15.3046 15.9294 15.1042 16.0123 14.8953 16.0123H13.3202V12.0744C13.3202 11.4478 13.0713 10.8468 12.6281 10.4037C12.1851 9.96062 11.5841 9.71168 10.9574 9.71168H9.38227C8.75563 9.71168 8.15466 9.96062 7.71156 10.4037C7.26846 10.8468 7.01953 11.4478 7.01953 12.0744V16.0123H5.44436C5.23548 16.0123 5.03516 15.9294 4.88746 15.7817C4.73976 15.634 4.65678 15.4336 4.65678 15.2248V8.33342C4.65692 8.22159 4.68088 8.11108 4.72705 8.00923C4.77322 7.90738 4.84055 7.81653 4.92456 7.74273L9.65005 3.60792C9.79378 3.48166 9.97854 3.41203 10.1699 3.41203C10.3612 3.41203 10.5459 3.48166 10.6897 3.60792L15.4151 7.74273C15.4992 7.81653 15.5665 7.90738 15.6127 8.00923C15.6588 8.11108 15.6828 8.22159 15.6829 8.33342V15.2248Z" fill="black"/>
</svg>
