<svg width="20" height="20" viewBox="0 0 20 20" fill="none" xmlns="http://www.w3.org/2000/svg">
<path d="M14.6194 10.8127V8.30206C14.6183 7.18341 14.2213 6.10126 13.4988 5.24724C12.7762 4.39323 11.7748 3.82246 10.6718 3.63602V2.77545C10.6718 2.56605 10.5886 2.36524 10.4406 2.21718C10.2925 2.06911 10.0917 1.98593 9.88229 1.98593C9.6729 1.98593 9.47208 2.06911 9.32402 2.21718C9.17596 2.36524 9.09278 2.56605 9.09278 2.77545V3.63602C7.98977 3.82246 6.98834 4.39323 6.26582 5.24724C5.54331 6.10126 5.14633 7.18341 5.14519 8.30206V10.8127C4.68447 10.9756 4.28541 11.277 4.00272 11.6756C3.72002 12.0742 3.56754 12.5505 3.56616 13.0392V14.6182C3.56616 14.8276 3.64934 15.0284 3.79741 15.1765C3.94547 15.3245 4.14629 15.4077 4.35568 15.4077H6.83476C7.01657 16.0767 7.41348 16.6673 7.96424 17.0884C8.515 17.5094 9.18901 17.7376 9.88229 17.7376C10.5756 17.7376 11.2496 17.5094 11.8003 17.0884C12.3511 16.6673 12.748 16.0767 12.9298 15.4077H15.4089C15.6183 15.4077 15.8191 15.3245 15.9672 15.1765C16.1152 15.0284 16.1984 14.8276 16.1984 14.6182V13.0392C16.197 12.5505 16.0446 12.0742 15.7619 11.6756C15.4792 11.277 15.0801 10.9756 14.6194 10.8127ZM6.72423 8.30206C6.72423 7.46449 7.05695 6.66122 7.6492 6.06897C8.24145 5.47672 9.04472 5.144 9.88229 5.144C10.7199 5.144 11.5231 5.47672 12.1154 6.06897C12.7076 6.66122 13.0404 7.46449 13.0404 8.30206V10.6706H6.72423V8.30206ZM9.88229 16.1972C9.60673 16.1956 9.3364 16.1218 9.09817 15.9833C8.85994 15.8448 8.6621 15.6464 8.52432 15.4077H11.2403C11.1025 15.6464 10.9046 15.8448 10.6664 15.9833C10.4282 16.1218 10.1579 16.1956 9.88229 16.1972ZM14.6194 13.8287H5.14519V13.0392C5.14519 12.8298 5.22838 12.6289 5.37644 12.4809C5.5245 12.3328 5.72532 12.2496 5.93471 12.2496H13.8299C14.0393 12.2496 14.2401 12.3328 14.3881 12.4809C14.5362 12.6289 14.6194 12.8298 14.6194 13.0392V13.8287Z" fill="#AAAFB5"/>
</svg>
