<svg width="20" height="20" viewBox="0 0 20 20" fill="none" xmlns="http://www.w3.org/2000/svg">
<g clip-path="url(#clip0_1_2539)">
<path d="M0.927734 1.00038C0.927734 0.843725 0.989967 0.693482 1.10074 0.582707C1.21152 0.471931 1.36176 0.409698 1.51842 0.409698L5.06254 0.409698C5.2192 0.409698 5.36944 0.471931 5.48022 0.582707C5.59099 0.693482 5.65323 0.843725 5.65323 1.00038C5.65323 1.15704 5.59099 1.30729 5.48022 1.41806C5.36944 1.52884 5.2192 1.59107 5.06254 1.59107H2.10911V4.5445C2.10911 4.70116 2.04687 4.85141 1.9361 4.96218C1.82532 5.07296 1.67508 5.13519 1.51842 5.13519C1.36176 5.13519 1.21152 5.07296 1.10074 4.96218C0.989967 4.85141 0.927734 4.70116 0.927734 4.5445V1.00038ZM15.1042 1.00038C15.1042 0.843725 15.1664 0.693482 15.2772 0.582707C15.388 0.471931 15.5382 0.409698 15.6949 0.409698L19.239 0.409698C19.3957 0.409698 19.5459 0.471931 19.6567 0.582707C19.7675 0.693482 19.8297 0.843725 19.8297 1.00038V4.5445C19.8297 4.70116 19.7675 4.85141 19.6567 4.96218C19.5459 5.07296 19.3957 5.13519 19.239 5.13519C19.0824 5.13519 18.9321 5.07296 18.8213 4.96218C18.7106 4.85141 18.6483 4.70116 18.6483 4.5445V1.59107H15.6949C15.5382 1.59107 15.388 1.52884 15.2772 1.41806C15.1664 1.30729 15.1042 1.15704 15.1042 1.00038ZM1.51842 14.5862C1.67508 14.5862 1.82532 14.6484 1.9361 14.7592C2.04687 14.87 2.10911 15.0202 2.10911 15.1769V18.1303H5.06254C5.2192 18.1303 5.36944 18.1925 5.48022 18.3033C5.59099 18.4141 5.65323 18.5643 5.65323 18.721C5.65323 18.8776 5.59099 19.0279 5.48022 19.1387C5.36944 19.2494 5.2192 19.3117 5.06254 19.3117H1.51842C1.36176 19.3117 1.21152 19.2494 1.10074 19.1387C0.989967 19.0279 0.927734 18.8776 0.927734 18.721V15.1769C0.927734 15.0202 0.989967 14.87 1.10074 14.7592C1.21152 14.6484 1.36176 14.5862 1.51842 14.5862ZM19.239 14.5862C19.3957 14.5862 19.5459 14.6484 19.6567 14.7592C19.7675 14.87 19.8297 15.0202 19.8297 15.1769V18.721C19.8297 18.8776 19.7675 19.0279 19.6567 19.1387C19.5459 19.2494 19.3957 19.3117 19.239 19.3117H15.6949C15.5382 19.3117 15.388 19.2494 15.2772 19.1387C15.1664 19.0279 15.1042 18.8776 15.1042 18.721C15.1042 18.5643 15.1664 18.4141 15.2772 18.3033C15.388 18.1925 15.5382 18.1303 15.6949 18.1303H18.6483V15.1769C18.6483 15.0202 18.7106 14.87 18.8213 14.7592C18.9321 14.6484 19.0824 14.5862 19.239 14.5862ZM5.65323 5.13519H6.8346V6.31656H5.65323V5.13519Z" fill="white"/>
<path d="M9.19715 2.77322H3.29028V8.68009H9.19715V2.77322ZM4.47166 3.9546H8.01577V7.49872H4.47166V3.9546ZM6.8344 13.4056H5.65303V14.587H6.8344V13.4056Z" fill="white"/>
<path d="M9.19715 11.04H3.29028V16.9469H9.19715V11.04ZM4.47166 12.2214H8.01577V15.7655H4.47166V12.2214ZM13.9226 5.13318H15.104V6.31455H13.9226V5.13318Z" fill="white"/>
<path d="M11.5593 2.77322H17.4662V8.68009H11.5593V2.77322ZM12.7407 3.9546V7.49872H16.2848V3.9546H12.7407ZM10.3779 9.86146V12.2242H11.5593V13.4056H10.3779V14.587H12.7407V12.2242H13.922V14.587H15.1034V13.4056H17.4662V12.2242H13.922V9.86146H10.3779ZM12.7407 12.2242H11.5593V11.0428H12.7407V12.2242ZM17.4662 14.587H16.2848V15.7683H13.922V16.9497H17.4662V14.587ZM12.7407 16.9497V15.7683H10.3779V16.9497H12.7407Z" fill="white"/>
<path d="M15.1035 11.0415H17.4663V9.86014H15.1035V11.0415Z" fill="white"/>
</g>
<defs>
<clipPath id="clip0_1_2539">
<rect width="18.902" height="18.902" fill="white" transform="translate(0.927734 0.411591)"/>
</clipPath>
</defs>
</svg>
