<svg width="26" height="26" viewBox="0 0 26 26" fill="none" xmlns="http://www.w3.org/2000/svg">
<mask id="mask0_1_2521" style="mask-type:alpha" maskUnits="userSpaceOnUse" x="0" y="0" width="26" height="26">
<rect x="0.454346" y="0.167084" width="25.2026" height="25.2026" rx="3.15033" fill="#C4C4C4"/>
</mask>
<g mask="url(#mask0_1_2521)">
<path fill-rule="evenodd" clip-rule="evenodd" d="M-46.4542 51.6978C-46.3402 51.2337 -46.1692 49.0676 -46.1692 48.493C-44.7553 48.493 -43.5125 48.4377 -42.1557 48.1394C-41.8479 48.0731 -41.4374 47.9404 -41.1181 47.9404L-40.6164 50.7695C-40.7533 50.7806 -43.6494 51.6204 -44.7667 51.6425C-45.3368 51.6536 -45.8271 51.6978 -46.4542 51.6978ZM-15.0305 20.0919C-15.1332 20.1913 -14.9621 20.125 -15.0191 20.0919C-15.0077 20.0919 -15.0191 20.0919 -15.0305 20.0919ZM1.50224 -9.06068H1.33121C1.45663 -8.89492 1.37682 -8.89492 1.50224 -9.06068ZM-42.2013 -9.44747C-42.2013 -9.2596 -42.1101 -9.17119 -41.9163 -9.17119C-41.711 -9.17119 -41.5628 -9.76795 -40.7989 -9.76795C-40.0692 -9.76795 -39.3394 -8.65179 -39.3394 -9.2817C-39.3394 -9.76795 -40.3542 -10.9062 -41.6654 -10.0774C-41.8478 -9.95581 -42.2013 -9.67954 -42.2013 -9.44747ZM-49.4301 -8.79546C-49.4301 -8.67389 -49.4073 -8.72915 -49.3731 -8.57444C-49.1109 -8.50813 -49.1451 -8.49708 -48.9626 -8.66285C-47.7654 -9.81215 -46.9559 -9.00543 -46.1236 -9.00543C-45.9525 -9.00543 -45.9525 -9.08278 -45.9525 -9.22645C-45.9525 -9.60218 -46.9901 -9.93371 -47.7426 -9.93371C-48.3013 -9.93371 -49.4301 -9.2596 -49.4301 -8.79546ZM-45.0518 -6.99414C-45.0518 -6.85048 -45.029 -6.83943 -44.9948 -6.71787C-44.7895 -6.62946 -44.5729 -6.60736 -44.2651 -6.60736C-43.4327 -6.60736 -43.7292 -5.81169 -43.2617 -5.13757C-42.8626 -5.22598 -42.7828 -5.71222 -42.7828 -6.06586C-42.7714 -6.76207 -43.2161 -7.6572 -44.1168 -7.49144C-44.4361 -7.44723 -45.0518 -7.29252 -45.0518 -6.99414ZM-7.85873 -4.01037C-7.85873 -3.52412 -6.96938 -3.7783 -6.23966 -3.85566L-3.18395 -4.2977C-2.95591 -4.30875 -2.87609 -4.24244 -2.86469 -4.60712C-3.17255 -4.67343 -3.05853 -4.71763 -3.4804 -4.71763C-4.34695 -4.71763 -6.09144 -4.55187 -6.96938 -4.40821C-7.27724 -4.364 -7.85873 -4.30875 -7.85873 -4.01037ZM-56.6475 -7.49144C-56.4423 -7.49144 -56.1231 -7.24832 -56.0318 -7.1157C-56.0888 -6.91679 -56.9668 -6.14321 -56.4195 -5.75643C-56.2143 -5.90009 -56.3853 -5.81168 -56.2371 -6.0106C-56.066 -6.23162 -55.7012 -6.5521 -55.4161 -6.57421C-55.3363 -6.27583 -54.6408 -5.59066 -54.6294 -5.04916C-53.7286 -5.12652 -54.846 -7.0273 -55.1767 -7.40303C-55.3591 -7.613 -55.3705 -7.6793 -55.667 -7.91138C-56.9326 -8.87281 -57.5939 -7.81192 -57.0808 -7.51354C-56.8528 -7.38093 -56.83 -7.49144 -56.6475 -7.49144ZM24.1921 -18.6198C24.1921 -17.36 25.4577 -17.0616 26.3584 -17.7136C27.5214 -18.5646 26.4496 -19.1834 26.2216 -19.4376C25.7883 -19.9128 25.013 -19.8465 24.5569 -19.4044C24.3517 -19.2166 24.1921 -18.9624 24.1921 -18.6198ZM28.1143 -13.2932C28.1143 -12.586 28.6616 -11.8676 29.4255 -11.9671C29.8246 -12.0224 30.1781 -12.1771 30.4175 -12.3649C31.3981 -13.1275 30.9534 -14.2657 30.1325 -14.4425C29.5282 -14.5751 29.3001 -14.6414 28.616 -14.1662C28.3195 -13.9673 28.1143 -13.5363 28.1143 -13.2932ZM-11.61 -19.4928L-11.553 -21.0621C-11.4503 -21.0179 -9.87687 -20.7748 -9.87687 -20.1338C-9.87687 -19.7028 -11.0513 -19.4928 -11.61 -19.4928ZM-12.1687 -21.9904C-12.5563 -22.0788 -13.1834 -22.3993 -12.5449 -23.0071C-12.4081 -23.1397 -12.2827 -23.2723 -12.0546 -23.2944L-12.1687 -21.9904ZM-11.9976 -24.5874C-11.9976 -23.6149 -12.1003 -24.0569 -12.83 -23.6038C-12.9326 -23.5375 -12.9896 -23.5044 -13.0808 -23.4159C-14.2666 -22.3882 -13.001 -21.2942 -12.1573 -21.2168C-12.2257 -20.9074 -12.2143 -20.6642 -12.2143 -20.2885C-12.2143 -19.9128 -12.2713 -19.6586 -12.2713 -19.3602C-12.8756 -19.3602 -13.4115 -19.1945 -13.8904 -19.305C-13.9588 -19.6144 -13.9474 -19.8575 -13.9474 -20.2333C-14.107 -20.3438 -14.2324 -20.4985 -14.449 -20.399C-14.7455 -20.2664 -14.7227 -19.9238 -14.7227 -19.6365C-14.7227 -19.2166 -14.5631 -18.9624 -14.392 -18.7082C-13.8447 -18.7082 -13.5711 -18.5977 -13.0466 -18.5977H-12.2029V-17.7799C-13.0808 -17.7136 -12.7502 -17.0727 -12.4879 -17.0727C-12.2257 -17.0727 -11.2565 -16.9843 -11.2565 -17.3931C-11.2565 -17.6473 -11.5302 -17.6142 -11.7012 -17.6142L-11.6442 -18.6419C-8.52005 -18.6419 -8.12098 -20.8632 -10.6864 -21.5815C-10.8688 -21.6367 -11.3933 -21.7251 -11.5302 -21.7914C-11.5302 -22.0677 -11.4731 -22.2556 -11.4731 -22.6092C-11.4731 -22.8965 -11.4731 -23.1839 -11.4731 -23.4823C-11.3477 -23.5154 -11.3021 -23.5375 -11.1539 -23.5596C-11.0285 -23.5817 -11.1197 -23.5817 -10.9943 -23.5596L-10.1277 -23.3828C-10.1277 -23.0513 -10.2417 -22.4545 -9.74005 -22.4545C-9.23837 -22.4545 -9.35239 -22.9076 -9.35239 -23.4823C-9.35239 -23.9132 -9.72865 -23.9796 -10.1961 -23.9685C-10.6978 -23.9685 -10.9715 -24.0238 -11.4845 -24.0238V-24.7863C-11.1881 -24.7863 -10.8802 -24.8526 -10.8118 -25.1068C-11.1197 -25.3057 -12.1345 -25.3278 -12.2029 -25.3167C-12.6589 -25.2725 -12.6931 -24.6426 -11.9976 -24.5874ZM23.2913 -13.68C23.2913 -13.8458 23.4053 -13.8679 23.5421 -13.9342C23.622 -13.9673 23.5878 -13.9452 23.6562 -13.9894L24.4201 -14.7077C24.4315 -14.7188 24.4429 -14.7299 24.4543 -14.7299L27.0653 -17.0285C27.1794 -17.139 27.1794 -17.1279 27.3048 -17.2274C27.4302 -17.3158 27.453 -17.36 27.567 -17.4595C27.6354 -17.5147 27.6126 -17.5037 27.6924 -17.5589L28.8554 -18.4982C29.95 -19.3602 30.4973 -20.0343 31.0674 -19.1392C31.2156 -18.8961 31.1244 -19.0397 31.3411 -18.9182C31.9112 -18.5867 31.113 -17.9788 30.7596 -17.6915L25.241 -12.5639C24.6481 -12.1218 24.2491 -12.3207 23.793 -12.8622C23.5079 -13.1938 23.2913 -13.3927 23.2913 -13.68ZM-44.3791 -4.60712C-46.306 -4.60712 -46.7849 -4.9276 -48.1303 -4.9276C-48.7118 -4.9276 -48.803 -4.3861 -48.803 -3.95511C-48.803 -3.42467 -48.4838 -2.77266 -48.2671 -2.40797C-47.6742 -1.45758 -46.9103 -1.01554 -45.8613 -0.606657C-44.5843 -0.120415 -44.6755 -0.153564 -43.3643 -0.153564C-42.6232 -0.153564 -42.1215 -0.584555 -42.3723 -0.717167L-43.9914 -0.78347C-45.0518 -0.916082 -45.0176 -0.893982 -46.0324 -1.35813C-46.2718 -1.46864 -46.477 -1.49074 -46.6139 -1.66755C-45.8955 -1.99908 -44.2194 -1.71176 -43.4099 -1.56809C-42.4293 -1.39128 -43.1363 -1.71176 -42.7828 -3.05998C-42.6688 -3.49097 -42.5662 -3.85565 -42.4636 -4.27559C-42.1899 -4.33085 -41.5286 -4.46346 -41.3234 -4.57397C-41.1523 -4.67343 -41.0497 -4.8613 -41.2321 -4.97181C-41.3918 -5.08232 -43.0336 -4.60712 -44.3791 -4.60712ZM16.8492 -16.719C16.8492 -16.1886 16.6098 -15.1829 16.4388 -14.7741C16.3247 -14.4978 16.2335 -14.2215 16.0967 -13.9673L15.8801 -13.5805C15.1275 -12.0997 13.9873 -11.2046 14.3294 -9.11594C14.4092 -8.59654 14.4776 -8.62969 13.8733 -8.62969C12.8586 -8.62969 13.5313 -11.2267 13.5427 -11.503C12.927 -11.7903 12.6533 -11.4145 12.3683 -11.1825L9.70022 -9.09383C8.9933 -8.61864 7.35142 -7.85612 6.55328 -7.57984C4.75179 -6.96099 2.39159 -6.81733 0.567284 -7.51354C0.373451 -7.5909 0.213821 -7.66825 0.0655975 -7.78982C0.0427933 -7.81192 0.0085907 -7.84507 -0.0256119 -7.86717L-0.686932 -8.58549C-1.1088 -9.18224 -0.949169 -9.18224 -0.276459 -9.58008C-0.0484161 -9.71269 0.202423 -9.8674 0.441864 -9.90056C1.04617 -10 3.44057 -11.3924 4.11328 -11.8345C4.843 -12.3097 4.76318 -12.3981 5.20786 -12.0334L5.33329 -11.9339C6.0288 -11.3261 6.18842 -9.31485 9.28975 -10.6299L10.0423 -10.9836C11.6271 -11.8897 11.764 -11.9339 13.212 -13.3374C14.2838 -14.3762 14.3066 -14.7962 14.9223 -15.9786C15.4924 -17.0837 15.9485 -17.9788 15.9485 -19.3271C16.1309 -19.2055 16.6326 -18.4651 16.587 -18.1667C16.5072 -17.7136 16.4958 -18.233 16.701 -17.5037C16.7466 -17.3268 16.8492 -16.8848 16.8492 -16.719ZM-1.91833 -9.60218C-1.6789 -9.94476 -1.55347 -10.0553 -1.15441 -10.2763C-0.561508 -10.5968 1.12598 -11.293 1.85571 -11.6024C2.98449 -12.0776 5.21926 -13.7574 6.15422 -14.4425C6.43927 -14.6525 6.6673 -14.8404 6.95235 -15.0724L8.83367 -16.6638C8.84507 -16.6748 8.85648 -16.6859 8.86788 -16.6859L9.01611 -16.8185C9.0275 -16.8295 9.03891 -16.8406 9.05031 -16.8406C9.06171 -16.8516 9.07311 -16.8627 9.08451 -16.8627L10.4869 -18.222C10.4984 -18.233 10.5098 -18.2441 10.5098 -18.2551C10.5212 -18.2662 10.5326 -18.2772 10.5326 -18.2883C11.0913 -18.9403 11.8096 -18.9845 10.829 -20.6974C10.5668 -21.1505 10.3273 -21.4489 9.91685 -21.7141C9.91685 -20.8963 9.87125 -20.5427 9.62041 -19.9349C8.9933 -18.3767 8.28638 -17.4484 7.15759 -16.1886L6.65591 -15.6471C6.5989 -15.5918 6.5761 -15.5697 6.51908 -15.5034L3.85104 -13.2601C1.99252 -12.0555 1.57065 -12.9948 0.932144 -13.8126C0.818123 -13.9563 0.658501 -14.0999 0.521675 -14.2326C-0.0712204 -14.7851 -0.219448 -14.7188 -0.5387 -14.5309C-1.37104 -14.0226 -2.95591 -13.249 -3.86806 -12.818C-4.43816 -12.5528 -4.98545 -12.3207 -5.38451 -11.8455C-5.70377 -11.4587 -5.72657 -11.1825 -5.43013 -10.7957C-5.13367 -10.4089 -4.0847 -10.0553 -3.59442 -9.92266C-2.84189 -9.70164 -2.42002 -9.71269 -1.91833 -9.60218ZM-5.22489 -9.11594L-6.06863 -9.76795C-6.53611 -10.1105 -6.83256 -11.0499 -6.76415 -11.4256C-6.68434 -11.9229 -6.35368 -12.4202 -6.08004 -12.7186C-5.82919 -12.9948 -5.2819 -13.3043 -4.91704 -13.4921C-4.18732 -13.8679 -3.28656 -14.2436 -2.55684 -14.6304C-2.44282 -14.6967 -2.37441 -14.7188 -2.2604 -14.7851L-1.01758 -15.4813C-0.812347 -15.6029 -0.595711 -15.7134 -0.390476 -15.846C-0.185242 -15.9786 -0.00280762 -16.067 0.202423 -16.1886L4.58076 -19.2829C4.59216 -19.2939 4.60356 -19.305 4.61496 -19.305L6.37086 -20.8079C8.05834 -22.3329 8.71965 -23.3607 10.4527 -22.4656C10.9316 -22.2114 11.1711 -21.8909 11.4789 -21.5041C11.7298 -21.1836 12.1174 -20.6863 12.1516 -20.2554L12.8129 -21.1947C13.326 -21.7472 13.8733 -21.6367 14.5232 -21.5704C14.9565 -21.5262 14.7741 -21.5925 15.0933 -21.4157C16.2107 -20.8079 16.644 -20.1891 17.2939 -19.1503L17.7158 -18.0894C18.2973 -16.2549 17.6588 -14.7962 16.9404 -13.1827C16.5984 -12.4091 16.4616 -12.586 16.1195 -11.8566C15.3898 -10.2873 15.6064 -10.6078 15.3784 -9.03858L15.2301 -7.93348C14.7627 -7.82297 13.8733 -7.69036 13.326 -7.83402C13.1094 -7.88927 12.6875 -8.27606 12.5735 -8.46392C12.3455 -8.85071 12.2542 -9.40326 12.2542 -10C12.049 -9.94476 11.5587 -9.48062 11.3079 -9.29275C9.64321 -8.05504 7.89871 -7.01624 5.85777 -6.43054C5.4245 -6.30898 4.90001 -6.23162 4.46674 -6.14321C4.02206 -6.0548 3.58879 -5.92219 3.0757 -5.92219C1.69607 -5.92219 0.715508 -6.0106 -0.41328 -6.60736C-0.903564 -6.86153 -1.65609 -7.62405 -1.96394 -8.03294C-2.05516 -8.1545 -2.26039 -8.46392 -2.2946 -8.62969C-2.81909 -8.62969 -3.75404 -8.85071 -4.19872 -8.85071L-6.92377 -7.91138C-7.25443 -7.81192 -7.56228 -7.71246 -7.94995 -7.71246C-8.30341 -7.71246 -8.72528 -8.1987 -7.68771 -8.44183C-7.24303 -8.54128 -5.47573 -9.09384 -5.22489 -9.11594ZM4.19309 15.9699C4.19309 16.3235 4.51234 16.6771 4.74039 16.8429C5.00263 17.0529 5.31048 17.1965 5.64114 17.3181C6.87254 17.7601 7.59087 17.3733 8.10395 17.3733C8.06975 17.4065 8.08115 17.4065 8.01274 17.4396C7.95573 17.4728 7.93292 17.4839 7.86451 17.506L6.92956 17.7491C6.05161 17.8154 5.12805 17.7159 4.42113 17.1965C3.36076 16.434 3.6572 15.4726 4.40973 15.3068C4.40973 15.6825 4.19309 15.6383 4.19309 15.9699ZM10.6352 15.9146C11.5815 15.9146 12.5621 15.7378 13.383 15.5941C13.5997 15.5499 13.4971 15.561 13.6909 15.5057C13.7935 15.4726 13.9417 15.4505 14.0101 15.4394C14.9451 15.2184 16.4844 14.6216 17.2369 14.1133C17.4079 14.0028 17.4991 13.9475 17.6702 13.826C18.1376 13.4834 18.2745 13.3508 18.3315 12.9971C18.3885 12.5883 18.3771 12.0689 18.3771 11.5716C18.1832 11.6268 18.2403 11.6821 17.9666 11.9362C17.8298 12.0689 17.7386 12.1683 17.6017 12.2788L16.7808 12.8866C16.1651 13.2845 14.9907 13.8149 14.2952 14.058L13.2006 14.4117C11.9806 14.7985 12.4367 14.6106 11.4333 14.8206C11.0456 14.8979 10.5554 14.9311 10.0993 14.9311C8.09255 14.9311 8.16096 14.7101 7.52245 14.6548C7.53385 14.8095 7.70489 15.2737 7.7847 15.3842C8.08115 15.8704 10.0309 15.9146 10.6352 15.9146ZM19.7681 14.1796C19.9277 13.9696 21.0337 13.7818 21.8433 12.4446C22.0599 12.0799 22.0713 11.9804 22.0713 11.4168C22.7668 11.5716 22.5616 12.4335 22.0371 13.0082C22.0257 13.0192 22.0143 13.0303 22.0143 13.0413C21.8319 13.2513 21.8205 13.2845 21.5582 13.4723C21.0565 13.826 20.5548 14.1133 19.7681 14.1796ZM8.78807 10.4886C9.05031 9.51608 10.2133 8.66514 11.0913 8.21205C11.7526 7.86947 12.049 7.7258 12.4823 7.82526C12.4823 8.33361 12.2885 8.16785 11.6271 8.51043L10.5782 9.07404C9.91685 9.50502 9.78003 9.52712 9.22134 10.0907C9.03891 10.2675 9.0275 10.4223 8.78807 10.4886ZM6.0402 12.4446V12.7209C5.32188 12.7209 5.27628 13.0745 4.07908 13.5939C3.22393 13.9586 1.53645 14.9311 0.840927 15.6162C0.601486 15.8483 0.38485 16.0472 0.213821 16.3124C-0.310665 17.1081 -0.424683 18.0143 0.430466 18.6553C1.8101 19.7051 4.55795 19.6278 6.15422 19.6278C7.51105 19.6278 11.2167 19.0973 12.3683 18.8652C14.3066 18.4674 16.1309 18.0364 17.8982 17.4396C18.1376 17.3623 18.2859 17.307 18.5253 17.2297C19.6427 16.876 21.8889 15.9257 22.8352 15.4284C24.1465 14.7543 26.3812 13.4502 26.3812 11.8589C26.3812 11.6268 26.3242 11.4058 26.233 11.24C25.7883 10.4665 25.2638 10.4996 24.7508 10.2786C23.5079 9.73709 21.3188 9.8034 19.8821 9.94706C19.2322 10.0134 19.1182 10.1128 18.6507 10.2233C18.5367 10.0134 18.5823 10.0576 18.5139 9.81445C18.4797 9.69289 18.3999 9.54922 18.3315 9.44976C18.2517 9.3061 18.2174 9.2619 18.1262 9.10719C17.4079 7.83632 15.0819 6.37758 13.326 6.37758C11.7184 6.37758 11.7412 6.30023 10.2703 6.78647C10.0423 6.86383 9.90546 6.89698 9.70022 6.99644C9.10732 7.28376 8.3662 7.79212 7.89872 8.24521C6.78133 9.30611 6.0402 10.7759 6.0402 12.4446ZM-46.7963 51.6978C-48.6206 51.5541 -49.3161 51.311 -50.9124 50.9574C-51.2658 50.88 -51.9728 50.7363 -52.235 50.6148C-52.1438 50.228 -52.0412 49.7197 -51.9728 49.355C-51.9271 49.0898 -51.8929 48.9682 -51.8359 48.7251C-51.7903 48.504 -51.7333 48.3493 -51.7333 48.0731C-51.3456 48.0731 -50.2739 48.283 -49.7722 48.2941C-49.4871 48.2941 -49.0767 48.3272 -48.7916 48.3714L-47.2524 48.4488C-46.6367 48.4377 -46.9331 48.5262 -46.8647 49.6976C-46.8419 50.1396 -46.7963 50.217 -46.8533 50.6811C-46.8875 51.0458 -46.7963 51.3 -46.7963 51.6978ZM-31.837 52.5156C-31.837 52.2503 -31.8484 51.963 -31.837 51.6978C-31.8142 51.101 -31.7229 50.1617 -31.7229 49.4765C-31.7229 48.4267 -31.7229 47.3768 -31.7229 46.327C-31.8712 46.4375 -32.0422 46.769 -32.293 47.0232C-32.3615 47.0895 -32.3957 47.1227 -32.4527 47.189C-32.4869 47.2221 -32.4983 47.2442 -32.5325 47.2774L-33.6157 48.2388C-34.7559 49.1229 -36.2951 49.9075 -37.6063 50.5043L-39.4078 51.2558C-39.5789 51.3221 -39.7613 51.3663 -39.9095 51.4215C-43.3871 52.6703 -46.4998 52.9355 -50.1256 52.0625C-50.6843 51.9299 -51.186 51.8083 -51.7447 51.6757L-52.9533 51.3773C-55.5187 50.6921 -56.83 50.0512 -59.0077 48.935C-59.1104 50.1064 -59.2928 51.8194 -59.2928 52.9024C-58.107 52.9024 -57.0466 52.8471 -55.8152 52.8471C-55.1995 52.8471 -54.7776 52.7918 -54.1391 52.7918C-53.5576 52.7918 -52.9761 52.8029 -52.3946 52.7918C-52.064 52.7918 -51.9385 52.7366 -51.5623 52.7366L-45.5649 52.6813C-43.2389 52.6813 -41.0383 52.6261 -38.6781 52.6261C-38.0624 52.6261 -37.6405 52.5708 -37.002 52.5708L-31.837 52.5156ZM-52.6797 50.5043C-52.9419 50.4822 -54.3215 50.018 -54.675 49.8854C-55.0285 49.7528 -55.3249 49.6755 -55.667 49.5428C-55.9748 49.4213 -56.3625 49.2997 -56.6019 49.145L-56.2941 47.1558C-56.2599 46.9238 -56.3169 46.8795 -56.1345 46.8906L-53.227 47.7636C-52.9419 47.8299 -52.6683 47.8741 -52.3946 47.9404C-52.406 48.4377 -52.6797 49.786 -52.6797 50.5043ZM-33.8551 47.2442L-33.9121 47.2995L-33.8551 47.2442ZM-33.7981 47.189L-33.8551 47.2442L-33.7981 47.189ZM-56.9896 48.935C-57.172 48.924 -59.1788 47.9183 -59.2244 47.8962C-59.7375 47.5647 -59.5664 47.5426 -59.4524 46.769C-59.384 46.2938 -59.2358 45.885 -59.2358 45.3545L-56.83 46.6033C-56.83 46.9127 -56.9098 47.4432 -56.9326 47.7526C-56.9668 48.1615 -56.9896 48.4709 -56.9896 48.935ZM-33.7981 47.189C-33.7981 46.5038 -33.9121 45.4208 -34.0603 44.7799C-34.277 43.8074 -34.5164 44.2715 -33.513 43.299L-33.0456 42.8349C-33.0342 42.8238 -33 42.7907 -33 42.7796C-32.2474 41.9066 -32.2588 41.9176 -31.6317 41.0115L-31.4607 40.7904C-31.4493 41.2104 -31.13 42.1497 -31.1186 42.8017C-31.1072 44.1499 -31.3695 44.1831 -32.1562 45.2772C-32.5667 45.8629 -33.1938 46.8022 -33.7981 47.189ZM-33.9121 47.2995C-34.2086 47.2774 -34.2884 47.0564 -34.3568 46.8132L-34.9155 44.6362C-35.1549 44.7909 -35.7022 45.3324 -36.0329 45.1777C-36.1697 44.9125 -35.9303 44.6472 -35.782 44.4483L-35.0181 43.5642C-34.9269 43.4537 -34.8471 43.3874 -34.7445 43.288L-33.9577 42.426C-33.8551 42.3044 -33.7981 42.2602 -33.6955 42.1387C-33.5358 41.9397 -33.3534 41.7519 -33.1824 41.553C-32.5781 40.8236 -31.7229 39.6964 -31.6317 38.7129C-31.4949 37.3094 -31.8028 35.9832 -31.894 34.7566C-31.951 34.0714 -32.1562 33.6073 -32.3044 32.9774C-32.8289 30.8114 -33.057 28.6012 -33.342 26.3799L-34.4252 17.7049C-34.5392 17.6938 -34.6988 17.6607 -34.7901 17.6165C-34.9611 17.5391 -34.8243 17.5391 -35.0409 17.4839C-34.8471 17.7712 -34.0945 18.2464 -34.6989 19.0089C-34.9383 19.3073 -35.5654 19.8488 -35.8846 20.0808C-36.1013 20.2466 -36.2951 20.4124 -36.5346 20.5892C-36.945 20.8986 -38.1308 21.9153 -38.4615 22.0811C-38.4615 24.225 -40.3998 27.1866 -41.6084 28.9106L-43.0222 30.8003L-46.2262 34.1598C-47.7654 35.4307 -48.1759 35.8838 -50.2397 36.8894C-52.121 37.8067 -53.6716 37.9724 -55.7012 37.1768C-55.9634 37.0773 -56.1687 36.9005 -56.4993 36.8673C-56.9098 36.8231 -56.6361 36.8894 -56.9326 36.7347C-57.2176 36.58 -56.9896 36.6795 -57.286 36.7568C-57.4115 36.58 -57.4571 36.58 -57.6395 36.4474C-57.8105 36.3369 -57.8219 36.3037 -58.0044 36.2043C-57.9816 36.4806 -57.8219 36.8121 -57.7877 37.1326C-57.7079 37.9061 -58.0728 39.188 -58.3008 39.9948C-58.5973 41.0557 -59.3384 42.2271 -59.0533 43.6195C-58.9621 44.0726 -58.9963 44.1499 -58.6999 44.4152C-57.5255 45.4982 -54.7434 46.537 -53.0901 46.8574C-52.0298 47.0674 -49.0881 47.4653 -47.9251 47.4984C-47.7312 47.5095 -47.5032 47.4874 -47.3094 47.4984C-47.0927 47.5205 -47.0699 47.5537 -46.8077 47.5537C-45.6333 47.5647 -44.6185 47.5868 -43.4669 47.4211C-41.8364 47.189 -40.4112 46.7138 -38.8605 46.2386C-38.5527 46.1391 -37.3669 45.7302 -37.059 45.8628C-36.5003 46.3933 -40.092 47.5868 -40.4226 47.6531C-40.4226 47.9957 -40.2516 49.366 -40.2516 49.8744C-40.2516 50.0512 -40.32 50.4822 -40.1832 50.5485C-40.0349 50.6258 -37.6633 49.576 -37.3327 49.3992C-36.5688 49.0345 -34.391 47.9957 -33.9121 47.2995ZM-33.1254 16.6771C-33 16.5003 -32.7605 16.3898 -32.5781 16.224C-32.4527 16.1135 -32.4527 16.1025 -32.3044 15.992C-32.1676 15.8925 -32.1334 15.8262 -31.9966 15.7488V16.4561C-32.3615 16.4893 -32.7605 16.6661 -33.1254 16.6771ZM-15.6462 15.3731L-16.2733 14.8427C-16.49 14.6548 -16.6382 14.4338 -16.8777 14.2901L-16.0795 13.0082C-15.9427 12.7872 -15.8173 12.5883 -15.669 12.3672C-15.5322 12.1573 -15.3726 11.9362 -15.3156 11.6821C-14.8709 11.9694 -14.4719 12.312 -14.0272 12.6104C-14.0842 12.8093 -14.3122 13.1187 -14.4376 13.2955C-14.6657 13.627 -15.5664 15.0526 -15.6462 15.3731ZM-17.2083 13.7928C-17.6416 13.7597 -17.4021 13.5165 -17.938 13.5165C-18.0635 13.5165 -18.2231 13.6602 -18.2231 13.7928C-18.2231 14.2901 -16.8891 15.6494 -16.2277 16.0362C-15.9085 16.224 -14.1982 17.3844 -14.1982 16.6661C-14.1982 16.434 -14.9393 15.9036 -15.156 15.793C-14.8139 15.1631 -13.7307 13.7597 -13.3659 13.0745C-13.1264 13.1297 -12.887 13.3066 -12.6703 13.4281C-12.4195 13.5718 -12.2029 13.7044 -11.9634 13.837C-12.4423 14.71 -13.8675 16.4672 -13.8675 16.9866C-13.8675 17.2407 -13.6053 17.2407 -13.4229 17.1523C-13.4229 18.5448 -13.7763 19.2631 -14.392 20.4455C-14.8367 21.2965 -16.1593 22.5342 -16.9119 23.153L-20.3552 25.7832C-21.5182 26.623 -24.7222 28.3139 -26.0904 28.8111C-27.5156 29.3195 -29.1575 29.5184 -30.731 29.2421C-31.0274 29.1869 -31.4151 29.0322 -31.6887 29.0322L-32.1106 26.2363C-32.1562 25.96 -32.1106 25.7058 -32.236 25.4848L-32.2816 25.4185C-32.5895 24.888 -32.7491 18.158 -33.0912 17.4618C-30.7994 16.9424 -31.2441 16.8871 -31.2441 15.561C-31.2441 15.34 -30.959 15.4726 -30.1837 15.0747C-30.1495 15.4394 -29.9328 16.1688 -29.8188 16.5114L-28.8497 19.2078C-28.7356 19.4951 -28.348 20.2798 -28.348 20.5671C-28.519 20.6113 -28.4962 20.6444 -28.6672 20.755C-28.9751 20.9649 -29.8986 21.5506 -30.1381 21.7716C-30.2521 21.8822 -30.8906 22.8657 -29.3057 21.9816C-29.0435 21.838 -28.7812 21.7164 -28.5076 21.5617C-26.2614 20.3571 -25.0528 19.1305 -23.411 17.5391C-23.2627 17.4065 -23.2513 17.3623 -23.1259 17.2186C-22.8409 16.8981 -21.0394 15.0416 -20.6973 14.7874C-20.1728 14.3896 -20.1842 14.3564 -19.5685 14.0912C-19.1352 13.9033 -19.3861 13.8923 -19.101 13.8923C-18.5765 13.8923 -18.8844 14.0801 -18.5651 13.4944C-18.2915 12.9971 -18.4055 13.0524 -17.9494 12.3009L-17.1057 10.9969C-16.9803 10.8422 -16.8549 10.7759 -16.7978 10.588C-16.0453 10.7538 -16.7636 10.6764 -15.8971 11.24C-16.0225 11.4279 -16.1251 11.6158 -16.2391 11.8257C-16.3532 12.0247 -16.4672 12.2346 -16.5812 12.4667C-16.718 12.7872 -17.1399 13.5165 -17.2083 13.7928ZM-7.6307 9.2398L-5.8976 8.10154C-5.60115 8.10154 -5.61256 8.09049 -5.45293 8.32256C-5.78359 8.79775 -7.0492 9.10719 -7.6307 9.2398ZM-38.6097 8.04628L-38.9176 9.10719C-39.1798 10.1128 -39.3166 11.66 -39.7841 12.4998C-40.5024 12.4998 -40.6849 12.533 -41.1409 12.8093C-41.5742 13.0745 -43.4669 14.7874 -43.8318 15.141C-45.4281 16.6882 -44.4931 15.8483 -46.249 16.865C-46.4542 16.9866 -46.5682 17.0529 -46.7621 17.1855L-47.469 17.7491C-48.3812 18.5227 -49.6582 20.125 -50.4107 21.0312C-50.4905 21.1307 -50.5361 21.1528 -50.6159 21.2633L-53.0559 24.2692C-53.2384 24.4902 -53.6032 25.0759 -53.8883 25.1533C-53.8883 24.4791 -54.903 19.7051 -55.1539 18.7768C-55.2109 18.5669 -55.2451 18.39 -55.2907 18.2022L-55.7582 16.5335C-55.952 15.9478 -56.5335 16.003 -56.5335 16.6329C-56.5335 17.2297 -56.2713 18.2022 -56.1459 18.81L-55.7468 20.976C-55.6214 21.7053 -55.4959 22.4237 -55.3477 23.142C-55.1653 24.0261 -55.0285 24.9212 -54.7548 25.7611C-54.5838 26.2694 -54.675 26.2252 -54.9715 26.612L-55.838 27.7281C-56.3625 28.4023 -58.8025 31.375 -58.3122 31.9607C-58.1412 32.1596 -57.8903 32.0933 -57.7079 31.9386C-57.6167 31.8612 -57.5825 31.7949 -57.5141 31.6955C-57.3773 31.5076 -57.2632 31.386 -57.1264 31.1982L-55.6214 29.1758C-55.1425 28.5901 -54.4242 27.7613 -54.0365 27.1866C-53.5348 26.4573 -52.2464 24.9212 -51.6307 24.2029C-51.357 23.8824 -51.0834 23.5619 -50.8326 23.2414L-48.0049 19.8488C-47.8567 19.672 -47.7198 19.5504 -47.583 19.3846C-46.9445 18.5669 -46.021 17.9148 -45.1544 17.3402C-44.9378 17.1965 -44.7553 17.1192 -44.5615 16.9976C-44.5615 17.9922 -43.8888 19.0199 -43.2617 19.7051L-42.7942 20.1803C-42.1671 20.6886 -41.1865 21.3296 -40.2972 21.1307C-40.3314 20.7881 -40.7989 20.5671 -41.0611 20.4124C-41.2207 20.3129 -41.2664 20.2466 -41.4146 20.2135C-41.3576 20.0256 -41.2778 19.9924 -41.1295 19.8819C-40.9927 19.7825 -40.8901 19.6941 -40.7875 19.5614C-40.5936 19.3294 -38.929 17.5612 -39.2368 17.4175C-39.4877 17.296 -40.5366 18.2353 -40.7305 18.4232C-41.0497 18.7326 -41.825 19.4067 -42.0303 19.7162C-42.5206 19.3957 -42.931 18.8652 -43.2047 18.3569C-42.874 18.1469 -42.5434 17.7712 -42.2811 17.4618L-42.1785 17.3402C-41.7338 16.8429 -40.8331 15.9809 -40.6849 15.3621C-41.654 15.3621 -43.0222 17.4949 -43.6037 17.6386C-43.8888 16.4561 -43.6266 17.1302 -43.7064 16.7545C-43.7292 16.655 -43.7976 16.6108 -43.8318 16.4451C-43.4213 16.2351 -43.4555 16.0251 -43.0679 15.7157C-42.9994 15.6604 -43.0108 15.6715 -42.9424 15.6162L-42.0189 14.8316C-41.597 14.4669 -40.5252 13.5276 -40.0121 13.406C-40.0121 14.8206 -39.6587 16.2572 -38.5071 17.1634C-38.2791 17.3402 -37.6405 17.7049 -37.4923 17.9148C-37.7318 18.2574 -38.4615 18.7105 -38.7921 19.0973C-38.9518 19.2852 -39.4078 19.8488 -38.8719 19.9372C-38.5071 20.0035 -38.1194 19.5172 -37.9028 19.3073L-37.2415 18.6442C-36.9792 18.3679 -37.4467 18.8652 -37.1845 18.589L-36.8196 18.2353C-36.5574 18.2906 -36.5118 18.3569 -36.2153 18.4121C-35.9417 18.4563 -35.7706 18.4895 -35.7592 18.1248C-35.9303 18.0917 -35.9759 18.0364 -36.0899 17.959C-35.9987 17.8375 -35.896 17.7601 -35.7022 17.738C-35.6794 17.9701 -35.4628 18.2022 -35.3716 18.39C-35.5084 18.4784 -35.5426 18.5337 -35.668 18.6442C-36.1355 19.0973 -36.9906 19.6941 -37.5265 20.1029C-37.6861 20.2245 -37.709 20.2687 -37.8572 20.3792L-38.6895 21.197C-38.7351 21.2522 -38.7807 21.2965 -38.8263 21.3407C-38.8948 21.407 -38.8491 21.3628 -38.9176 21.418C-38.9746 21.4512 -38.9404 21.4291 -39.0202 21.4843C-39.2824 21.6722 -39.4534 22.7773 -39.6245 23.1199L-41.597 26.7667C-41.6768 26.8883 -41.7452 26.9656 -41.825 27.0982C-42.6232 28.347 -43.5353 29.5074 -44.4703 30.6677C-44.6413 30.8777 -44.8352 31.0766 -45.0176 31.2755L-46.1122 32.4469C-46.249 32.5795 -46.2832 32.5906 -46.42 32.7011L-47.3208 33.5078C-47.4462 33.6294 -47.469 33.6515 -47.6172 33.762C-47.697 33.8172 -47.697 33.8283 -47.7654 33.8836L-49.2249 34.9666C-49.3503 35.055 -49.4301 35.1102 -49.5555 35.1876C-49.6924 35.276 -49.8064 35.3202 -49.9432 35.4086C-52.4972 36.9668 -54.1391 36.8784 -56.6931 35.3975C-57.001 35.2207 -57.3317 35.0108 -57.6053 34.8229L-60.7978 31.3971C-61.3109 30.6014 -61.7898 28.3249 -61.9722 27.4298L-62.3827 24.888C-62.5081 24.0592 -62.5195 23.0425 -62.6335 22.2026L-62.873 18.8542L-62.759 16.7324C-62.7476 14.8648 -62.5309 12.6435 -61.0601 11.4389C-59.8287 10.4333 -57.0694 9.18454 -55.5872 8.38887C-55.4959 8.34467 -55.4275 8.30046 -55.3363 8.25626C-55.0285 8.09049 -54.3672 7.68161 -54.0365 7.67056C-53.8313 8.54358 -53.2954 8.64304 -52.4972 8.95247C-50.7071 9.64868 -48.8828 10.2675 -46.9217 10.4444C-46.0552 10.5217 -45.3596 10.5659 -44.4931 10.4554C-43.4099 10.3228 -42.589 10.0907 -41.6084 9.65974C-41.0953 9.43872 -40.434 9.11824 -40.0578 8.77565L-39.7613 8.46623C-39.5105 8.22311 -38.5641 7.02959 -39.4078 7.01854C-39.4648 7.25061 -39.9323 7.74791 -40.1376 7.89157C-40.0007 7.31692 -40.1946 6.70911 -40.1946 6.15656C-39.4306 6.15656 -38.7351 6.37758 -38.0054 6.37758C-38.0396 6.44389 -38.051 6.48809 -38.0852 6.56545C-38.1194 6.64281 -38.1536 6.68702 -38.1992 6.78647C-38.2905 6.96329 -38.3361 7.05169 -38.4273 7.21746C-38.8605 7.95788 -38.6097 7.95788 -38.6097 8.04628ZM-35.0865 4.67572C-34.8471 4.67572 -34.8585 4.63152 -34.5848 4.62047C-33.9691 4.59837 -33.5587 4.4547 -32.9087 4.4547C-32.9087 4.76413 -32.7719 5.90239 -32.6807 6.0792C-33.0684 6.16761 -33.456 6.25602 -33.8209 6.38863C-34.0261 6.46599 -34.163 6.49915 -34.3568 6.5765C-34.5164 6.64281 -34.7445 6.74227 -34.9269 6.78647L-35.0865 4.67572ZM-36.7626 3.70324C-36.5574 3.65903 -36.3635 3.59273 -36.1469 3.53747C-36.1469 3.78059 -36.0671 4.22264 -36.0443 4.46576C-35.9074 5.53771 -36.2039 5.00726 -35.8846 6.32233C-35.8048 6.63176 -35.7706 6.94118 -35.7022 7.23956C-35.896 7.28377 -36.1811 7.46058 -36.3179 7.57109C-36.4433 7.6816 -37.059 8.32256 -36.4319 8.32256L-35.5312 7.83632C-34.4366 7.28377 -31.0958 5.88029 -30.6056 7.94683C-30.6056 7.94683 -31.9624 7.22851 -31.6773 7.94683C-31.6089 8.12365 -31.5063 8.18995 -31.3581 8.30046C-31.2099 8.41097 -31.1757 8.45518 -31.0274 8.57674C-30.4231 9.02983 -29.6592 9.58238 -29.6592 10.4002C-30.1495 10.0797 -30.0241 10.1128 -30.6056 9.84761C-30.7082 9.8034 -30.6968 9.79235 -30.8222 9.72604C-31.4721 9.38346 -31.8826 9.68184 -31.1643 10.2233C-30.674 10.588 -30.0127 10.9085 -29.7504 11.3505C-29.6022 11.5937 -29.4654 12.0247 -29.4312 12.3451C-29.6364 12.2899 -30.6512 11.4168 -31.0046 11.4168C-31.1529 11.4168 -31.1643 11.4389 -31.2897 11.4721C-31.4949 12.3451 -29.7732 12.7872 -29.7732 13.5939C-29.7732 13.6823 -29.9442 13.9144 -29.9899 13.9807C-30.1267 14.1685 -30.7994 14.6769 -31.0616 14.7432C-30.8678 14.3896 -30.5029 14.0138 -30.5029 13.4944C-30.788 13.5055 -30.959 13.6934 -31.2441 13.9696C-31.4721 14.1907 -31.6545 14.3785 -31.8826 14.5995L-32.065 14.7542C-32.0764 14.7653 -32.0878 14.7764 -32.0992 14.7764C-32.1106 14.7874 -32.122 14.7985 -32.1334 14.7985C-33 15.5057 -33.8095 16.1798 -34.9041 16.6661C-36.0785 17.1965 -35.6338 16.9645 -36.5574 17.5612C-36.9678 17.3512 -38.1422 16.3235 -38.3817 16.0141C-38.8035 15.4947 -39.4078 14.2901 -39.4078 13.6492L-38.8948 12.5662C-38.4159 11.2842 -38.2448 9.83655 -37.8686 8.77565C-37.5721 7.92473 -38.051 8.14575 -37.3669 6.93013C-36.3749 5.21723 -36.7626 5.06251 -36.7626 3.70324ZM-52.5657 3.20594C-52.5657 2.98492 -52.4516 2.80811 -52.4516 1.90192C-53.0331 2.03453 -54.1277 2.53183 -54.1277 3.20594C-54.1277 4.12318 -54.0593 4.31104 -53.8769 5.19513C-53.6488 6.31128 -53.5348 6.45494 -53.1015 7.31692C-52.7481 8.01313 -51.8929 8.02419 -51.2658 8.31151L-51.7219 7.17326C-51.8131 6.91909 -52.007 6.27813 -51.9842 5.9245C-51.9613 5.54876 -51.7789 4.98516 -51.3456 5.07357C-50.7185 5.19513 -51.1746 6.14551 -50.6957 7.53794C-50.6159 7.74791 -50.3879 8.52148 -50.2283 8.60989C-50.0344 8.70935 -47.9593 9.11824 -47.6172 9.12929C-47.64 8.87511 -48.2329 7.75896 -48.2329 7.118C-48.2329 6.81963 -48.2101 6.14552 -47.7882 6.14552C-47.2752 6.14552 -47.3778 6.36654 -47.3322 6.84173C-47.2638 7.47164 -47.0129 8.79776 -46.6709 9.29506C-46.2946 9.29506 -45.9981 9.29505 -45.7017 9.33926C-45.4395 9.37241 -45.1658 9.29506 -44.8237 9.29506C-44.8237 9.29506 -45.9981 6.68701 -44.8237 6.68701C-44.1624 6.68701 -44.3791 7.82527 -43.7064 9.18454C-42.9994 9.12929 -41.2778 8.25625 -41.0725 8.21205C-41.0725 7.47163 -40.8445 7.51583 -41.0383 6.27812C-41.1067 5.81398 -41.1295 5.41615 -41.369 4.97411C-41.6768 4.42155 -42.2469 4.27789 -42.931 4.14528L-44.2651 3.869C-44.1282 4.42155 -43.866 4.66467 -43.5923 5.06251C-43.0793 5.06251 -42.703 4.89675 -42.3039 4.99621C-42.1443 5.04041 -42.0189 5.06251 -42.0075 5.22828V5.29459C-42.1215 5.72557 -43.3643 6.09026 -43.98 6.09026C-46.6367 6.09026 -46.9103 5.91344 -49.3161 5.18407C-49.6696 5.07357 -50.0002 4.9962 -50.3309 4.86359C-51.6877 4.29999 -51.1746 4.48786 -52.2578 3.85796C-52.463 3.73639 -52.5657 3.43801 -52.5657 3.20594ZM-7.91574 1.84667C-7.47107 1.94613 -7.01499 2.06769 -6.57032 2.16715C-6.69574 2.35502 -7.24303 2.7639 -7.44827 2.94072C-7.60789 3.08438 -7.56228 3.08438 -7.80172 3.13964C-7.80172 2.7639 -7.91574 2.23346 -7.91574 1.84667ZM-4.78022 1.6367C-4.1189 1.29412 -3.82246 1.44883 -3.82246 2.23346L-4.39256 2.02348C-4.86003 1.89087 -4.62059 1.96823 -4.78022 1.6367ZM-35.5882 1.24991L-35.3031 3.31645C-35.2575 3.48222 -35.2005 3.7806 -35.1891 3.96846C-34.676 3.8469 -34.1059 3.7585 -33.5359 3.67009C-32.7035 3.53748 -30.8336 3.40486 -30.4345 2.92967C-30.2293 2.6755 -29.9785 1.96823 -29.9785 1.52619L-31.3809 1.41568C-31.6659 1.40462 -31.7344 1.36042 -32.0536 1.36042C-32.293 1.36042 -32.5553 1.37147 -32.7833 1.36042L-35.5882 1.24991ZM-3.43479 1.36042C-3.02432 2.12294 -3.5032 3.31645 -3.83386 3.8469L-4.84863 5.25038C-5.2933 5.68137 -5.63536 6.0129 -6.17125 6.35548C-6.4563 6.54335 -7.97275 7.62635 -8.02976 7.05169C-8.05257 6.83067 -8.05256 6.96329 -7.60789 6.65386C-7.37985 6.48809 -7.18602 6.36653 -6.93518 6.22287C-6.55892 6.00185 -5.94321 5.55981 -5.63536 5.25038C-5.09947 4.71993 -3.95928 3.2833 -3.93648 2.49868H-4.60919C-4.60919 3.2391 -4.93984 3.69219 -5.2933 4.11213C-5.92041 4.83044 -7.45967 6.035 -8.28061 6.37758C-8.64547 6.5323 -9.14715 6.77542 -9.53482 6.56545C-9.51201 6.24497 -9.39799 6.25602 -8.91911 6.0792C-7.6763 5.60401 -5.2819 3.76955 -5.16788 2.44343C-5.68097 2.33292 -5.55555 2.24451 -6.04583 2.73075C-6.69574 3.37171 -7.1062 3.63693 -7.51667 4.02372C-7.81313 4.31105 -7.6877 4.13423 -7.94995 4.31104C-8.61126 4.75308 -8.13238 4.45471 -8.55425 4.64257L-9.22696 4.96305C-10.0479 5.33879 -11.2337 5.59296 -12.1573 6.18972C-12.0774 6.30022 -11.8266 6.48809 -11.7126 6.56545C-11.5301 6.68702 -11.4161 6.77542 -11.2337 6.91909C-11.0627 7.0517 -10.9259 7.15116 -10.7776 7.28377C-10.675 7.38323 -10.2987 7.64845 -10.6522 7.64845C-11.1995 7.64845 -12.3967 6.87488 -12.7844 6.62071C-13.1036 6.83068 -13.3203 7.14011 -13.5825 7.41638C-14.3806 8.27836 -14.5517 9.49397 -15.1902 10.4223C-15.0875 10.4886 -14.9621 10.5991 -14.8481 10.6875C-14.5631 10.9085 -14.6543 10.9859 -13.993 11.4832C-13.7193 11.6931 -12.8642 12.323 -12.6133 12.3783L-11.4845 11.0301C-9.15855 8.8088 -9.07874 9.11824 -6.57032 7.31692C-6.19405 7.04065 -6.21686 6.99644 -5.69237 6.65386C-5.36171 6.43284 -5.11087 6.13446 -4.80302 5.89134C-4.79162 5.88029 -4.75741 5.85819 -4.74601 5.84714C-4.33554 5.50455 -3.67423 4.76414 -3.41198 4.37735C-2.77348 3.43802 -2.76207 3.09543 -2.76207 2.02348C-2.76207 1.21676 -3.22956 1.36042 -3.43479 1.36042ZM-20.6289 -7.5909C-20.5149 -7.5909 -20.4351 -7.51354 -20.3552 -7.48039C-20.2412 -7.42513 -20.1728 -7.40303 -20.0588 -7.33672C-18.8502 -6.65156 -19.1238 -4.17613 -20.1272 -4.17613C-20.5947 -4.17613 -20.8683 -4.23139 -21.2218 -4.73974C-21.4156 -5.02706 -21.5524 -5.3807 -21.5866 -5.80063C-21.6323 -6.34213 -21.5638 -6.99414 -21.1192 -7.35882C-21.0165 -7.44723 -20.7885 -7.5909 -20.6289 -7.5909ZM-22.362 -6.13216C-22.362 -6.96099 -21.9515 -7.32567 -21.6893 -7.70141C-22.2137 -7.69036 -24.973 -6.72892 -26.0448 -6.71787C-26.079 -6.05481 -26.1588 -5.43595 -26.0676 -4.80604C-26.0334 -4.56292 -26.0562 -4.3419 -26.022 -4.08773C-25.9878 -3.8225 -25.965 -3.65674 -25.9308 -3.41361C-25.8966 -3.19259 -25.8282 -3.01578 -25.8282 -2.75055C-25.5773 -2.77266 -25.7255 -2.7616 -25.5317 -2.85001C-24.9844 -3.09313 -22.3506 -3.76725 -21.5638 -3.94406C-22.0769 -4.68448 -22.362 -4.79499 -22.362 -6.13216ZM-51.1632 -9.00543C-51.1632 -8.46393 -51.0378 -8.11029 -50.8668 -7.71246C-50.6843 -7.28147 -50.5133 -7.0936 -50.1941 -6.78417C-49.852 -6.45264 -49.681 -6.33108 -49.2477 -6.13216C-48.461 -5.76748 -47.2524 -5.77853 -46.4656 -6.13216C-46.0666 -6.30898 -45.9867 -6.37529 -45.6789 -6.61841L-45.0404 -7.24831C-44.6869 -7.73456 -44.3791 -8.50813 -44.3791 -9.16014C-44.208 -9.20435 -43.7292 -9.2596 -43.5353 -9.27065C-43.4441 -8.18765 -42.7714 -7.35883 -41.9961 -6.90574C-41.4944 -6.60736 -41.1637 -6.5742 -40.4682 -6.48579C-40.1376 -6.44159 -39.5447 -6.54105 -39.2026 -6.65156C-39.0202 -6.70682 -39.0088 -6.73997 -38.8263 -6.78417L-38.9518 -5.39174C-39.2254 -3.46887 -40.1946 -0.927135 -41.8136 0.24427C-42.4408 0.697365 -43.5011 1.23886 -44.2537 1.23886C-45.3596 1.23886 -48.2101 0.0121994 -49.1337 -0.496147C-49.3959 -0.639811 -49.4187 -0.739269 -49.6924 -0.882933C-50.2625 -0.595606 -50.0344 -0.308279 -49.6354 0.476345C-49.4415 0.841026 -49.3389 0.984688 -49.0881 1.30517C-48.8714 1.59249 -48.6662 1.75826 -48.4154 2.01243C-47.5374 2.86336 -46.8191 3.11754 -45.6333 3.38276C-45.1658 3.49327 -45.4395 3.76955 -44.8237 4.60942C-44.7211 4.75309 -44.5843 4.85255 -44.5387 5.04041C-46.2376 5.04041 -46.7849 4.98515 -48.5294 4.56522C-49.2591 4.3884 -49.9774 4.22264 -50.6273 3.88006C-50.7756 3.8027 -50.8326 3.74744 -50.9694 3.67009C-51.3456 3.44907 -51.4027 3.69219 -51.7105 3.25015L-51.3799 1.23886C-51.3685 0.918385 -51.3228 0.829975 -51.3228 0.476345C-51.3228 -0.938187 -51.7789 -2.94947 -52.6797 -4.13193C-52.9533 -4.48556 -53.0331 -4.51871 -53.398 -4.51871C-53.6944 -4.51871 -53.3866 -3.96616 -55.553 -4.3861C-56.0432 -4.48556 -56.3625 -4.66238 -56.716 -4.8834C-57.6167 -5.4691 -58.05 -5.93325 -58.05 -7.0715C-58.05 -8.05504 -56.944 -9.2375 -55.4161 -8.65179C-55.2451 -8.58549 -54.846 -8.40867 -54.7092 -8.29816C-54.6636 -8.26501 -54.5154 -8.08819 -54.4698 -8.03294C-54.2531 -7.76771 -54.0251 -6.87258 -53.5234 -7.25937C-53.227 -7.49144 -53.4778 -8.24291 -53.4436 -8.48603C-53.4208 -8.696 -53.4208 -8.66285 -53.2156 -8.70705L-51.9271 -8.87281C-51.6991 -8.88387 -51.4141 -8.98333 -51.1632 -9.00543ZM-47.7426 -6.39739C-48.6662 -6.39739 -49.1337 -6.62946 -49.7038 -7.15991C-50.7527 -8.12135 -50.7641 -9.8674 -49.7152 -10.9725L-48.974 -11.503C-46.8191 -12.597 -44.3905 -10.1989 -45.3824 -8.02188C-45.6675 -7.41408 -46.0552 -6.97204 -46.6709 -6.66261C-46.9673 -6.53 -47.298 -6.39739 -47.7426 -6.39739ZM-37.937 -8.51918C-37.88 -9.12699 -37.823 -9.67954 -37.823 -10.3647C-37.7204 -10.2984 -37.6519 -10.3094 -37.6519 -9.8232C-37.6633 -9.43642 -37.6405 -8.72915 -37.937 -8.51918ZM-28.5304 -9.65744C-28.7698 -9.60218 -28.9295 -9.43642 -29.1461 -9.32591C-30.8678 -8.46393 -31.4037 -8.06609 -33.456 -7.25937C-33.8893 -7.0936 -34.3454 -6.93888 -34.8357 -6.80627C-35.3944 -6.65156 -35.611 -6.65156 -36.1355 -6.27583C-37.6861 -5.15967 -38.1992 -1.00449 -36.3179 0.133762C-36.0329 0.310577 -35.2917 0.564751 -34.9041 0.553699C-34.2884 0.553699 -33.6727 0.553699 -33.057 0.553699L-30.3661 0.664207C-29.5794 0.68631 -28.234 0.929432 -27.9603 0.940483L-28.5418 -0.175665C-29.1119 -1.47968 -29.2373 -2.03224 -29.4768 -3.39151C-29.7732 -5.02706 -29.5224 -7.01624 -29.0093 -8.49708C-28.8725 -8.95017 -28.5646 -9.49167 -28.5304 -9.65744ZM-40.1262 -7.0494C-40.7989 -7.0494 -41.4374 -7.29252 -41.9049 -7.71246C-42.1215 -7.91138 -42.2925 -8.12135 -42.4522 -8.38657C-43.1705 -9.62428 -42.646 -11.1714 -41.2321 -11.8124C-40.32 -12.2323 -39.4192 -12.0776 -38.6211 -11.5582C-38.6211 -11.0499 -38.5071 -10.6078 -38.5755 -10.1105C-38.6211 -9.7569 -38.6439 -9.07173 -38.6667 -8.68495C-38.7009 -8.12134 -38.6667 -7.59089 -38.9176 -7.41408C-39.1684 -7.23726 -39.7271 -7.0494 -40.1262 -7.0494ZM-25.5545 -11.3924C-25.6115 -11.1714 -26.3412 -10.1105 -26.7403 -8.35341C-26.9455 -7.42513 -27.2192 -5.69012 -27.0596 -4.45241C-26.9798 -3.87776 -26.9113 -3.18154 -26.7631 -2.62899C-26.6833 -2.31956 -26.6263 -2.10959 -26.5465 -1.81122C-26.3298 -1.0929 -26.2044 -0.882933 -25.9536 -0.264076C-25.851 -0.00990295 -25.7141 0.211117 -25.5773 0.454239L-24.7336 1.74721C-24.9958 1.62564 -25.3835 1.52619 -25.7027 1.43778C-27.014 1.0731 -26.7859 1.38253 -27.3902 0.520546C-27.5726 0.24427 -27.7437 0.0121994 -27.8919 -0.297228C-28.1884 -0.893982 -28.4164 -1.50179 -28.5874 -2.1759C-28.747 -2.7837 -28.9295 -3.76725 -28.9409 -4.3861C-28.9637 -6.35318 -28.7584 -8.26501 -27.8349 -9.66849C-27.3104 -10.4531 -27.5498 -10.2542 -26.8429 -10.6631L-25.5545 -11.3924ZM-43.5467 -9.71269C-44.5615 -9.71269 -44.3791 -9.62428 -44.5501 -10.1989C-44.6071 -10.3868 -44.6869 -10.5747 -44.7781 -10.7404C-45.1658 -11.514 -45.6447 -11.9118 -46.4314 -12.2323C-47.0813 -12.4975 -46.6595 -12.3539 -47.298 -12.4202C-47.9479 -12.4865 -48.2671 -12.4975 -48.9854 -12.2213C-50.901 -11.4809 -50.9238 -10.0884 -51.1632 -9.60218L-52.9419 -9.52482C-53.3296 -9.46957 -53.3182 -9.51377 -53.17 -9.85635C-52.6797 -11.072 -52.1096 -11.6024 -50.8782 -12.1992L-49.6012 -12.7628C-48.7916 -13.1054 -47.8909 -13.459 -47.4234 -14.2878C-47.241 -14.5972 -46.8761 -15.1829 -46.8419 -15.5697H-46.7279C-46.6937 -15.4371 -46.5796 -15.3156 -46.4884 -15.205C-45.9411 -14.5972 -45.5535 -14.2989 -44.6869 -13.9673C-43.2161 -13.4037 -43.1363 -13.47 -41.6084 -13.2601C-41.0611 -13.1827 -40.5252 -13.1827 -40.0121 -13.0169L-39.5561 -12.807C-40.3428 -12.8954 -40.6621 -12.8733 -41.4488 -12.586C-42.5434 -12.1881 -43.5467 -10.873 -43.5467 -9.71269ZM21.3302 -14.7077C21.3302 -16.288 21.638 -17.57 22.4704 -18.8077L23.7702 -20.2664C23.7816 -20.2775 23.793 -20.2885 23.8044 -20.2885C24.5341 -20.9184 24.6367 -20.7306 24.9902 -21.0952C25.5603 -21.6699 27.3732 -22.0346 28.559 -22.0346C30.9876 -22.0346 32.8461 -20.6863 33.8267 -18.7745C34.9897 -16.498 34.317 -13.238 32.4927 -11.4809C30.6341 -9.69059 28.2283 -8.68495 25.5261 -9.42537C25.0358 -9.55798 25.2524 -9.55798 24.9902 -9.66849C24.6481 -9.81215 24.8648 -9.66849 24.4201 -9.93371C24.021 -10.1768 24.4657 -9.69059 23.4509 -10.4531C22.2537 -11.3703 21.3302 -13.1164 21.3302 -14.7077ZM-55.4161 -11.4477C-55.2223 -11.514 -55.3819 -11.4366 -55.2337 -11.5914L-54.7092 -12.0555C-54.447 -12.2655 -54.2531 -12.4533 -53.9909 -12.6633L-52.8507 -13.5142C-52.7139 -13.6248 -52.5999 -13.68 -52.463 -13.7905C-51.9614 -14.1884 -51.3913 -14.4867 -50.8782 -14.8625C-50.4563 -15.1719 -49.7038 -15.5808 -49.7038 -16.277C-49.9774 -16.2107 -50.2055 -15.846 -50.4221 -15.6692C-51.4597 -14.7741 -52.5999 -15.0503 -54.4242 -13.039C-54.6408 -12.807 -54.8004 -12.5639 -55.0057 -12.2986C-55.1653 -12.0887 -55.4161 -11.7682 -55.4161 -11.4477ZM-40.8559 -15.5255C-41.0041 -15.8018 -41.2664 -16.1002 -41.5172 -16.2991C-41.768 -16.498 -42.0075 -16.7411 -42.3267 -16.8627C-42.7144 -17.0174 -43.6037 -17.2826 -44.037 -17.2605C-44.5729 -17.2274 -44.4817 -17.1832 -44.5501 -17.1058C-43.98 -17.1058 -43.1021 -16.5754 -42.6004 -16.3875C-41.9619 -16.1333 -41.5628 -15.6802 -40.8559 -15.5255ZM-55.7012 -14.3873C-55.5302 -14.4315 -54.8004 -15.1829 -54.2531 -15.5366C-54.0707 -15.6581 -53.9567 -15.7576 -53.7743 -15.8902C-52.6797 -16.6859 -51.9385 -16.5975 -51.9385 -17.4816C-52.235 -17.4816 -52.4858 -17.4152 -52.6797 -17.3268C-52.8849 -17.2384 -53.0445 -17.15 -53.2156 -17.0395L-54.1961 -16.3101C-54.3786 -16.1444 -54.4356 -16.0228 -54.618 -15.846C-54.8916 -15.5697 -55.6214 -14.7188 -55.7012 -14.3873ZM-55.2565 -17.3158C-55.0285 -18.2551 -53.1357 -18.9071 -53.3866 -18.2772C-53.4664 -18.0783 -53.8883 -17.9789 -54.1847 -17.8462L-55.2565 -17.3158ZM-45.9525 -18.9403C-45.6675 -18.9403 -45.6447 -18.9955 -45.3368 -18.9955C-43.8318 -18.9955 -43.0222 -18.9734 -41.6654 -18.6419C-41.0497 -18.4872 -40.7761 -18.5314 -40.1034 -18.1004C-38.9632 -17.371 -39.328 -17.5147 -38.6439 -17.0174C-38.4387 -16.8627 -37.9826 -16.3101 -37.8002 -16.0891C-37.6747 -15.9234 -37.2643 -15.5034 -37.0933 -15.415C-37.0933 -15.9455 -37.2187 -16.5312 -37.6063 -16.8737C-37.6063 -16.8737 -37.6747 -16.9401 -37.6976 -16.9511L-38.1764 -17.3489C-38.3019 -17.4484 -38.4045 -17.4926 -38.5299 -17.6031C-39.4534 -18.3214 -39.5561 -18.4982 -40.7989 -18.9845C-41.4032 -19.2166 -41.8593 -19.4928 -42.6916 -19.4928C-43.2161 -19.4928 -45.7701 -19.6255 -45.9525 -18.9403ZM-49.6468 -19.9238C-49.5898 -20.1227 -49.2591 -20.3548 -49.0425 -20.5316C-48.6434 -20.8411 -48.1759 -21.1394 -47.6742 -21.2721C-47.4804 -21.3273 -47.1497 -21.3715 -46.9559 -21.3826C-46.3972 -21.4268 -46.477 -21.4599 -46.2262 -21.4931C-44.8237 -21.6367 -43.1249 -21.3715 -41.7794 -21.04C-41.5514 -20.9847 -40.2402 -20.4101 -40.0806 -20.2443C-39.9665 -20.1338 -39.7727 -19.8686 -39.7385 -19.7139C-39.9437 -19.7581 -40.0806 -19.8575 -40.2858 -19.9349C-40.4682 -20.0012 -40.6392 -20.0675 -40.8331 -20.167C-41.1979 -20.3438 -41.6654 -20.4432 -42.0417 -20.5758C-42.8626 -20.8742 -42.3495 -20.7637 -43.3187 -20.9184C-44.8009 -21.1615 -44.5615 -21.1836 -46.1806 -21.0731C-46.7621 -21.0289 -47.583 -20.7858 -48.1417 -20.5869C-48.2899 -20.5316 -48.1987 -20.5648 -48.3013 -20.5206L-49.6468 -19.9238ZM-11.553 -16.3875C-11.2907 -16.3875 -11.1425 -16.4538 -10.9373 -16.498C-10.7434 -16.5422 -10.5724 -16.5533 -10.3558 -16.5864C-8.04117 -16.9401 -5.78358 -19.0176 -5.78358 -21.6036C-5.78358 -22.8523 -6.77555 -24.7973 -7.57368 -25.0404C-7.92714 -25.151 -7.68771 -25.151 -8.18939 -25.4604C-9.28397 -26.1345 -10.5268 -26.3776 -11.895 -26.2119C-12.9212 -26.0903 -12.0318 -26.466 -13.5369 -25.9577C-15.5208 -25.2946 -17.1057 -23.2833 -17.1057 -21.1615C-17.1057 -19.9349 -16.433 -18.4209 -15.5436 -17.7357C-14.221 -16.7301 -13.4799 -16.3875 -11.553 -16.3875ZM17.75 -31.218C19.4603 -31.218 20.6803 -30.7538 21.7178 -29.7371L21.9345 -29.5051C21.9459 -29.494 21.9573 -29.483 21.9573 -29.4719C22.573 -28.7536 23.0063 -27.77 23.2799 -26.8418C23.4281 -26.3445 23.5878 -25.7698 23.679 -25.2725C23.736 -24.9631 23.7816 -24.6979 23.8044 -24.4216C23.8272 -24.1232 23.8956 -23.8248 23.9184 -23.5486C23.9298 -23.3938 23.907 -23.2281 23.9298 -23.0734C23.9526 -22.9076 23.9754 -22.8744 23.9754 -22.6313C23.9754 -22.2335 24.0324 -22.0788 24.0324 -21.703L23.3255 -21.1947C23.2001 -21.0952 23.1317 -21.0179 22.9949 -20.9184C22.2309 -20.2885 21.581 -19.3381 21.1363 -18.4872C20.9881 -18.2109 20.8741 -17.9125 20.7715 -17.5921C20.2356 -16.0118 20.1216 -14.2547 20.7487 -12.6523C21.1934 -11.503 21.8091 -10.5968 22.7326 -9.8011C23.0405 -9.53587 23.8386 -8.98333 24.2605 -8.89492L24.3289 -5.72328C24.3745 -5.45805 24.3631 -5.22598 24.3631 -4.93865C24.3631 -4.59607 24.4087 -4.47451 24.4201 -4.17613C24.4429 -3.64569 24.5341 -3.14839 24.5341 -2.60689C23.8044 -2.60689 22.3449 -2.49638 21.6494 -2.35272C20.8285 -2.18695 20.9311 -2.03224 21.1705 -1.6786L23.3483 -1.73386C23.8386 -1.77806 24.4087 -1.81122 24.8648 -1.6786C25.2068 -1.57915 25.9023 -1.84437 27.0995 -1.24762C28.9923 -0.31933 29.0607 2.68654 29.0607 4.67572C29.0607 5.39404 28.9809 6.00185 28.8783 6.66491C28.8554 6.84172 28.8212 7.15116 28.787 7.33902C28.388 9.51608 28.3081 11.7705 28.0117 13.9696C27.9433 14.4559 27.9319 14.8758 27.8749 15.351L27.5442 18.6663C27.5328 18.8431 27.51 19.1415 27.4758 19.3625C27.3504 20.3571 27.0311 21.3186 26.5979 22.2026C26.5523 22.3021 26.5294 22.3573 26.4724 22.4679C26.1988 23.0204 25.8225 23.584 25.4007 24.0371C24.5341 24.9764 23.4623 25.6727 22.1967 26.0926C21.8319 26.2142 21.3302 26.3578 20.9767 26.4241C20.0532 26.6009 19.255 26.6562 18.3315 26.7888L12.5849 27.1424C11.6385 27.2198 10.4984 27.1093 9.5748 27.2087C9.34676 27.2309 9.20993 27.253 8.89068 27.253C8.54862 27.253 8.43461 27.2972 8.16096 27.3082C7.64787 27.3303 7.15759 27.3082 6.6673 27.3745C6.47347 27.3966 6.23403 27.3966 5.98319 27.4187L4.58076 27.5845C4.01066 27.6508 4.39833 27.5624 4.02206 27.474C3.88525 27.5624 3.87384 27.6397 3.72562 27.6729C3.49757 27.7281 2.20916 27.7392 1.83289 27.7392C-0.0712204 27.7392 -1.20001 26.9988 -1.81572 25.739C-1.97534 25.4074 -2.05516 25.0869 -2.13497 24.6891C-2.2946 23.9045 -2.40862 22.8878 -2.36301 22.0811L-2.306 20.7218C-2.306 19.8709 -2.20338 18.9757 -2.77348 18.2906C-2.95591 18.0806 -3.13834 17.8264 -3.35498 17.6607C-3.62862 17.4507 -3.5146 17.7822 -3.95927 17.4396L-5.48714 16.4782C-5.58975 16.4119 -5.69237 16.3566 -5.78358 16.2793C-5.8976 16.1909 -6.00022 16.1356 -6.05723 16.003C-5.15648 15.5389 -3.65143 14.7764 -2.86469 14.268C-2.37441 13.9475 -1.88413 13.616 -1.63329 13.0634C-1.46226 12.6767 -1.38244 11.9804 -1.35964 11.5384C-1.34824 11.3505 -1.40525 11.2179 -1.40525 10.9527C-1.40525 8.21206 -1.45086 5.11777 -0.401882 2.58709C-0.310669 2.37712 -0.253658 2.21135 -0.151039 2.01243C1.38822 -0.97134 4.8088 -1.25867 7.89872 -1.25867C9.02751 -1.25867 9.96246 -1.31392 11.0913 -1.31392C11.6956 -1.31392 12.0718 -1.25867 12.6647 -1.25867L17.4877 -1.31392C17.7728 -1.32497 17.7956 -1.36918 18.1034 -1.36918C18.5139 -1.36918 18.913 -1.40233 19.3006 -1.45758C19.5971 -1.50179 20.3382 -1.44653 20.3382 -1.70071C20.3382 -2.12065 19.8707 -2.08749 19.4375 -2.07644L16.8036 -2.02119C16.3475 -2.02119 16.0283 -1.96593 15.5152 -1.96593C15.0135 -1.96593 14.7399 -2.02119 14.2268 -2.02119C13.7821 -2.02119 13.3146 -2.01014 12.8813 -2.02119L4.68338 -1.88857C0.396255 -1.21446 -1.1088 0.829971 -1.87273 4.73098C-2.00955 5.40509 -2.12357 6.33338 -2.12357 7.0959C-2.3288 7.0959 -2.44282 7.04065 -2.64806 7.00749L-4.35834 6.81963C-4.27853 6.52125 -3.81105 6.23392 -3.60582 5.9687L-2.85329 5.12882C-2.65946 5.00726 -2.59105 4.99621 -2.47703 4.74203C-2.03235 3.7806 -1.67889 2.1782 -2.19198 1.19466C-2.42002 0.763672 -2.99011 0.52055 -3.5032 0.708416C-3.65142 0.763672 -3.76545 0.907333 -3.81105 0.907333C-4.36975 0.907333 -4.32414 0.487392 -5.13368 1.24991C-5.2591 1.37147 -5.77218 1.54829 -5.94321 1.54829C-6.50191 1.54829 -7.41406 1.12835 -7.96135 1.00679C-7.96135 0.189014 -8.12098 -0.639811 -8.42883 -1.36918C-8.49724 -1.53494 -8.52005 -1.55704 -8.58846 -1.70071C-8.70248 -1.95488 -8.78229 -2.06539 -9.04454 -2.1759C-9.23837 -2.25326 -9.21556 -2.26431 -9.35239 -2.36377C-9.92249 -2.75055 -10.5952 -3.15944 -11.0399 -3.65673C-10.8232 -3.96616 -10.4698 -4.20929 -10.2303 -4.49661C-9.52341 -5.32544 -9.24977 -5.56856 -9.24977 -6.75102C-9.24977 -7.87822 -9.89968 -10.8399 -10.0365 -12.4423C-10.0593 -12.6744 -10.0935 -13.1054 -10.1391 -13.3153C-8.8621 -14.1441 -7.60789 -15.0614 -6.28527 -15.8239C-6.08004 -15.9455 -5.07666 -16.4538 -4.98545 -16.6859C-5.8634 -16.6859 -7.02639 -16.0781 -7.74471 -15.6692L-10.1391 -14.2436C-10.2303 -14.6414 -10.1961 -15.2271 -10.1961 -15.7134C-9.51201 -15.7686 -8.72528 -16.1665 -8.17799 -16.4759L-7.34565 -17.0285C-7.072 -17.2274 -6.86677 -17.4484 -6.62733 -17.6805C-5.63536 -18.653 -4.98545 -20.178 -4.98545 -21.5815C-4.98545 -23.0071 -5.73798 -24.6979 -6.76415 -25.5598C-6.80976 -25.593 -6.78695 -25.5819 -6.85537 -25.6372C-6.93518 -25.6925 -6.88957 -25.6814 -7.00359 -25.7146C-6.87817 -26.1566 -5.56695 -27.2396 -5.09947 -27.5601C-3.05853 -28.9857 -0.652725 -29.6708 1.8785 -30.0245C2.18636 -30.0687 2.4258 -30.0797 2.72224 -30.1239C2.92748 -30.1571 3.34935 -30.2013 3.57739 -30.2123C5.31048 -30.3228 7.08918 -30.5217 8.79947 -30.6986C9.97386 -30.8201 11.1369 -30.8312 12.3227 -30.9748C12.6875 -31.019 12.4139 -30.9859 12.6533 -31.0964L12.8243 -31.1406C12.8928 -31.1517 13.0296 -31.1406 13.1094 -31.1406C13.4629 -31.1406 13.6111 -31.1959 14.0101 -31.1959C15.2986 -31.1517 16.4273 -31.218 17.75 -31.218ZM-7.80172 -26.2782C-8.02976 -26.3997 -8.18939 -26.5102 -8.46303 -26.6207C-8.71387 -26.7202 -8.93052 -26.8086 -9.18136 -26.897C-11.1197 -27.549 -13.4343 -27.1954 -15.1104 -26.0792C-15.2244 -26.0019 -15.2244 -25.9908 -15.3384 -25.9135L-17.0601 -24.1674C-17.1855 -23.9906 -17.2311 -23.8801 -17.3565 -23.6922C-18.759 -21.3936 -18.0178 -18.5314 -15.8515 -16.9622C-14.4148 -15.9123 -13.058 -15.5255 -11.1083 -15.5255C-11.1311 -15.2935 -11.1881 -15.2935 -11.1539 -14.9951L-11.1083 -13.68C-11.1083 -13.5142 -11.1425 -13.5916 -11.2223 -13.5142C-11.5872 -13.1717 -12.2941 -12.9838 -12.2941 -12.4312C-12.2941 -12.1881 -12.0204 -12.2102 -11.8494 -12.2102C-11.7468 -12.2102 -11.1539 -12.6191 -11.0057 -12.6965C-11.0057 -12.1439 -10.8916 -11.6466 -10.8346 -11.1272C-10.6864 -9.8232 -10.1619 -7.69036 -10.1619 -6.5079C-10.1619 -5.60172 -11.0057 -5.03811 -11.5758 -4.46346C-12.5449 -3.49097 -11.7468 -2.87211 -10.6978 -2.1317L-9.53482 -1.41338C-9.20416 -1.24762 -9.23837 -1.26972 -9.13575 -0.882933C-9.02173 -0.462994 -8.88491 0.222168 -8.88491 0.719463C-9.06734 0.675259 -9.34098 0.564751 -9.54622 0.498444C-9.89967 0.387932 -10.6066 0.155861 -10.732 0.664207C-10.5724 0.896278 -9.77425 1.1615 -9.4322 1.30517C-8.96472 1.48198 -8.8279 1.42673 -8.78229 1.92403C-8.73669 2.44342 -8.8279 3.25015 -8.61126 3.71429C-9.32959 4.09003 -10.0479 4.35525 -10.8232 4.66468C-11.5986 4.96305 -12.3055 5.29458 -12.9782 5.72557C-13.2518 5.50455 -14.8253 4.33315 -14.8253 5.01831C-14.8253 5.23933 -14.7341 5.30564 -14.6087 5.4051C-14.4832 5.50455 -14.4034 5.58191 -14.2666 5.67031C-14.0614 5.82503 -13.7877 6.09026 -13.5369 6.15656C-13.8675 6.64281 -14.3806 6.86383 -14.8937 7.94683C-15.0533 8.27836 -15.1902 8.66514 -15.3726 9.00772C-15.4752 9.19559 -15.5322 9.31716 -15.6348 9.51608C-15.7603 9.7592 -15.8401 9.81445 -15.9541 10.0244C-16.832 9.57133 -16.8662 9.42766 -17.71 10.3338C-17.8126 10.4444 -17.9038 10.577 -17.995 10.7096C-18.1091 10.8864 -18.1661 10.9527 -18.2801 11.1406L-19.0554 12.4446C-19.2036 12.7319 -19.1922 12.9308 -19.4431 13.0966C-20.5035 13.7818 -20.5605 13.5497 -21.7577 14.699C-22.0085 14.9421 -22.2137 15.141 -22.4532 15.3731C-22.59 15.5057 -22.6926 15.5941 -22.8181 15.7267C-22.8979 15.8041 -22.8979 15.8152 -22.9777 15.9036L-23.8328 16.8097C-24.0267 17.0418 -24.3231 17.296 -24.5511 17.517L-25.6457 18.5227C-25.8054 18.6774 -25.8738 18.7105 -26.0334 18.8542C-26.2956 19.0752 -27.3218 19.9814 -27.6411 20.0587C-27.7437 19.6388 -28.0059 19.1747 -28.1655 18.7658L-29.5908 14.7211C-28.348 13.9144 -28.9751 13.1298 -28.9751 12.8756C-28.9751 12.7098 -28.8611 12.5551 -28.8269 12.312C-28.8041 12.1462 -28.8497 11.9141 -28.8611 11.6821C-28.8725 11.4058 -28.9295 11.3395 -29.0207 11.1185C-29.1119 10.8864 -28.8155 10.146 -29.1689 9.31715C-29.2601 9.10718 -29.2943 9.07403 -29.4312 8.91932C-29.7846 8.52148 -29.2373 8.36676 -29.8758 7.12905C-30.0811 6.74227 -30.3319 6.44389 -30.6968 6.24497C-31.2213 5.95765 -31.951 6.11236 -32.0308 5.91344C-32.1334 5.63717 -32.008 4.66467 -32.0992 4.28894C-30.8792 4.28894 -29.6478 3.96846 -29.2943 2.7639C-29.0891 2.06769 -29.4198 1.57039 -28.8725 1.6367C-28.0629 1.74721 -27.3104 1.91298 -26.5807 2.14505C-26.1246 2.28871 -25.7255 2.28871 -25.2809 2.45448C-24.3687 2.786 -23.4338 3.05123 -22.59 3.53747C-21.3358 4.27789 -19.6711 4.73098 -18.1889 4.33315C-17.5732 4.16738 -17.1057 4.00162 -16.6268 3.72534C-16.3874 3.59273 -16.1935 3.50432 -15.9769 3.32751C-15.7603 3.16174 -15.5436 3.02913 -15.3612 2.84126C-14.7911 2.29976 -14.3122 1.71406 -13.8789 1.0731C-13.1036 -0.0983086 -12.6019 -1.45758 -12.3739 -2.83896C-11.9634 -5.24808 -12.1915 -7.49144 -13.058 -9.79005C-13.1036 -9.91161 -13.1606 -10.0442 -13.229 -10.1658C-13.5255 -10.7736 -13.8333 -11.3593 -14.221 -11.9229C-15.8743 -14.332 -19.0212 -16.0118 -22.1453 -14.5862C-22.59 -14.3873 -22.9777 -14.1441 -23.3653 -13.8679L-25.1212 -12.6412C-26.7289 -11.6356 -28.4164 -10.7294 -30.0697 -9.779C-31.5747 -8.90597 -33.8551 -7.88927 -35.5312 -7.41408C-36.6372 -7.10465 -37.1617 -6.76207 -37.7432 -5.75643C-38.4615 -4.50766 -38.6781 -2.78371 -38.3589 -1.36918C-38.2904 -1.0487 -38.0966 -0.584553 -37.9598 -0.352482C-37.5949 0.266373 -37.1503 0.708412 -36.4889 1.05099C-36.4889 1.76931 -36.2039 2.35501 -36.2039 3.06228C-37.1389 3.06228 -37.3897 3.10648 -37.3783 4.09002C-37.3783 4.3663 -37.3783 4.71993 -37.4125 4.91885C-37.4695 5.18407 -37.5721 5.43825 -37.5949 5.65927L-38.929 5.37194C-39.6359 5.21723 -39.7955 5.26143 -40.3428 5.27248C-40.5252 4.9078 -40.5708 4.52102 -40.8217 4.16738C-41.3006 3.49327 -42.9424 3.217 -43.7748 3.06228C-44.037 3.01808 -44.2537 2.99598 -44.4931 2.94072L-44.5501 2.34396C-43.0793 2.34396 -42.2013 1.59249 -41.312 0.818928L-40.7533 0.222168C-39.8069 -0.916086 -39.385 -1.51284 -38.8377 -2.97157C-38.6781 -3.39151 -38.4957 -3.87776 -38.4045 -4.3419C-38.2106 -5.25913 -38.2905 -5.11547 -38.2905 -5.9664C-38.2905 -6.06586 -38.1308 -6.34213 -38.0738 -7.00519C-38.0282 -7.55774 -37.8686 -7.41408 -37.5493 -7.80087C-36.8994 -8.58549 -36.6714 -9.64639 -36.9678 -10.6631C-37.1389 -11.2488 -36.9792 -10.8509 -36.2951 -11.7461C-34.4252 -14.1663 -34.5392 -17.0616 -36.4091 -19.4707L-37.1845 -20.3438C-39.4534 -22.2003 -38.6667 -21.3052 -39.6131 -21.8467C-39.8981 -22.0125 -40.0235 -22.1119 -40.263 -22.2998C-40.7647 -22.6866 -41.3918 -22.6976 -42.0075 -22.8413C-42.3039 -22.9076 -42.6574 -23.0513 -42.8854 -23.0734C-44.1168 -23.217 -43.1021 -23.4049 -45.6219 -23.4049C-46.4428 -23.4049 -47.298 -23.2612 -47.9251 -23.0844C-48.2671 -22.985 -48.575 -22.9076 -48.9056 -22.786C-49.4985 -22.554 -50.08 -22.2445 -50.6159 -21.8909C-51.1404 -21.5594 -51.6079 -21.1505 -51.9956 -20.6753C-52.0982 -20.5537 -52.2008 -20.4432 -52.292 -20.3106L-52.5657 -19.9238C-53.8997 -20.5427 -55.0627 -20.1227 -56.2029 -19.3823C-58.2894 -18.0452 -59.3384 -15.404 -59.3384 -12.7628C-59.3384 -11.8676 -58.8595 -10.6852 -58.3578 -10.0111C-58.1412 -9.72374 -57.8105 -9.49167 -57.7649 -9.33696C-57.9702 -9.06068 -58.1982 -9.00543 -58.5175 -8.49708C-59.4068 -7.0715 -58.7797 -5.39174 -57.3887 -4.49661C-56.1801 -3.72304 -55.3705 -3.47992 -53.8427 -3.47992C-53.5576 -3.47992 -53.5462 -3.56833 -53.284 -3.59043C-53.1928 -3.2147 -52.8279 -2.6732 -52.6113 -1.5902C-52.4288 -0.728218 -52.3946 -0.153564 -52.3946 0.907333C-53.7058 1.20571 -55.3135 1.61459 -55.3135 3.12858C-55.3135 3.71429 -55.0285 4.46576 -54.8916 4.99621C-54.732 5.58191 -54.4356 6.18972 -54.4242 6.81963C-54.8232 6.85278 -55.895 7.44954 -56.2941 7.6153C-56.9212 7.89157 -57.5255 8.21206 -58.1298 8.49938L-61.6644 10.4002C-62.1775 10.7869 -62.6221 11.2069 -62.93 11.7815C-63.5001 12.7982 -63.922 14.8648 -63.9562 16.1025C-63.9676 16.5224 -64.0702 16.865 -64.0702 17.296L-64.1272 19.031C-64.1272 19.5725 -64.0702 19.9593 -64.0702 20.4455C-64.0702 21.3296 -63.8421 22.2468 -63.8421 23.1641C-63.8421 24.2802 -63.3405 27.2087 -63.0782 28.347C-62.5993 30.4356 -61.9266 32.4469 -60.4444 34.0493L-59.8287 34.6461C-59.669 34.7787 -59.384 34.9666 -59.3156 35.1323C-59.27 35.2318 -59.2244 35.5965 -59.1902 35.718C-59.1446 35.9169 -59.0761 36.138 -59.0305 36.3258C-58.6657 37.7404 -58.9963 39.3649 -59.4752 40.6026C-59.8401 41.5419 -60.6154 43.4979 -59.8629 44.4152C-59.612 44.7246 -59.7603 44.7799 -59.8857 45.3545C-59.9769 45.7413 -60.0567 46.0728 -60.1251 46.4265C-60.1821 46.7027 -60.3532 47.2553 -60.3532 47.5095C-60.3532 48.0952 -59.7375 48.4267 -59.7375 48.4819C-59.7375 49.9296 -60.0681 51.3221 -60.0681 52.7697C-60.4102 52.9244 -60.7636 52.8802 -61.2425 52.8802C-61.7214 52.8802 -62.0635 52.9355 -62.4739 52.9355C-62.3713 53.3444 -62.3941 53.5875 -62.2117 53.6538C-61.9152 53.7754 -49.4301 53.698 -47.4006 53.698C-46.4884 53.698 -45.7587 53.6428 -44.8237 53.6428C-43.0679 53.6428 -41.312 53.6428 -39.5561 53.6428C-31.78 53.6428 -23.8214 53.3886 -16.0225 53.4217C-15.5322 53.4217 -15.2472 53.3665 -14.7341 53.3665C-14.221 53.3665 -13.8904 53.2891 -13.8904 52.825C-13.8904 52.1619 -14.8937 52.3388 -15.5664 52.3388C-16.319 52.3388 -17.0601 52.3388 -17.8126 52.3388C-18.5993 52.3388 -19.1808 52.394 -19.9448 52.394L-31.0388 52.4493C-31.0388 51.6757 -31.0046 46.4265 -31.1186 45.6308C-31.1871 45.1998 -30.8792 45.0009 -30.6854 44.6583C-30.5714 44.4594 -30.5029 44.3378 -30.4345 44.1389C-29.9328 42.5475 -30.9248 40.4258 -30.9248 39.8069C-30.9248 39.177 -30.4573 38.9891 -30.8564 36.37L-31.1186 34.6129C-31.2099 33.9388 -31.2555 32.4359 -31.3581 31.8612C-31.4721 31.2092 -31.3809 31.4413 -31.3809 30.9661C-31.3809 30.5241 -31.5177 30.1041 -31.5519 29.7173C-29.9556 30.4577 -27.4358 30.1152 -25.8966 29.6621C-24.5853 29.2863 -23.3995 28.5791 -22.2023 27.9823C-20.1728 26.9656 -18.3257 25.54 -16.604 24.1255C-15.7147 23.3961 -14.8481 22.5894 -14.1298 21.6943C-13.3431 20.7218 -12.4651 18.4121 -12.6589 17.1523C-12.7388 16.6661 -12.7274 16.4119 -12.3853 16.0472C-12.009 15.6383 -10.9943 14.2791 -10.9943 13.8039C-10.9943 13.1629 -11.6556 13.0856 -11.895 12.7761C-11.7582 12.533 -11.7468 12.5772 -11.5758 12.3783C-11.4389 12.2125 -11.4047 12.1573 -11.2337 12.0026C-10.6294 11.4279 -10.0593 10.7427 -9.32958 10.3228C-8.67967 9.94706 -4.72321 9.64868 -4.72321 8.32256C-4.72321 7.95788 -4.96265 7.62635 -5.39592 7.6153C-5.2477 7.42743 -5.13367 7.56004 -4.83722 7.6153C-4.59779 7.67056 -4.47237 7.69265 -4.17591 7.73686C-3.76545 7.79211 -3.20675 7.82526 -2.70506 7.82526C-2.42002 7.82526 -2.45423 7.78106 -2.20338 7.77001C-2.20338 8.28941 -2.2718 8.75356 -2.2604 9.35031C-2.2604 9.65974 -2.20338 9.7592 -2.20338 10.1018C-2.21479 12.3783 -1.79291 12.7872 -4.03909 13.9807L-5.65816 14.8537C-5.8634 14.9532 -6.02303 15.0195 -6.21686 15.13C-6.58172 15.34 -7.02639 15.5057 -7.02639 16.0251C-7.02639 16.4672 -6.4677 16.7876 -6.18265 16.9976C-5.43012 17.5391 -4.62059 17.9369 -3.79965 18.379C-3.08133 18.7547 -3.22956 20.4345 -3.22956 21.0754L-3.28657 22.5452C-3.20675 23.794 -3.10413 25.4406 -2.42002 26.4352C-1.1316 28.3139 0.41906 28.568 2.59682 28.568C3.57739 28.568 4.66057 28.4465 5.60693 28.3359L9.42657 28.0818C9.70022 28.0818 9.99667 28.0928 10.2703 28.0818C10.5668 28.0707 10.6922 28.0265 11.057 28.0265C11.3307 28.0265 11.6271 28.0376 11.9008 28.0265L13.4172 27.9271C13.9417 27.8718 14.489 27.916 15.0249 27.8608C15.9941 27.7613 17.1115 27.8165 18.0806 27.6729C18.5937 27.6066 19.0498 27.5845 19.5515 27.5292C20.8969 27.3524 22.3107 27.0209 23.4737 26.5015C26.1076 25.3411 27.7723 22.7552 28.2739 20.0256C28.4792 18.9315 28.73 15.4394 28.8668 14.1907L29.7106 6.97434C30.0298 4.44366 30.2123 1.74721 29.0265 -0.584555C28.3652 -1.86647 26.8601 -2.56269 25.3893 -2.59584C25.3893 -3.60148 25.2182 -4.51872 25.2182 -5.52436C25.2182 -6.59631 25.1612 -7.48039 25.1612 -8.56339C26.8373 -8.18765 28.0231 -8.14345 29.665 -8.7623C30.4061 -9.03858 30.9876 -9.37011 31.6375 -9.779C33.2338 -10.7957 34.4082 -12.7628 34.8757 -14.5641C35.1493 -15.6029 35.1835 -16.7743 34.9669 -17.802C34.8643 -18.2551 34.7274 -18.664 34.5678 -19.0397C34.1459 -20.0675 33.496 -20.9074 32.6637 -21.5925L32.3558 -21.8357C30.7368 -23.0181 28.3082 -23.4491 26.29 -22.8192C26.0278 -22.7418 25.8339 -22.6755 25.5717 -22.5871C25.2866 -22.4877 25.1156 -22.3551 24.8648 -22.2887C24.8648 -24.4879 24.2719 -27.1291 23.2799 -29.063C22.2423 -31.0854 20.2584 -32.1241 17.807 -32.1241C16.0283 -32.1241 13.383 -32.0468 11.6385 -31.9142C10.772 -31.8479 9.80283 -31.9142 8.9933 -31.649C8.35479 -31.439 5.4473 -31.3064 4.56936 -31.2069C1.66187 -30.8864 -0.652721 -30.7759 -3.43479 -29.5714C-4.98545 -28.8973 -6.22826 -27.98 -7.36845 -26.8197C-7.51668 -26.5765 -7.55088 -26.4329 -7.80172 -26.2782Z" fill="#0B0A0A"/>
</g>
</svg>
