<svg width="20" height="20" viewBox="0 0 20 20" fill="none" xmlns="http://www.w3.org/2000/svg">
<path d="M7.31581 9.86134H5.74065C5.53177 9.86134 5.33145 9.94432 5.18375 10.092C5.03605 10.2397 4.95307 10.44 4.95307 10.6489C4.95307 10.8578 5.03605 11.0581 5.18375 11.2058C5.33145 11.3535 5.53177 11.4365 5.74065 11.4365H7.31581C7.52469 11.4365 7.72502 11.3535 7.87272 11.2058C8.02042 11.0581 8.1034 10.8578 8.1034 10.6489C8.1034 10.44 8.02042 10.2397 7.87272 10.092C7.72502 9.94432 7.52469 9.86134 7.31581 9.86134ZM6.52823 8.28618H9.67856C9.88744 8.28618 10.0878 8.2032 10.2355 8.0555C10.3832 7.9078 10.4661 7.70747 10.4661 7.49859C10.4661 7.28971 10.3832 7.08939 10.2355 6.94169C10.0878 6.79399 9.88744 6.71101 9.67856 6.71101H6.52823C6.31935 6.71101 6.11903 6.79399 5.97133 6.94169C5.82363 7.08939 5.74065 7.28971 5.74065 7.49859C5.74065 7.70747 5.82363 7.9078 5.97133 8.0555C6.11903 8.2032 6.31935 8.28618 6.52823 8.28618ZM7.31581 13.0117H5.74065C5.53177 13.0117 5.33145 13.0946 5.18375 13.2423C5.03605 13.39 4.95307 13.5904 4.95307 13.7992C4.95307 14.0081 5.03605 14.2085 5.18375 14.3562C5.33145 14.5039 5.53177 14.5868 5.74065 14.5868H7.31581C7.52469 14.5868 7.72502 14.5039 7.87272 14.3562C8.02042 14.2085 8.1034 14.0081 8.1034 13.7992C8.1034 13.5904 8.02042 13.39 7.87272 13.2423C7.72502 13.0946 7.52469 13.0117 7.31581 13.0117ZM16.7668 9.86134H14.404V2.7731C14.4046 2.63432 14.3685 2.49786 14.2993 2.37754C14.2302 2.25721 14.1304 2.1573 14.0103 2.08791C13.8905 2.01878 13.7547 1.98239 13.6165 1.98239C13.4782 1.98239 13.3424 2.01878 13.2227 2.08791L10.8599 3.44255L8.49719 2.08791C8.37746 2.01878 8.24164 1.98239 8.1034 1.98239C7.96515 1.98239 7.82933 2.01878 7.7096 2.08791L5.34686 3.44255L2.98411 2.08791C2.86439 2.01878 2.72857 1.98239 2.59032 1.98239C2.45207 1.98239 2.31626 2.01878 2.19653 2.08791C2.07634 2.1573 1.97662 2.25721 1.90747 2.37754C1.83832 2.49786 1.80219 2.63432 1.80274 2.7731V15.3744C1.80274 16.0011 2.05167 16.602 2.49477 17.0451C2.93787 17.4882 3.53885 17.7372 4.16549 17.7372H15.1916C15.8183 17.7372 16.4192 17.4882 16.8623 17.0451C17.3054 16.602 17.5544 16.0011 17.5544 15.3744V10.6489C17.5544 10.44 17.4714 10.2397 17.3237 10.092C17.176 9.94432 16.9757 9.86134 16.7668 9.86134ZM4.16549 16.162C3.95661 16.162 3.75628 16.079 3.60858 15.9313C3.46088 15.7836 3.3779 15.5833 3.3779 15.3744V4.13562L4.95307 5.03346C5.07462 5.09695 5.20972 5.13011 5.34686 5.13011C5.48399 5.13011 5.6191 5.09695 5.74065 5.03346L8.1034 3.67882L10.4661 5.03346C10.5877 5.09695 10.7228 5.13011 10.8599 5.13011C10.9971 5.13011 11.1322 5.09695 11.2537 5.03346L12.8289 4.13562V15.3744C12.831 15.6431 12.879 15.9094 12.9707 16.162H4.16549ZM15.9792 15.3744C15.9792 15.5833 15.8962 15.7836 15.7485 15.9313C15.6008 16.079 15.4005 16.162 15.1916 16.162C14.9828 16.162 14.7824 16.079 14.6347 15.9313C14.487 15.7836 14.404 15.5833 14.404 15.3744V11.4365H15.9792V15.3744ZM10.9072 13.1456C10.8633 13.1157 10.8156 13.0919 10.7654 13.0747C10.7185 13.0507 10.6679 13.0347 10.6158 13.0274C10.4893 13.0021 10.3584 13.0082 10.2348 13.0453C10.1112 13.0824 9.99865 13.1493 9.90696 13.2401C9.76304 13.391 9.68146 13.5907 9.67856 13.7992C9.6773 13.9016 9.69603 14.0033 9.73369 14.0985C9.7765 14.1942 9.83507 14.2821 9.90696 14.3584C9.98351 14.428 10.0714 14.4839 10.1669 14.5238C10.2611 14.5655 10.3631 14.587 10.4661 14.587C10.5692 14.587 10.6711 14.5655 10.7654 14.5238C10.8609 14.4839 10.9488 14.428 11.0253 14.3584C11.0983 14.2848 11.1561 14.1976 11.1953 14.1016C11.2345 14.0057 11.2543 13.9029 11.2537 13.7992C11.2508 13.5907 11.1692 13.391 11.0253 13.2401C10.9879 13.2062 10.9484 13.1746 10.9072 13.1456ZM11.0174 10.0897C10.9255 10.0002 10.813 9.93446 10.6899 9.89829C10.5667 9.86213 10.4366 9.85662 10.3108 9.88224C10.185 9.90786 10.0674 9.96384 9.96816 10.0453C9.86896 10.1268 9.79117 10.2312 9.74157 10.3496C9.69255 10.469 9.67358 10.5985 9.68635 10.7269C9.69911 10.8552 9.7432 10.9785 9.81476 11.0858C9.88631 11.1931 9.98313 11.2812 10.0967 11.3424C10.2103 11.4035 10.3371 11.4359 10.4661 11.4365C10.675 11.4365 10.8753 11.3535 11.023 11.2058C11.1707 11.0581 11.2537 10.8578 11.2537 10.6489C11.2525 10.546 11.2311 10.4443 11.1907 10.3496C11.1528 10.2513 11.0936 10.1626 11.0174 10.0897Z" fill="#AAAFB5"/>
</svg>
